solid OpenSCAD_Model
  facet normal 0 -0.195091 -0.980785
    outer loop
      vertex 1 22.1 2.5
      vertex 5 23.0567 2.3097
      vertex 5 22.1 2.5
    endloop
  endfacet
  facet normal -0 -0.195091 -0.980785
    outer loop
      vertex 5 23.0567 2.3097
      vertex 1 22.1 2.5
      vertex 1 23.0567 2.3097
    endloop
  endfacet
  facet normal 0 -0.195091 0.980785
    outer loop
      vertex 1 23.0567 -2.3097
      vertex 5 22.1 -2.5
      vertex 5 23.0567 -2.3097
    endloop
  endfacet
  facet normal 0 -0.195091 0.980785
    outer loop
      vertex 5 22.1 -2.5
      vertex 1 23.0567 -2.3097
      vertex 1 22.1 -2.5
    endloop
  endfacet
  facet normal 0 -0.980785 -0.195091
    outer loop
      vertex 1 24.6 -2.22045e-16
      vertex 5 24.4097 0.956708
      vertex 1 24.4097 0.956708
    endloop
  endfacet
  facet normal -4.26811e-17 -0.980785 -0.195091
    outer loop
      vertex 5 24.4097 0.956708
      vertex 1 24.6 -2.22045e-16
      vertex 5 24.6 -1.11022e-15
    endloop
  endfacet
  facet normal 0 -0.555568 -0.831471
    outer loop
      vertex 1 23.0567 2.3097
      vertex 5 23.2732 2.16506
      vertex 5 23.0567 2.3097
    endloop
  endfacet
  facet normal 6.98424e-08 -0.555569 -0.83147
    outer loop
      vertex 1 23.8678 1.76777
      vertex 5 23.2732 2.16506
      vertex 1 23.0567 2.3097
    endloop
  endfacet
  facet normal 0 -0.555569 -0.83147
    outer loop
      vertex 5 23.2732 2.16506
      vertex 1 23.8678 1.76777
      vertex 5 23.8678 1.76777
    endloop
  endfacet
  facet normal 0 0.980785 -0.195091
    outer loop
      vertex 5 19.7903 0.956708
      vertex 1 19.6 -2.22045e-16
      vertex 1 19.7903 0.956708
    endloop
  endfacet
  facet normal -4.33189e-17 0.980785 -0.195091
    outer loop
      vertex 1 19.6 -2.22045e-16
      vertex 5 19.7903 0.956708
      vertex 5 19.6 -1.11022e-15
    endloop
  endfacet
  facet normal 4.26811e-17 0.980785 0.195091
    outer loop
      vertex 5 19.7903 -0.956708
      vertex 1 19.6 -2.22045e-16
      vertex 5 19.6 -1.11022e-15
    endloop
  endfacet
  facet normal 0 0.980785 0.195091
    outer loop
      vertex 1 19.6 -2.22045e-16
      vertex 5 19.7903 -0.956708
      vertex 1 19.7903 -0.956708
    endloop
  endfacet
  facet normal 4.26811e-17 -0.980785 0.195091
    outer loop
      vertex 1 24.4097 -0.956708
      vertex 5 24.6 -1.11022e-15
      vertex 1 24.6 -2.22045e-16
    endloop
  endfacet
  facet normal 0 -0.980785 0.195091
    outer loop
      vertex 5 24.6 -1.11022e-15
      vertex 1 24.4097 -0.956708
      vertex 5 24.4097 -0.956708
    endloop
  endfacet
  facet normal 0 -0.831469 0.555571
    outer loop
      vertex 1 24.4097 -0.956708
      vertex 5 24.228 -1.22861
      vertex 5 24.4097 -0.956708
    endloop
  endfacet
  facet normal -1.46291e-07 -0.83147 0.555569
    outer loop
      vertex 1 23.8678 -1.76777
      vertex 5 24.228 -1.22861
      vertex 1 24.4097 -0.956708
    endloop
  endfacet
  facet normal 0 -0.831471 0.555569
    outer loop
      vertex 5 24.228 -1.22861
      vertex 1 23.8678 -1.76777
      vertex 5 23.8678 -1.76777
    endloop
  endfacet
  facet normal -0 0.195091 0.980785
    outer loop
      vertex 1 22.1 -2.5
      vertex 5 21.1433 -2.3097
      vertex 5 22.1 -2.5
    endloop
  endfacet
  facet normal 0 0.195091 0.980785
    outer loop
      vertex 5 21.1433 -2.3097
      vertex 1 22.1 -2.5
      vertex 1 21.1433 -2.3097
    endloop
  endfacet
  facet normal 0 0.83147 0.555569
    outer loop
      vertex 5 20.3322 -1.76777
      vertex 1 19.7903 -0.956708
      vertex 5 19.7903 -0.956708
    endloop
  endfacet
  facet normal 0 0.83147 0.555569
    outer loop
      vertex 1 19.7903 -0.956708
      vertex 5 20.3322 -1.76777
      vertex 1 20.3322 -1.76777
    endloop
  endfacet
  facet normal -0 0.555571 0.831469
    outer loop
      vertex 1 21.1433 -2.3097
      vertex 5 20.9268 -2.16506
      vertex 5 21.1433 -2.3097
    endloop
  endfacet
  facet normal -1.24371e-07 0.55557 0.83147
    outer loop
      vertex 1 20.3322 -1.76777
      vertex 5 20.9268 -2.16506
      vertex 1 21.1433 -2.3097
    endloop
  endfacet
  facet normal 0 0.555569 0.83147
    outer loop
      vertex 5 20.9268 -2.16506
      vertex 1 20.3322 -1.76777
      vertex 5 20.3322 -1.76777
    endloop
  endfacet
  facet normal 0 -0.83147 -0.555569
    outer loop
      vertex 1 24.4097 0.956708
      vertex 5 23.8678 1.76777
      vertex 1 23.8678 1.76777
    endloop
  endfacet
  facet normal 0 -0.83147 -0.555569
    outer loop
      vertex 5 23.8678 1.76777
      vertex 1 24.4097 0.956708
      vertex 5 24.4097 0.956708
    endloop
  endfacet
  facet normal 0 -0.555569 0.83147
    outer loop
      vertex 1 23.8678 -1.76777
      vertex 5 23.2732 -2.16506
      vertex 5 23.8678 -1.76777
    endloop
  endfacet
  facet normal 6.98424e-08 -0.555569 0.83147
    outer loop
      vertex 1 23.0567 -2.3097
      vertex 5 23.2732 -2.16506
      vertex 1 23.8678 -1.76777
    endloop
  endfacet
  facet normal 0 -0.555568 0.831471
    outer loop
      vertex 5 23.2732 -2.16506
      vertex 1 23.0567 -2.3097
      vertex 5 23.0567 -2.3097
    endloop
  endfacet
  facet normal 0 0.555569 -0.83147
    outer loop
      vertex 1 20.3322 1.76777
      vertex 5 20.9268 2.16506
      vertex 5 20.3322 1.76777
    endloop
  endfacet
  facet normal -1.24371e-07 0.55557 -0.83147
    outer loop
      vertex 1 21.1433 2.3097
      vertex 5 20.9268 2.16506
      vertex 1 20.3322 1.76777
    endloop
  endfacet
  facet normal 0 0.555571 -0.831469
    outer loop
      vertex 5 20.9268 2.16506
      vertex 1 21.1433 2.3097
      vertex 5 21.1433 2.3097
    endloop
  endfacet
  facet normal 0 0.831469 -0.555571
    outer loop
      vertex 5 19.972 1.22861
      vertex 1 20.3322 1.76777
      vertex 5 20.3322 1.76777
    endloop
  endfacet
  facet normal 0 0.831472 -0.555567
    outer loop
      vertex 1 19.7903 0.956708
      vertex 5 19.972 1.22861
      vertex 5 19.7903 0.956708
    endloop
  endfacet
  facet normal 2.50185e-07 0.83147 -0.555569
    outer loop
      vertex 5 19.972 1.22861
      vertex 1 19.7903 0.956708
      vertex 1 20.3322 1.76777
    endloop
  endfacet
  facet normal 0 0.195091 -0.980785
    outer loop
      vertex 1 21.1433 2.3097
      vertex 5 22.1 2.5
      vertex 5 21.1433 2.3097
    endloop
  endfacet
  facet normal 0 0.195091 -0.980785
    outer loop
      vertex 5 22.1 2.5
      vertex 1 21.1433 2.3097
      vertex 1 22.1 2.5
    endloop
  endfacet
  facet normal 0 0.5 -0.866025
    outer loop
      vertex 5 18.35 2.16506
      vertex 12.6544 20.8837 3.62789
      vertex 13.5864 18.35 2.16506
    endloop
  endfacet
  facet normal -9.68669e-08 0.5 -0.866025
    outer loop
      vertex 12.0245 21.8366 4.17804
      vertex 12.6544 20.8837 3.62789
      vertex 5 18.35 2.16506
    endloop
  endfacet
  facet normal -1.32891e-05 0.499994 -0.866029
    outer loop
      vertex 12.6544 20.8837 3.62789
      vertex 12.0245 21.8366 4.17804
      vertex 12.5926 21.0235 3.70861
    endloop
  endfacet
  facet normal 4.79269e-08 0.5 -0.866025
    outer loop
      vertex 12.0245 21.8366 4.17804
      vertex 5 18.35 2.16506
      vertex 5 22.1 4.33013
    endloop
  endfacet
  facet normal 0 0.499999 -0.866026
    outer loop
      vertex 11.8405 22.1 4.33013
      vertex 12.0245 21.8366 4.17804
      vertex 5 22.1 4.33013
    endloop
  endfacet
  facet normal 1 -1.85048e-07 -3.20513e-07
    outer loop
      vertex 5 22.1 4.33013
      vertex 5 23.2732 2.16506
      vertex 5 25.85 2.16506
    endloop
  endfacet
  facet normal 1 -2.3068e-07 -3.45239e-07
    outer loop
      vertex 5 23.2732 2.16506
      vertex 5 22.1 4.33013
      vertex 5 23.0567 2.3097
    endloop
  endfacet
  facet normal 1 -5.18266e-08 -2.60549e-07
    outer loop
      vertex 5 22.1 4.33013
      vertex 5 22.1 2.5
      vertex 5 23.0567 2.3097
    endloop
  endfacet
  facet normal 1 5.18265e-08 -2.60549e-07
    outer loop
      vertex 5 22.1 4.33013
      vertex 5 21.1433 2.3097
      vertex 5 22.1 2.5
    endloop
  endfacet
  facet normal 1 2.30683e-07 -3.4524e-07
    outer loop
      vertex 5 22.1 4.33013
      vertex 5 20.9268 2.16506
      vertex 5 21.1433 2.3097
    endloop
  endfacet
  facet normal 1 -1.85048e-07 -1.19971e-07
    outer loop
      vertex 5 20.9268 2.16506
      vertex 5 22.1 4.33013
      vertex 5 18.35 2.16506
    endloop
  endfacet
  facet normal 0 1 0
    outer loop
      vertex 13.5864 18.35 -1.79326
      vertex 13.5864 18.35 -2.16506
      vertex 5 18.35 -2.16506
    endloop
  endfacet
  facet normal 0 1 0
    outer loop
      vertex 13.5864 18.35 -1.79326
      vertex 5 18.35 2.16506
      vertex 13.5864 18.35 2.16506
    endloop
  endfacet
  facet normal 0 1 0
    outer loop
      vertex 5 18.35 2.16506
      vertex 13.5864 18.35 -1.79326
      vertex 5 18.35 -2.16506
    endloop
  endfacet
  facet normal 1.88093e-05 0.50001 0.86602
    outer loop
      vertex 11.8405 22.1 -4.33013
      vertex 12.6544 20.8837 -3.62789
      vertex 12.5926 21.0235 -3.70861
    endloop
  endfacet
  facet normal -7.69326e-10 0.5 0.866025
    outer loop
      vertex 12.6544 20.8837 -3.62789
      vertex 11.8405 22.1 -4.33013
      vertex 5 18.35 -2.16506
    endloop
  endfacet
  facet normal 0 0.5 0.866025
    outer loop
      vertex 5 18.35 -2.16506
      vertex 11.8405 22.1 -4.33013
      vertex 5 22.1 -4.33013
    endloop
  endfacet
  facet normal 0 0.5 0.866025
    outer loop
      vertex 12.6544 20.8837 -3.62789
      vertex 5 18.35 -2.16506
      vertex 13.5864 18.35 -2.16506
    endloop
  endfacet
  facet normal 1 0 0
    outer loop
      vertex 5 19.7903 0.956708
      vertex 5 18.35 2.16506
      vertex 5 19.6 -1.11022e-15
    endloop
  endfacet
  facet normal 1 0 0
    outer loop
      vertex 5 18.35 2.16506
      vertex 5 19.7903 0.956708
      vertex 5 19.972 1.22861
    endloop
  endfacet
  facet normal 1 0 0
    outer loop
      vertex 5 18.35 -2.16506
      vertex 5 19.6 -1.11022e-15
      vertex 5 18.35 2.16506
    endloop
  endfacet
  facet normal 1 -1.85048e-07 -2.76945e-07
    outer loop
      vertex 5 20.3322 -1.76777
      vertex 5 18.35 -2.16506
      vertex 5 20.9268 -2.16506
    endloop
  endfacet
  facet normal 1 -3.16064e-07 3.76733e-07
    outer loop
      vertex 5 19.7903 -0.956708
      vertex 5 18.35 -2.16506
      vertex 5 20.3322 -1.76777
    endloop
  endfacet
  facet normal 1 0 0
    outer loop
      vertex 5 19.6 -1.11022e-15
      vertex 5 18.35 -2.16506
      vertex 5 19.7903 -0.956708
    endloop
  endfacet
  facet normal 1 -3.68472e-07 -6.38212e-07
    outer loop
      vertex 5 23.8678 -1.76777
      vertex 5 25.85 -2.16506
      vertex 5 24.228 -1.22861
    endloop
  endfacet
  facet normal 1 -1.85048e-07 2.76945e-07
    outer loop
      vertex 5 25.85 -2.16506
      vertex 5 23.8678 -1.76777
      vertex 5 23.2732 -2.16506
    endloop
  endfacet
  facet normal -1.64443e-06 -0.499996 0.866027
    outer loop
      vertex 5 22.1 -4.33013
      vertex 11.4667 24.0967 -3.17734
      vertex 11.4215 24.2356 -3.09716
    endloop
  endfacet
  facet normal 1.46407e-07 -0.5 0.866025
    outer loop
      vertex 5 22.1 -4.33013
      vertex 11.4215 24.2356 -3.09716
      vertex 10.8276 25.85 -2.16506
    endloop
  endfacet
  facet normal 0 -0.5 0.866025
    outer loop
      vertex 5 22.1 -4.33013
      vertex 10.8276 25.85 -2.16506
      vertex 5 25.85 -2.16506
    endloop
  endfacet
  facet normal 0 -0.5 0.866025
    outer loop
      vertex 11.4667 24.0967 -3.17734
      vertex 5 22.1 -4.33013
      vertex 11.8405 22.1 -4.33013
    endloop
  endfacet
  facet normal 1 -3.68471e-07 -6.38211e-07
    outer loop
      vertex 5 20.3322 1.76777
      vertex 5 18.35 2.16506
      vertex 5 19.972 1.22861
    endloop
  endfacet
  facet normal 1 -1.85048e-07 2.76945e-07
    outer loop
      vertex 5 18.35 2.16506
      vertex 5 20.3322 1.76777
      vertex 5 20.9268 2.16506
    endloop
  endfacet
  facet normal 1 0 0
    outer loop
      vertex 5 25.85 2.16506
      vertex 5 24.6 -1.11022e-15
      vertex 5 25.85 -2.16506
    endloop
  endfacet
  facet normal 1 0 0
    outer loop
      vertex 5 25.85 2.16506
      vertex 5 24.4097 0.956708
      vertex 5 24.6 -1.11022e-15
    endloop
  endfacet
  facet normal 1 -3.16064e-07 3.76733e-07
    outer loop
      vertex 5 25.85 2.16506
      vertex 5 23.8678 1.76777
      vertex 5 24.4097 0.956708
    endloop
  endfacet
  facet normal 1 -1.85048e-07 -2.76945e-07
    outer loop
      vertex 5 23.8678 1.76777
      vertex 5 25.85 2.16506
      vertex 5 23.2732 2.16506
    endloop
  endfacet
  facet normal 1 -0 0
    outer loop
      vertex 5 24.4097 -0.956708
      vertex 5 25.85 -2.16506
      vertex 5 24.6 -1.11022e-15
    endloop
  endfacet
  facet normal 1 0 0
    outer loop
      vertex 5 25.85 -2.16506
      vertex 5 24.4097 -0.956708
      vertex 5 24.228 -1.22861
    endloop
  endfacet
  facet normal 1 -2.3068e-07 3.45239e-07
    outer loop
      vertex 5 22.1 -4.33013
      vertex 5 23.2732 -2.16506
      vertex 5 23.0567 -2.3097
    endloop
  endfacet
  facet normal 1 -5.18266e-08 2.60549e-07
    outer loop
      vertex 5 22.1 -4.33013
      vertex 5 23.0567 -2.3097
      vertex 5 22.1 -2.5
    endloop
  endfacet
  facet normal 1 -1.85048e-07 3.20513e-07
    outer loop
      vertex 5 23.2732 -2.16506
      vertex 5 22.1 -4.33013
      vertex 5 25.85 -2.16506
    endloop
  endfacet
  facet normal 1 5.18265e-08 2.60549e-07
    outer loop
      vertex 5 21.1433 -2.3097
      vertex 5 22.1 -4.33013
      vertex 5 22.1 -2.5
    endloop
  endfacet
  facet normal 1 2.30683e-07 3.4524e-07
    outer loop
      vertex 5 20.9268 -2.16506
      vertex 5 22.1 -4.33013
      vertex 5 21.1433 -2.3097
    endloop
  endfacet
  facet normal 1 -1.85048e-07 1.19971e-07
    outer loop
      vertex 5 22.1 -4.33013
      vertex 5 20.9268 -2.16506
      vertex 5 18.35 -2.16506
    endloop
  endfacet
  facet normal 0 -1 0
    outer loop
      vertex 5 25.85 -2.16506
      vertex 10.8276 25.85 2.16506
      vertex 5 25.85 2.16506
    endloop
  endfacet
  facet normal 0 -1 -0
    outer loop
      vertex 10.8276 25.85 2.16506
      vertex 5 25.85 -2.16506
      vertex 10.8276 25.85 -2.16506
    endloop
  endfacet
  facet normal 0 -0.5 -0.866025
    outer loop
      vertex 5 22.1 4.33013
      vertex 11.4667 24.0967 3.17734
      vertex 11.8405 22.1 4.33013
    endloop
  endfacet
  facet normal -1.64443e-06 -0.499996 -0.866027
    outer loop
      vertex 11.4667 24.0967 3.17734
      vertex 5 22.1 4.33013
      vertex 11.4215 24.2356 3.09716
    endloop
  endfacet
  facet normal 1.46407e-07 -0.5 -0.866025
    outer loop
      vertex 11.4215 24.2356 3.09716
      vertex 5 22.1 4.33013
      vertex 10.8276 25.85 2.16506
    endloop
  endfacet
  facet normal -0 -0.5 -0.866025
    outer loop
      vertex 10.8276 25.85 2.16506
      vertex 5 22.1 4.33013
      vertex 5 25.85 2.16506
    endloop
  endfacet
  facet normal 0 -0.195091 -0.980785
    outer loop
      vertex 1 -22.1 2.5
      vertex 5 -21.1433 2.3097
      vertex 5 -22.1 2.5
    endloop
  endfacet
  facet normal -0 -0.195091 -0.980785
    outer loop
      vertex 5 -21.1433 2.3097
      vertex 1 -22.1 2.5
      vertex 1 -21.1433 2.3097
    endloop
  endfacet
  facet normal 0 -0.195091 0.980785
    outer loop
      vertex 1 -21.1433 -2.3097
      vertex 5 -22.1 -2.5
      vertex 5 -21.1433 -2.3097
    endloop
  endfacet
  facet normal 0 -0.195091 0.980785
    outer loop
      vertex 5 -22.1 -2.5
      vertex 1 -21.1433 -2.3097
      vertex 1 -22.1 -2.5
    endloop
  endfacet
  facet normal 0 -0.980785 -0.195091
    outer loop
      vertex 1 -19.6 -2.22045e-16
      vertex 5 -19.7903 0.956708
      vertex 1 -19.7903 0.956708
    endloop
  endfacet
  facet normal -4.26811e-17 -0.980785 -0.195091
    outer loop
      vertex 5 -19.7903 0.956708
      vertex 1 -19.6 -2.22045e-16
      vertex 5 -19.6 -1.11022e-15
    endloop
  endfacet
  facet normal 0 -0.555571 -0.831469
    outer loop
      vertex 1 -21.1433 2.3097
      vertex 5 -20.9268 2.16506
      vertex 5 -21.1433 2.3097
    endloop
  endfacet
  facet normal -1.24371e-07 -0.55557 -0.83147
    outer loop
      vertex 1 -20.3322 1.76777
      vertex 5 -20.9268 2.16506
      vertex 1 -21.1433 2.3097
    endloop
  endfacet
  facet normal 0 -0.555569 -0.83147
    outer loop
      vertex 5 -20.9268 2.16506
      vertex 1 -20.3322 1.76777
      vertex 5 -20.3322 1.76777
    endloop
  endfacet
  facet normal 0 0.980785 -0.195091
    outer loop
      vertex 5 -24.4097 0.956708
      vertex 1 -24.6 -2.22045e-16
      vertex 1 -24.4097 0.956708
    endloop
  endfacet
  facet normal -4.33189e-17 0.980785 -0.195091
    outer loop
      vertex 1 -24.6 -2.22045e-16
      vertex 5 -24.4097 0.956708
      vertex 5 -24.6 -1.11022e-15
    endloop
  endfacet
  facet normal 4.26811e-17 0.980785 0.195091
    outer loop
      vertex 5 -24.4097 -0.956708
      vertex 1 -24.6 -2.22045e-16
      vertex 5 -24.6 -1.11022e-15
    endloop
  endfacet
  facet normal 0 0.980785 0.195091
    outer loop
      vertex 1 -24.6 -2.22045e-16
      vertex 5 -24.4097 -0.956708
      vertex 1 -24.4097 -0.956708
    endloop
  endfacet
  facet normal 4.26811e-17 -0.980785 0.195091
    outer loop
      vertex 1 -19.7903 -0.956708
      vertex 5 -19.6 -1.11022e-15
      vertex 1 -19.6 -2.22045e-16
    endloop
  endfacet
  facet normal 0 -0.980785 0.195091
    outer loop
      vertex 5 -19.6 -1.11022e-15
      vertex 1 -19.7903 -0.956708
      vertex 5 -19.7903 -0.956708
    endloop
  endfacet
  facet normal 0 -0.831472 0.555567
    outer loop
      vertex 1 -19.7903 -0.956708
      vertex 5 -19.972 -1.22861
      vertex 5 -19.7903 -0.956708
    endloop
  endfacet
  facet normal 2.50184e-07 -0.83147 0.555569
    outer loop
      vertex 1 -20.3322 -1.76777
      vertex 5 -19.972 -1.22861
      vertex 1 -19.7903 -0.956708
    endloop
  endfacet
  facet normal 0 -0.831469 0.555571
    outer loop
      vertex 5 -19.972 -1.22861
      vertex 1 -20.3322 -1.76777
      vertex 5 -20.3322 -1.76777
    endloop
  endfacet
  facet normal -0 0.195091 0.980785
    outer loop
      vertex 1 -22.1 -2.5
      vertex 5 -23.0567 -2.3097
      vertex 5 -22.1 -2.5
    endloop
  endfacet
  facet normal 0 0.195091 0.980785
    outer loop
      vertex 5 -23.0567 -2.3097
      vertex 1 -22.1 -2.5
      vertex 1 -23.0567 -2.3097
    endloop
  endfacet
  facet normal 0 0.83147 0.555569
    outer loop
      vertex 5 -23.8678 -1.76777
      vertex 1 -24.4097 -0.956708
      vertex 5 -24.4097 -0.956708
    endloop
  endfacet
  facet normal 0 0.83147 0.555569
    outer loop
      vertex 1 -24.4097 -0.956708
      vertex 5 -23.8678 -1.76777
      vertex 1 -23.8678 -1.76777
    endloop
  endfacet
  facet normal -0 0.555568 0.831471
    outer loop
      vertex 1 -23.0567 -2.3097
      vertex 5 -23.2732 -2.16506
      vertex 5 -23.0567 -2.3097
    endloop
  endfacet
  facet normal 6.98424e-08 0.555569 0.83147
    outer loop
      vertex 1 -23.8678 -1.76777
      vertex 5 -23.2732 -2.16506
      vertex 1 -23.0567 -2.3097
    endloop
  endfacet
  facet normal 0 0.555569 0.83147
    outer loop
      vertex 5 -23.2732 -2.16506
      vertex 1 -23.8678 -1.76777
      vertex 5 -23.8678 -1.76777
    endloop
  endfacet
  facet normal 0 -0.83147 -0.555569
    outer loop
      vertex 1 -19.7903 0.956708
      vertex 5 -20.3322 1.76777
      vertex 1 -20.3322 1.76777
    endloop
  endfacet
  facet normal 0 -0.83147 -0.555569
    outer loop
      vertex 5 -20.3322 1.76777
      vertex 1 -19.7903 0.956708
      vertex 5 -19.7903 0.956708
    endloop
  endfacet
  facet normal 0 -0.555569 0.83147
    outer loop
      vertex 1 -20.3322 -1.76777
      vertex 5 -20.9268 -2.16506
      vertex 5 -20.3322 -1.76777
    endloop
  endfacet
  facet normal -1.24371e-07 -0.55557 0.83147
    outer loop
      vertex 1 -21.1433 -2.3097
      vertex 5 -20.9268 -2.16506
      vertex 1 -20.3322 -1.76777
    endloop
  endfacet
  facet normal 0 -0.555571 0.831469
    outer loop
      vertex 5 -20.9268 -2.16506
      vertex 1 -21.1433 -2.3097
      vertex 5 -21.1433 -2.3097
    endloop
  endfacet
  facet normal 0 0.555569 -0.83147
    outer loop
      vertex 1 -23.8678 1.76777
      vertex 5 -23.2732 2.16506
      vertex 5 -23.8678 1.76777
    endloop
  endfacet
  facet normal 6.98424e-08 0.555569 -0.83147
    outer loop
      vertex 1 -23.0567 2.3097
      vertex 5 -23.2732 2.16506
      vertex 1 -23.8678 1.76777
    endloop
  endfacet
  facet normal 0 0.555568 -0.831471
    outer loop
      vertex 5 -23.2732 2.16506
      vertex 1 -23.0567 2.3097
      vertex 5 -23.0567 2.3097
    endloop
  endfacet
  facet normal 0 0.831471 -0.555569
    outer loop
      vertex 5 -24.228 1.22861
      vertex 1 -23.8678 1.76777
      vertex 5 -23.8678 1.76777
    endloop
  endfacet
  facet normal 0 0.831469 -0.555571
    outer loop
      vertex 1 -24.4097 0.956708
      vertex 5 -24.228 1.22861
      vertex 5 -24.4097 0.956708
    endloop
  endfacet
  facet normal -1.46291e-07 0.83147 -0.555569
    outer loop
      vertex 5 -24.228 1.22861
      vertex 1 -24.4097 0.956708
      vertex 1 -23.8678 1.76777
    endloop
  endfacet
  facet normal 0 0.195091 -0.980785
    outer loop
      vertex 1 -23.0567 2.3097
      vertex 5 -22.1 2.5
      vertex 5 -23.0567 2.3097
    endloop
  endfacet
  facet normal 0 0.195091 -0.980785
    outer loop
      vertex 5 -22.1 2.5
      vertex 1 -23.0567 2.3097
      vertex 1 -22.1 2.5
    endloop
  endfacet
  facet normal 4.16309e-07 0.500001 -0.866025
    outer loop
      vertex 5 -22.1 4.33013
      vertex 11.4667 -24.0967 3.17734
      vertex 11.4215 -24.2356 3.09716
    endloop
  endfacet
  facet normal 1.46407e-07 0.5 -0.866025
    outer loop
      vertex 5 -22.1 4.33013
      vertex 11.4215 -24.2356 3.09716
      vertex 10.8276 -25.85 2.16506
    endloop
  endfacet
  facet normal -8.03378e-08 0.5 -0.866026
    outer loop
      vertex 11.4667 -24.0967 3.17734
      vertex 5 -22.1 4.33013
      vertex 11.7928 -22.3547 4.18306
    endloop
  endfacet
  facet normal 0 0.5 -0.866025
    outer loop
      vertex 5 -22.1 4.33013
      vertex 10.8276 -25.85 2.16506
      vertex 5 -25.85 2.16506
    endloop
  endfacet
  facet normal 0 0.500001 -0.866025
    outer loop
      vertex 11.8405 -22.1 4.33013
      vertex 11.7928 -22.3547 4.18306
      vertex 5 -22.1 4.33013
    endloop
  endfacet
  facet normal 1 -1.85048e-07 -3.20512e-07
    outer loop
      vertex 5 -22.1 4.33013
      vertex 5 -20.9268 2.16506
      vertex 5 -18.35 2.16506
    endloop
  endfacet
  facet normal 1 -2.30683e-07 -3.4524e-07
    outer loop
      vertex 5 -20.9268 2.16506
      vertex 5 -22.1 4.33013
      vertex 5 -21.1433 2.3097
    endloop
  endfacet
  facet normal 1 -5.18265e-08 -2.60549e-07
    outer loop
      vertex 5 -22.1 4.33013
      vertex 5 -22.1 2.5
      vertex 5 -21.1433 2.3097
    endloop
  endfacet
  facet normal 1 5.18266e-08 -2.60549e-07
    outer loop
      vertex 5 -22.1 4.33013
      vertex 5 -23.0567 2.3097
      vertex 5 -22.1 2.5
    endloop
  endfacet
  facet normal 1 2.3068e-07 -3.45239e-07
    outer loop
      vertex 5 -22.1 4.33013
      vertex 5 -23.2732 2.16506
      vertex 5 -23.0567 2.3097
    endloop
  endfacet
  facet normal 1 -1.85048e-07 -1.19971e-07
    outer loop
      vertex 5 -23.2732 2.16506
      vertex 5 -22.1 4.33013
      vertex 5 -25.85 2.16506
    endloop
  endfacet
  facet normal 0 1 0
    outer loop
      vertex 10.8276 -25.85 -1.91272
      vertex 10.8276 -25.85 -2.16506
      vertex 5 -25.85 -2.16506
    endloop
  endfacet
  facet normal 0 1 -4.67742e-07
    outer loop
      vertex 10.8276 -25.85 -1.91272
      vertex 5 -25.85 2.16506
      vertex 10.8276 -25.85 2.16506
    endloop
  endfacet
  facet normal 1.90735e-08 1 -4.40483e-07
    outer loop
      vertex 5 -25.85 2.16506
      vertex 10.8276 -25.85 -1.91272
      vertex 5 -25.85 -2.16506
    endloop
  endfacet
  facet normal -0 0.5 0.866025
    outer loop
      vertex 5 -22.1 -4.33013
      vertex 11.4667 -24.0967 -3.17734
      vertex 11.8405 -22.1 -4.33013
    endloop
  endfacet
  facet normal 3.87295e-07 0.500001 0.866025
    outer loop
      vertex 11.4667 -24.0967 -3.17734
      vertex 5 -22.1 -4.33013
      vertex 11.4215 -24.2356 -3.09716
    endloop
  endfacet
  facet normal -9.51766e-08 0.5 0.866025
    outer loop
      vertex 11.4215 -24.2356 -3.09716
      vertex 5 -22.1 -4.33013
      vertex 10.8276 -25.85 -2.16506
    endloop
  endfacet
  facet normal 0 0.5 0.866025
    outer loop
      vertex 10.8276 -25.85 -2.16506
      vertex 5 -22.1 -4.33013
      vertex 5 -25.85 -2.16506
    endloop
  endfacet
  facet normal 1 0 0
    outer loop
      vertex 5 -24.4097 0.956708
      vertex 5 -25.85 2.16506
      vertex 5 -24.6 -1.11022e-15
    endloop
  endfacet
  facet normal 1 0 0
    outer loop
      vertex 5 -25.85 2.16506
      vertex 5 -24.4097 0.956708
      vertex 5 -24.228 1.22861
    endloop
  endfacet
  facet normal 1 0 0
    outer loop
      vertex 5 -25.85 -2.16506
      vertex 5 -24.6 -1.11022e-15
      vertex 5 -25.85 2.16506
    endloop
  endfacet
  facet normal 1 -1.85048e-07 -2.76945e-07
    outer loop
      vertex 5 -23.8678 -1.76777
      vertex 5 -25.85 -2.16506
      vertex 5 -23.2732 -2.16506
    endloop
  endfacet
  facet normal 1 -3.16064e-07 3.76733e-07
    outer loop
      vertex 5 -24.4097 -0.956708
      vertex 5 -25.85 -2.16506
      vertex 5 -23.8678 -1.76777
    endloop
  endfacet
  facet normal 1 0 0
    outer loop
      vertex 5 -24.6 -1.11022e-15
      vertex 5 -25.85 -2.16506
      vertex 5 -24.4097 -0.956708
    endloop
  endfacet
  facet normal 1 -3.68471e-07 -6.38211e-07
    outer loop
      vertex 5 -20.3322 -1.76777
      vertex 5 -18.35 -2.16506
      vertex 5 -19.972 -1.22861
    endloop
  endfacet
  facet normal 1 -1.85048e-07 2.76945e-07
    outer loop
      vertex 5 -18.35 -2.16506
      vertex 5 -20.3322 -1.76777
      vertex 5 -20.9268 -2.16506
    endloop
  endfacet
  facet normal 0 -0.5 0.866025
    outer loop
      vertex 5 -18.35 -2.16506
      vertex 12.6544 -20.8837 -3.62789
      vertex 13.5864 -18.35 -2.16506
    endloop
  endfacet
  facet normal -7.69326e-10 -0.5 0.866025
    outer loop
      vertex 11.8405 -22.1 -4.33013
      vertex 12.6544 -20.8837 -3.62789
      vertex 5 -18.35 -2.16506
    endloop
  endfacet
  facet normal -1.12525e-05 -0.499994 0.866029
    outer loop
      vertex 12.6544 -20.8837 -3.62789
      vertex 11.8405 -22.1 -4.33013
      vertex 12.5926 -21.0235 -3.70861
    endloop
  endfacet
  facet normal 0 -0.5 0.866025
    outer loop
      vertex 11.8405 -22.1 -4.33013
      vertex 5 -18.35 -2.16506
      vertex 5 -22.1 -4.33013
    endloop
  endfacet
  facet normal 1 -3.68472e-07 -6.38212e-07
    outer loop
      vertex 5 -23.8678 1.76777
      vertex 5 -25.85 2.16506
      vertex 5 -24.228 1.22861
    endloop
  endfacet
  facet normal 1 -1.85048e-07 2.76945e-07
    outer loop
      vertex 5 -25.85 2.16506
      vertex 5 -23.8678 1.76777
      vertex 5 -23.2732 2.16506
    endloop
  endfacet
  facet normal 1 0 0
    outer loop
      vertex 5 -18.35 2.16506
      vertex 5 -19.6 -1.11022e-15
      vertex 5 -18.35 -2.16506
    endloop
  endfacet
  facet normal 1 0 0
    outer loop
      vertex 5 -18.35 2.16506
      vertex 5 -19.7903 0.956708
      vertex 5 -19.6 -1.11022e-15
    endloop
  endfacet
  facet normal 1 -3.16064e-07 3.76733e-07
    outer loop
      vertex 5 -18.35 2.16506
      vertex 5 -20.3322 1.76777
      vertex 5 -19.7903 0.956708
    endloop
  endfacet
  facet normal 1 -1.85048e-07 -2.76945e-07
    outer loop
      vertex 5 -20.3322 1.76777
      vertex 5 -18.35 2.16506
      vertex 5 -20.9268 2.16506
    endloop
  endfacet
  facet normal 1 -0 0
    outer loop
      vertex 5 -19.7903 -0.956708
      vertex 5 -18.35 -2.16506
      vertex 5 -19.6 -1.11022e-15
    endloop
  endfacet
  facet normal 1 0 0
    outer loop
      vertex 5 -18.35 -2.16506
      vertex 5 -19.7903 -0.956708
      vertex 5 -19.972 -1.22861
    endloop
  endfacet
  facet normal 1 -2.30683e-07 3.4524e-07
    outer loop
      vertex 5 -22.1 -4.33013
      vertex 5 -20.9268 -2.16506
      vertex 5 -21.1433 -2.3097
    endloop
  endfacet
  facet normal 1 -5.18265e-08 2.60549e-07
    outer loop
      vertex 5 -22.1 -4.33013
      vertex 5 -21.1433 -2.3097
      vertex 5 -22.1 -2.5
    endloop
  endfacet
  facet normal 1 -1.85048e-07 3.20512e-07
    outer loop
      vertex 5 -20.9268 -2.16506
      vertex 5 -22.1 -4.33013
      vertex 5 -18.35 -2.16506
    endloop
  endfacet
  facet normal 1 5.18266e-08 2.60549e-07
    outer loop
      vertex 5 -23.0567 -2.3097
      vertex 5 -22.1 -4.33013
      vertex 5 -22.1 -2.5
    endloop
  endfacet
  facet normal 1 2.3068e-07 3.45239e-07
    outer loop
      vertex 5 -23.2732 -2.16506
      vertex 5 -22.1 -4.33013
      vertex 5 -23.0567 -2.3097
    endloop
  endfacet
  facet normal 1 -1.85048e-07 1.19971e-07
    outer loop
      vertex 5 -22.1 -4.33013
      vertex 5 -23.2732 -2.16506
      vertex 5 -25.85 -2.16506
    endloop
  endfacet
  facet normal 0 -1 0
    outer loop
      vertex 5 -18.35 -2.16506
      vertex 13.5864 -18.35 2.16506
      vertex 5 -18.35 2.16506
    endloop
  endfacet
  facet normal 0 -1 -0
    outer loop
      vertex 13.5864 -18.35 2.16506
      vertex 5 -18.35 -2.16506
      vertex 13.5864 -18.35 -2.16506
    endloop
  endfacet
  facet normal -1.12525e-05 -0.499994 -0.866029
    outer loop
      vertex 11.8405 -22.1 4.33013
      vertex 12.6544 -20.8837 3.62789
      vertex 12.5926 -21.0235 3.70861
    endloop
  endfacet
  facet normal -7.69326e-10 -0.5 -0.866025
    outer loop
      vertex 12.6544 -20.8837 3.62789
      vertex 11.8405 -22.1 4.33013
      vertex 5 -18.35 2.16506
    endloop
  endfacet
  facet normal 0 -0.5 -0.866025
    outer loop
      vertex 5 -18.35 2.16506
      vertex 11.8405 -22.1 4.33013
      vertex 5 -22.1 4.33013
    endloop
  endfacet
  facet normal 0 -0.5 -0.866025
    outer loop
      vertex 12.6544 -20.8837 3.62789
      vertex 5 -18.35 2.16506
      vertex 13.5864 -18.35 2.16506
    endloop
  endfacet
  facet normal 5.29819e-08 1.0793e-07 1
    outer loop
      vertex 1 20.1673 6
      vertex 10 24.5853 6
      vertex 1 24.5853 6
    endloop
  endfacet
  facet normal 4.76837e-08 1.18723e-07 1
    outer loop
      vertex 10 24.5853 6
      vertex 1 20.1673 6
      vertex 7.76867 17.4487 6
    endloop
  endfacet
  facet normal -0 0.707107 0.707107
    outer loop
      vertex 1 28.1 2.48528
      vertex 1 26.5184 4.0669
      vertex 10 28.1 2.48528
    endloop
  endfacet
  facet normal 0.938521 -0.345223 0
    outer loop
      vertex 18.1652 -5.90222 6
      vertex 13.5864 -18.35 2.16506
      vertex 18.1652 -5.90222 -6
    endloop
  endfacet
  facet normal 0.938521 -0.345223 -2.40133e-07
    outer loop
      vertex 13.5864 -18.35 2.16506
      vertex 18.1652 -5.90222 6
      vertex 12.6544 -20.8837 3.62789
    endloop
  endfacet
  facet normal 0.938521 -0.345223 0
    outer loop
      vertex 13.5864 -18.35 -2.16506
      vertex 18.1652 -5.90222 -6
      vertex 13.5864 -18.35 2.16506
    endloop
  endfacet
  facet normal 0.938521 -0.345223 2.40133e-07
    outer loop
      vertex 18.1652 -5.90222 -6
      vertex 13.5864 -18.35 -2.16506
      vertex 12.6544 -20.8837 -3.62789
    endloop
  endfacet
  facet normal 0.93852 -0.345224 0
    outer loop
      vertex 10 -28.1 -2.48528
      vertex 10.8276 -25.85 -1.91272
      vertex 10 -28.1 2.48528
    endloop
  endfacet
  facet normal 0.938521 -0.345223 1.61475e-07
    outer loop
      vertex 10.8276 -25.85 2.16506
      vertex 10 -28.1 2.48528
      vertex 10.8276 -25.85 -1.91272
    endloop
  endfacet
  facet normal 0.938521 -0.345223 -2.60923e-07
    outer loop
      vertex 10 -28.1 2.48528
      vertex 10.8276 -25.85 2.16506
      vertex 11.4215 -24.2356 3.09716
    endloop
  endfacet
  facet normal 0.938521 -0.345223 -7.12448e-07
    outer loop
      vertex 10.8276 -25.85 -2.16506
      vertex 10 -28.1 -2.48528
      vertex 11.4215 -24.2356 -3.09716
    endloop
  endfacet
  facet normal 0.93852 -0.345224 0
    outer loop
      vertex 10.8276 -25.85 -1.91272
      vertex 10 -28.1 -2.48528
      vertex 10.8276 -25.85 -2.16506
    endloop
  endfacet
  facet normal 0.847461 -0.375373 0.375373
    outer loop
      vertex 17.4487 -7.76867 6
      vertex 11.8405 -22.1 4.33013
      vertex 12.5926 -21.0235 3.70861
    endloop
  endfacet
  facet normal 0.847461 -0.375374 0.375371
    outer loop
      vertex 10 -24.5853 6
      vertex 11.7928 -22.3547 4.18306
      vertex 11.8405 -22.1 4.33013
    endloop
  endfacet
  facet normal 0.847461 -0.375373 0.375373
    outer loop
      vertex 10 -24.5853 6
      vertex 11.8405 -22.1 4.33013
      vertex 17.4487 -7.76867 6
    endloop
  endfacet
  facet normal 0.847461 -0.375373 0.375373
    outer loop
      vertex 11.7928 -22.3547 4.18306
      vertex 10 -24.5853 6
      vertex 11.4667 -24.0967 3.17734
    endloop
  endfacet
  facet normal 0.847461 -0.375373 0.375373
    outer loop
      vertex 11.4667 -24.0967 3.17734
      vertex 10 -24.5853 6
      vertex 10 -28.1 2.48528
    endloop
  endfacet
  facet normal 0 -0.707107 -0.707107
    outer loop
      vertex 1 -26.1669 -4.41838
      vertex 10 -28.1 -2.48528
      vertex 1 -28.1 -2.48528
    endloop
  endfacet
  facet normal 2.99711e-08 -0.707107 -0.707107
    outer loop
      vertex 10 -28.1 -2.48528
      vertex 1 -26.1669 -4.41838
      vertex 10 -24.5853 -6
    endloop
  endfacet
  facet normal 0 0.707107 -0.707107
    outer loop
      vertex 10 28.1 -2.48528
      vertex 1 26.1669 -4.41838
      vertex 1 28.1 -2.48528
    endloop
  endfacet
  facet normal 2.99711e-08 0.707107 -0.707107
    outer loop
      vertex 1 26.1669 -4.41838
      vertex 10 28.1 -2.48528
      vertex 10 24.5853 -6
    endloop
  endfacet
  facet normal 0.847461 0.375373 -0.375373
    outer loop
      vertex 11.4667 24.0967 -3.17734
      vertex 10 24.5853 -6
      vertex 10 28.1 -2.48528
    endloop
  endfacet
  facet normal 0.847461 0.375373 -0.375373
    outer loop
      vertex 11.8405 22.1 -4.33013
      vertex 10 24.5853 -6
      vertex 11.4667 24.0967 -3.17734
    endloop
  endfacet
  facet normal 0.847461 0.375373 -0.375373
    outer loop
      vertex 17.4487 7.76867 -6
      vertex 11.8405 22.1 -4.33013
      vertex 12.5926 21.0235 -3.70861
    endloop
  endfacet
  facet normal 0.847461 0.375373 -0.375373
    outer loop
      vertex 11.8405 22.1 -4.33013
      vertex 17.4487 7.76867 -6
      vertex 10 24.5853 -6
    endloop
  endfacet
  facet normal -3.74639e-08 0.707107 -0.707107
    outer loop
      vertex 10 24.5853 -6
      vertex 1 24.5853 -6
      vertex 1 26.1669 -4.41838
    endloop
  endfacet
  facet normal 3.74639e-08 -0.707107 0.707107
    outer loop
      vertex 1 -26.5184 4.0669
      vertex 10 -24.5853 6
      vertex 1 -24.5853 6
    endloop
  endfacet
  facet normal 3.74638e-09 -0.707107 0.707107
    outer loop
      vertex 10 -24.5853 6
      vertex 1 -26.5184 4.0669
      vertex 10 -28.1 2.48528
    endloop
  endfacet
  facet normal 0.987688 -0.156435 0
    outer loop
      vertex 18.6826 -3.97111 6
      vertex 18.9954 -1.99649 -6
      vertex 18.9954 -1.99649 6
    endloop
  endfacet
  facet normal 0.987688 -0.156435 0
    outer loop
      vertex 18.9954 -1.99649 -6
      vertex 18.6826 -3.97111 6
      vertex 18.6826 -3.97111 -6
    endloop
  endfacet
  facet normal 0.929439 0.356779 -0.0940803
    outer loop
      vertex 11.4667 24.0967 -3.17734
      vertex 10 28.1 -2.48528
      vertex 11.4215 24.2356 -3.09716
    endloop
  endfacet
  facet normal 0.92944 0.356779 -0.0940737
    outer loop
      vertex 12.6544 20.8837 -3.62789
      vertex 17.4487 7.76867 -6
      vertex 12.5926 21.0235 -3.70861
    endloop
  endfacet
  facet normal 0.92944 0.356779 -0.0940752
    outer loop
      vertex 17.4487 7.76867 -6
      vertex 12.6544 20.8837 -3.62789
      vertex 18.1652 5.90222 -6
    endloop
  endfacet
  facet normal 0.938521 0.345223 0
    outer loop
      vertex 10 28.1 2.48528
      vertex 10.8276 25.85 2.16506
      vertex 10 28.1 -2.48528
    endloop
  endfacet
  facet normal 0.938521 0.345223 -2.60923e-07
    outer loop
      vertex 10.8276 25.85 2.16506
      vertex 10 28.1 2.48528
      vertex 11.4215 24.2356 3.09716
    endloop
  endfacet
  facet normal 0.938521 0.345223 -0
    outer loop
      vertex 10.8276 25.85 -2.16506
      vertex 10 28.1 -2.48528
      vertex 10.8276 25.85 2.16506
    endloop
  endfacet
  facet normal 0.938521 0.345223 2.60923e-07
    outer loop
      vertex 10 28.1 -2.48528
      vertex 10.8276 25.85 -2.16506
      vertex 11.4215 24.2356 -3.09716
    endloop
  endfacet
  facet normal 0.938521 0.345223 2.26117e-07
    outer loop
      vertex 18.1652 5.90222 6
      vertex 13.5864 18.35 -1.79326
      vertex 13.5864 18.35 2.16506
    endloop
  endfacet
  facet normal 0.938521 0.345223 -0
    outer loop
      vertex 18.1652 5.90222 -6
      vertex 13.5864 18.35 -1.79326
      vertex 18.1652 5.90222 6
    endloop
  endfacet
  facet normal 0.938521 0.345223 -2.40133e-07
    outer loop
      vertex 18.1652 5.90222 6
      vertex 13.5864 18.35 2.16506
      vertex 12.6544 20.8837 3.62789
    endloop
  endfacet
  facet normal 0.938521 0.345223 -2.40041e-07
    outer loop
      vertex 13.5864 18.35 -2.16506
      vertex 18.1652 5.90222 -6
      vertex 12.6544 20.8837 -3.62789
    endloop
  endfacet
  facet normal 0.938521 0.345223 0
    outer loop
      vertex 13.5864 18.35 -1.79326
      vertex 18.1652 5.90222 -6
      vertex 13.5864 18.35 -2.16506
    endloop
  endfacet
  facet normal 0 1 -0
    outer loop
      vertex 10 28.1 -2.48528
      vertex 1 28.1 2.48528
      vertex 10 28.1 2.48528
    endloop
  endfacet
  facet normal 0 1 0
    outer loop
      vertex 1 28.1 2.48528
      vertex 10 28.1 -2.48528
      vertex 1 28.1 -2.48528
    endloop
  endfacet
  facet normal 3.74639e-08 0.707107 0.707107
    outer loop
      vertex 10 24.5853 6
      vertex 1 26.5184 4.0669
      vertex 1 24.5853 6
    endloop
  endfacet
  facet normal 3.74638e-09 0.707107 0.707107
    outer loop
      vertex 1 26.5184 4.0669
      vertex 10 24.5853 6
      vertex 10 28.1 2.48528
    endloop
  endfacet
  facet normal -5.29819e-08 -1.31915e-07 -1
    outer loop
      vertex 10 -24.5853 -6
      vertex 1 -24.5853 -6
      vertex 1 -20.9705 -6
    endloop
  endfacet
  facet normal 0 -1 0
    outer loop
      vertex 1 -28.1 -2.48528
      vertex 10 -28.1 2.48528
      vertex 1 -28.1 2.48528
    endloop
  endfacet
  facet normal 0 -1 -0
    outer loop
      vertex 10 -28.1 2.48528
      vertex 1 -28.1 -2.48528
      vertex 10 -28.1 -2.48528
    endloop
  endfacet
  facet normal 0 -0.707107 0.707107
    outer loop
      vertex 1 -26.5184 4.0669
      vertex 1 -28.1 2.48528
      vertex 10 -28.1 2.48528
    endloop
  endfacet
  facet normal 9.48769e-08 -1.17163e-07 1
    outer loop
      vertex 11.2267 -15.4522 6
      vertex 10 -24.5853 6
      vertex 12.7804 -14.1941 6
    endloop
  endfacet
  facet normal 0.99863 0.0523348 0
    outer loop
      vertex 19.1 0 6
      vertex 18.9954 1.99649 -6
      vertex 18.9954 1.99649 6
    endloop
  endfacet
  facet normal 0.99863 0.0523348 0
    outer loop
      vertex 18.9954 1.99649 -6
      vertex 19.1 0 6
      vertex 19.1 0 -6
    endloop
  endfacet
  facet normal 0.929441 -0.356778 0.0940688
    outer loop
      vertex 11.4667 -24.0967 3.17734
      vertex 10 -28.1 2.48528
      vertex 11.4215 -24.2356 3.09716
    endloop
  endfacet
  facet normal 0.92944 -0.356779 0.0940752
    outer loop
      vertex 17.4487 -7.76867 6
      vertex 12.6544 -20.8837 3.62789
      vertex 18.1652 -5.90222 6
    endloop
  endfacet
  facet normal 0.92944 -0.356779 0.0940756
    outer loop
      vertex 12.6544 -20.8837 3.62789
      vertex 17.4487 -7.76867 6
      vertex 12.5926 -21.0235 3.70861
    endloop
  endfacet
  facet normal -5.29819e-08 1.31915e-07 -1
    outer loop
      vertex 10 24.5853 -6
      vertex 1 20.9705 -6
      vertex 1 24.5853 -6
    endloop
  endfacet
  facet normal 0.847461 0.375373 0.375373
    outer loop
      vertex 10 24.5853 6
      vertex 11.4667 24.0967 3.17734
      vertex 10 28.1 2.48528
    endloop
  endfacet
  facet normal 0.847461 0.375373 0.375373
    outer loop
      vertex 10 24.5853 6
      vertex 11.8405 22.1 4.33013
      vertex 11.4667 24.0967 3.17734
    endloop
  endfacet
  facet normal 0.847461 0.375373 0.375373
    outer loop
      vertex 17.4487 7.76867 6
      vertex 11.8405 22.1 4.33013
      vertex 10 24.5853 6
    endloop
  endfacet
  facet normal 0.847462 0.375373 0.375372
    outer loop
      vertex 11.8405 22.1 4.33013
      vertex 17.4487 7.76867 6
      vertex 12.0245 21.8366 4.17804
    endloop
  endfacet
  facet normal 0.847461 0.375373 0.375373
    outer loop
      vertex 12.0245 21.8366 4.17804
      vertex 17.4487 7.76867 6
      vertex 12.5926 21.0235 3.70861
    endloop
  endfacet
  facet normal 0.92944 -0.356779 -0.0940752
    outer loop
      vertex 12.6544 -20.8837 -3.62789
      vertex 17.4487 -7.76867 -6
      vertex 18.1652 -5.90222 -6
    endloop
  endfacet
  facet normal 0.92944 -0.356779 -0.0940756
    outer loop
      vertex 17.4487 -7.76867 -6
      vertex 12.6544 -20.8837 -3.62789
      vertex 12.5926 -21.0235 -3.70861
    endloop
  endfacet
  facet normal 0.929441 -0.356778 -0.0940688
    outer loop
      vertex 11.4215 -24.2356 -3.09716
      vertex 10 -28.1 -2.48528
      vertex 11.4667 -24.0967 -3.17734
    endloop
  endfacet
  facet normal 0.847461 -0.375373 -0.375373
    outer loop
      vertex 11.8405 -22.1 -4.33013
      vertex 17.4487 -7.76867 -6
      vertex 12.5926 -21.0235 -3.70861
    endloop
  endfacet
  facet normal 0.847461 -0.375373 -0.375373
    outer loop
      vertex 11.8405 -22.1 -4.33013
      vertex 10 -24.5853 -6
      vertex 17.4487 -7.76867 -6
    endloop
  endfacet
  facet normal 0.847461 -0.375373 -0.375373
    outer loop
      vertex 11.4667 -24.0967 -3.17734
      vertex 10 -24.5853 -6
      vertex 11.8405 -22.1 -4.33013
    endloop
  endfacet
  facet normal 0.847461 -0.375373 -0.375373
    outer loop
      vertex 10 -24.5853 -6
      vertex 11.4667 -24.0967 -3.17734
      vertex 10 -28.1 -2.48528
    endloop
  endfacet
  facet normal -3.74639e-08 -0.707107 -0.707107
    outer loop
      vertex 10 -24.5853 -6
      vertex 1 -26.1669 -4.41838
      vertex 1 -24.5853 -6
    endloop
  endfacet
  facet normal 2.95902e-07 -1.92161e-07 1
    outer loop
      vertex 15.4522 -11.2267 6
      vertex 10 -24.5853 6
      vertex 16.5411 -9.55 6
    endloop
  endfacet
  facet normal 4.76837e-08 -1.18723e-07 1
    outer loop
      vertex 1 -20.1673 6
      vertex 10 -24.5853 6
      vertex 7.76867 -17.4487 6
    endloop
  endfacet
  facet normal 5.29819e-08 -1.0793e-07 1
    outer loop
      vertex 10 -24.5853 6
      vertex 1 -20.1673 6
      vertex 1 -24.5853 6
    endloop
  endfacet
  facet normal 0 0 1
    outer loop
      vertex 16.1 0 6
      vertex 19.1 0 6
      vertex 18.9954 1.99649 6
    endloop
  endfacet
  facet normal 0 0 1
    outer loop
      vertex 16.0118 1.68291 6
      vertex 18.9954 1.99649 6
      vertex 18.6826 3.97111 6
    endloop
  endfacet
  facet normal 0 0 1
    outer loop
      vertex 19.1 0 6
      vertex 16.1 0 6
      vertex 18.9954 -1.99649 6
    endloop
  endfacet
  facet normal 0 0 1
    outer loop
      vertex 15.7482 3.34738 6
      vertex 18.6826 3.97111 6
      vertex 18.1652 5.90222 6
    endloop
  endfacet
  facet normal -0 0 1
    outer loop
      vertex 16.0118 -1.68291 6
      vertex 18.9954 -1.99649 6
      vertex 16.1 0 6
    endloop
  endfacet
  facet normal 0 0 1
    outer loop
      vertex 15.312 4.97517 6
      vertex 18.1652 5.90222 6
      vertex 17.4487 7.76867 6
    endloop
  endfacet
  facet normal 0 0 1
    outer loop
      vertex 18.9954 -1.99649 6
      vertex 16.0118 -1.68291 6
      vertex 18.6826 -3.97111 6
    endloop
  endfacet
  facet normal 0 0 1
    outer loop
      vertex 14.7081 6.54846 6
      vertex 17.4487 7.76867 6
      vertex 16.5411 9.55 6
    endloop
  endfacet
  facet normal -0 0 1
    outer loop
      vertex 15.7482 -3.34738 6
      vertex 18.6826 -3.97111 6
      vertex 16.0118 -1.68291 6
    endloop
  endfacet
  facet normal 0 0 1
    outer loop
      vertex 18.6826 -3.97111 6
      vertex 15.7482 -3.34738 6
      vertex 18.1652 -5.90222 6
    endloop
  endfacet
  facet normal 0 0 1
    outer loop
      vertex 18.9954 1.99649 6
      vertex 16.0118 1.68291 6
      vertex 16.1 0 6
    endloop
  endfacet
  facet normal 0 0 1
    outer loop
      vertex 18.6826 3.97111 6
      vertex 15.7482 3.34738 6
      vertex 16.0118 1.68291 6
    endloop
  endfacet
  facet normal 0 0 1
    outer loop
      vertex 13.943 8.05 6
      vertex 16.5411 9.55 6
      vertex 15.4522 11.2267 6
    endloop
  endfacet
  facet normal 0 0 1
    outer loop
      vertex 18.1652 5.90222 6
      vertex 15.312 4.97517 6
      vertex 15.7482 3.34738 6
    endloop
  endfacet
  facet normal 0 0 1
    outer loop
      vertex 17.4487 7.76867 6
      vertex 14.7081 6.54846 6
      vertex 15.312 4.97517 6
    endloop
  endfacet
  facet normal 0 0 1
    outer loop
      vertex 13.0252 9.46334 6
      vertex 15.4522 11.2267 6
      vertex 14.1941 12.7804 6
    endloop
  endfacet
  facet normal 0 0 1
    outer loop
      vertex 16.5411 9.55 6
      vertex 13.943 8.05 6
      vertex 14.7081 6.54846 6
    endloop
  endfacet
  facet normal 0 0 1
    outer loop
      vertex 15.4522 11.2267 6
      vertex 13.0252 9.46334 6
      vertex 13.943 8.05 6
    endloop
  endfacet
  facet normal 0 0 1
    outer loop
      vertex 11.9646 10.773 6
      vertex 14.1941 12.7804 6
      vertex 12.7804 14.1941 6
    endloop
  endfacet
  facet normal 0 0 1
    outer loop
      vertex 14.1941 12.7804 6
      vertex 11.9646 10.773 6
      vertex 13.0252 9.46334 6
    endloop
  endfacet
  facet normal 0 0 1
    outer loop
      vertex 10.773 11.9646 6
      vertex 12.7804 14.1941 6
      vertex 11.2267 15.4522 6
    endloop
  endfacet
  facet normal 0 0 1
    outer loop
      vertex 12.7804 14.1941 6
      vertex 10.773 11.9646 6
      vertex 11.9646 10.773 6
    endloop
  endfacet
  facet normal 0 0 1
    outer loop
      vertex 9.46334 13.0252 6
      vertex 11.2267 15.4522 6
      vertex 9.55 16.5411 6
    endloop
  endfacet
  facet normal 0 0 1
    outer loop
      vertex 11.2267 15.4522 6
      vertex 9.46334 13.0252 6
      vertex 10.773 11.9646 6
    endloop
  endfacet
  facet normal 0 0 1
    outer loop
      vertex 9.55 16.5411 6
      vertex 8.05 13.943 6
      vertex 9.46334 13.0252 6
    endloop
  endfacet
  facet normal 0 0 1
    outer loop
      vertex 7.76867 17.4487 6
      vertex 8.05 13.943 6
      vertex 9.55 16.5411 6
    endloop
  endfacet
  facet normal 0 0 1
    outer loop
      vertex 7.76867 17.4487 6
      vertex 6.54846 14.7081 6
      vertex 8.05 13.943 6
    endloop
  endfacet
  facet normal 0 0 1
    outer loop
      vertex 7.76867 17.4487 6
      vertex 4.97517 15.312 6
      vertex 6.54846 14.7081 6
    endloop
  endfacet
  facet normal 0 0 1
    outer loop
      vertex 7.76867 17.4487 6
      vertex 3.34738 15.7482 6
      vertex 4.97517 15.312 6
    endloop
  endfacet
  facet normal 0 0 1
    outer loop
      vertex 1 20.1673 6
      vertex 3.34738 15.7482 6
      vertex 7.76867 17.4487 6
    endloop
  endfacet
  facet normal 0 0 1
    outer loop
      vertex 3.34738 15.7482 6
      vertex 1 20.1673 6
      vertex 1.68291 16.0118 6
    endloop
  endfacet
  facet normal 0 0 1
    outer loop
      vertex 1.68291 16.0118 6
      vertex 1 20.1673 6
      vertex 1 16.0476 6
    endloop
  endfacet
  facet normal -0 0 1
    outer loop
      vertex 15.312 -4.97517 6
      vertex 18.1652 -5.90222 6
      vertex 15.7482 -3.34738 6
    endloop
  endfacet
  facet normal 0 0 1
    outer loop
      vertex 18.1652 -5.90222 6
      vertex 15.312 -4.97517 6
      vertex 17.4487 -7.76867 6
    endloop
  endfacet
  facet normal -0 0 1
    outer loop
      vertex 14.7081 -6.54846 6
      vertex 17.4487 -7.76867 6
      vertex 15.312 -4.97517 6
    endloop
  endfacet
  facet normal 0 0 1
    outer loop
      vertex 17.4487 -7.76867 6
      vertex 14.7081 -6.54846 6
      vertex 16.5411 -9.55 6
    endloop
  endfacet
  facet normal -0 0 1
    outer loop
      vertex 13.943 -8.05 6
      vertex 16.5411 -9.55 6
      vertex 14.7081 -6.54846 6
    endloop
  endfacet
  facet normal 0 0 1
    outer loop
      vertex 16.5411 -9.55 6
      vertex 13.943 -8.05 6
      vertex 15.4522 -11.2267 6
    endloop
  endfacet
  facet normal -0 0 1
    outer loop
      vertex 13.0252 -9.46334 6
      vertex 15.4522 -11.2267 6
      vertex 13.943 -8.05 6
    endloop
  endfacet
  facet normal 0 0 1
    outer loop
      vertex 15.4522 -11.2267 6
      vertex 13.0252 -9.46334 6
      vertex 14.1941 -12.7804 6
    endloop
  endfacet
  facet normal -0 0 1
    outer loop
      vertex 11.9646 -10.773 6
      vertex 14.1941 -12.7804 6
      vertex 13.0252 -9.46334 6
    endloop
  endfacet
  facet normal 0 0 1
    outer loop
      vertex 14.1941 -12.7804 6
      vertex 11.9646 -10.773 6
      vertex 12.7804 -14.1941 6
    endloop
  endfacet
  facet normal -0 0 1
    outer loop
      vertex 10.773 -11.9646 6
      vertex 12.7804 -14.1941 6
      vertex 11.9646 -10.773 6
    endloop
  endfacet
  facet normal 0 0 1
    outer loop
      vertex 12.7804 -14.1941 6
      vertex 10.773 -11.9646 6
      vertex 11.2267 -15.4522 6
    endloop
  endfacet
  facet normal -0 0 1
    outer loop
      vertex 9.46334 -13.0252 6
      vertex 11.2267 -15.4522 6
      vertex 10.773 -11.9646 6
    endloop
  endfacet
  facet normal 0 0 1
    outer loop
      vertex 11.2267 -15.4522 6
      vertex 9.46334 -13.0252 6
      vertex 9.55 -16.5411 6
    endloop
  endfacet
  facet normal -0 0 1
    outer loop
      vertex 8.05 -13.943 6
      vertex 9.55 -16.5411 6
      vertex 9.46334 -13.0252 6
    endloop
  endfacet
  facet normal 0 0 1
    outer loop
      vertex 8.05 -13.943 6
      vertex 7.76867 -17.4487 6
      vertex 9.55 -16.5411 6
    endloop
  endfacet
  facet normal -0 0 1
    outer loop
      vertex 6.54846 -14.7081 6
      vertex 7.76867 -17.4487 6
      vertex 8.05 -13.943 6
    endloop
  endfacet
  facet normal -0 0 1
    outer loop
      vertex 4.97517 -15.312 6
      vertex 7.76867 -17.4487 6
      vertex 6.54846 -14.7081 6
    endloop
  endfacet
  facet normal -0 0 1
    outer loop
      vertex 3.34738 -15.7482 6
      vertex 7.76867 -17.4487 6
      vertex 4.97517 -15.312 6
    endloop
  endfacet
  facet normal 0 0 1
    outer loop
      vertex 1 -20.1673 6
      vertex 3.34738 -15.7482 6
      vertex 1.68291 -16.0118 6
    endloop
  endfacet
  facet normal 0 0 1
    outer loop
      vertex 1 -20.1673 6
      vertex 1.68291 -16.0118 6
      vertex 1 -16.0476 6
    endloop
  endfacet
  facet normal 0 0 1
    outer loop
      vertex 3.34738 -15.7482 6
      vertex 1 -20.1673 6
      vertex 7.76867 -17.4487 6
    endloop
  endfacet
  facet normal 0.987688 0.156435 0
    outer loop
      vertex 18.9954 1.99649 6
      vertex 18.6826 3.97111 -6
      vertex 18.6826 3.97111 6
    endloop
  endfacet
  facet normal 0.987688 0.156435 0
    outer loop
      vertex 18.6826 3.97111 -6
      vertex 18.9954 1.99649 6
      vertex 18.9954 1.99649 -6
    endloop
  endfacet
  facet normal 1.25305e-07 1.25305e-07 1
    outer loop
      vertex 14.1941 12.7804 6
      vertex 10 24.5853 6
      vertex 12.7804 14.1941 6
    endloop
  endfacet
  facet normal 0.965926 -0.258819 0
    outer loop
      vertex 18.1652 -5.90222 6
      vertex 18.6826 -3.97111 -6
      vertex 18.6826 -3.97111 6
    endloop
  endfacet
  facet normal 0.965926 -0.258819 0
    outer loop
      vertex 18.6826 -3.97111 -6
      vertex 18.1652 -5.90222 6
      vertex 18.1652 -5.90222 -6
    endloop
  endfacet
  facet normal 0.965926 0.258819 0
    outer loop
      vertex 18.6826 3.97111 6
      vertex 18.1652 5.90222 -6
      vertex 18.1652 5.90222 6
    endloop
  endfacet
  facet normal 0.965926 0.258819 0
    outer loop
      vertex 18.1652 5.90222 -6
      vertex 18.6826 3.97111 6
      vertex 18.6826 3.97111 -6
    endloop
  endfacet
  facet normal 5.87325e-08 1.15269e-07 1
    outer loop
      vertex 10 24.5853 6
      vertex 7.76867 17.4487 6
      vertex 9.55 16.5411 6
    endloop
  endfacet
  facet normal 0 0 -1
    outer loop
      vertex 16.1 0 -6
      vertex 19.1 0 -6
      vertex 18.9954 -1.99649 -6
    endloop
  endfacet
  facet normal 0 0 -1
    outer loop
      vertex 16.0118 -1.68291 -6
      vertex 18.9954 -1.99649 -6
      vertex 18.6826 -3.97111 -6
    endloop
  endfacet
  facet normal 0 0 -1
    outer loop
      vertex 19.1 0 -6
      vertex 16.1 0 -6
      vertex 18.9954 1.99649 -6
    endloop
  endfacet
  facet normal 0 0 -1
    outer loop
      vertex 15.7482 -3.34738 -6
      vertex 18.6826 -3.97111 -6
      vertex 18.1652 -5.90222 -6
    endloop
  endfacet
  facet normal 0 0 -1
    outer loop
      vertex 16.0118 1.68291 -6
      vertex 18.9954 1.99649 -6
      vertex 16.1 0 -6
    endloop
  endfacet
  facet normal 0 0 -1
    outer loop
      vertex 15.312 -4.97517 -6
      vertex 18.1652 -5.90222 -6
      vertex 17.4487 -7.76867 -6
    endloop
  endfacet
  facet normal -0 0 -1
    outer loop
      vertex 18.9954 1.99649 -6
      vertex 16.0118 1.68291 -6
      vertex 18.6826 3.97111 -6
    endloop
  endfacet
  facet normal 0 0 -1
    outer loop
      vertex 15.7482 3.34738 -6
      vertex 18.6826 3.97111 -6
      vertex 16.0118 1.68291 -6
    endloop
  endfacet
  facet normal 0 0 -1
    outer loop
      vertex 18.9954 -1.99649 -6
      vertex 16.0118 -1.68291 -6
      vertex 16.1 0 -6
    endloop
  endfacet
  facet normal 0 0 -1
    outer loop
      vertex 18.6826 -3.97111 -6
      vertex 15.7482 -3.34738 -6
      vertex 16.0118 -1.68291 -6
    endloop
  endfacet
  facet normal 0 0 -1
    outer loop
      vertex 18.1652 -5.90222 -6
      vertex 15.312 -4.97517 -6
      vertex 15.7482 -3.34738 -6
    endloop
  endfacet
  facet normal 0 0 -1
    outer loop
      vertex 17.4487 -7.76867 -6
      vertex 14.7081 -6.54846 -6
      vertex 15.312 -4.97517 -6
    endloop
  endfacet
  facet normal -0 0 -1
    outer loop
      vertex 17.4487 -7.76867 -6
      vertex 13.943 -8.05 -6
      vertex 14.7081 -6.54846 -6
    endloop
  endfacet
  facet normal 0 0 -1
    outer loop
      vertex 17.4487 -7.76867 -6
      vertex 13.0252 -9.46334 -6
      vertex 13.943 -8.05 -6
    endloop
  endfacet
  facet normal 0 0 -1
    outer loop
      vertex 17.4487 -7.76867 -6
      vertex 11.9646 -10.773 -6
      vertex 13.0252 -9.46334 -6
    endloop
  endfacet
  facet normal 0 0 -1
    outer loop
      vertex 10 -24.5853 -6
      vertex 11.9646 -10.773 -6
      vertex 17.4487 -7.76867 -6
    endloop
  endfacet
  facet normal 0 0 -1
    outer loop
      vertex 11.9646 -10.773 -6
      vertex 10 -24.5853 -6
      vertex 10.773 -11.9646 -6
    endloop
  endfacet
  facet normal 0 0 -1
    outer loop
      vertex 10 -24.5853 -6
      vertex 9.46334 -13.0252 -6
      vertex 10.773 -11.9646 -6
    endloop
  endfacet
  facet normal 0 0 -1
    outer loop
      vertex 10 -24.5853 -6
      vertex 8.05 -13.943 -6
      vertex 9.46334 -13.0252 -6
    endloop
  endfacet
  facet normal 0 0 -1
    outer loop
      vertex 10 -24.5853 -6
      vertex 6.54846 -14.7081 -6
      vertex 8.05 -13.943 -6
    endloop
  endfacet
  facet normal 0 0 -1
    outer loop
      vertex 10 -24.5853 -6
      vertex 4.97517 -15.312 -6
      vertex 6.54846 -14.7081 -6
    endloop
  endfacet
  facet normal 0 0 -1
    outer loop
      vertex 1 -20.9705 -6
      vertex 4.97517 -15.312 -6
      vertex 10 -24.5853 -6
    endloop
  endfacet
  facet normal 0 0 -1
    outer loop
      vertex 4.97517 -15.312 -6
      vertex 1 -20.9705 -6
      vertex 3.34738 -15.7482 -6
    endloop
  endfacet
  facet normal 0 0 -1
    outer loop
      vertex 3.34738 -15.7482 -6
      vertex 1 -20.9705 -6
      vertex 1.68291 -16.0118 -6
    endloop
  endfacet
  facet normal 0 0 -1
    outer loop
      vertex 1.68291 -16.0118 -6
      vertex 1 -20.9705 -6
      vertex 1 -16.0476 -6
    endloop
  endfacet
  facet normal -0 0 -1
    outer loop
      vertex 18.6826 3.97111 -6
      vertex 15.7482 3.34738 -6
      vertex 18.1652 5.90222 -6
    endloop
  endfacet
  facet normal 0 0 -1
    outer loop
      vertex 15.312 4.97517 -6
      vertex 18.1652 5.90222 -6
      vertex 15.7482 3.34738 -6
    endloop
  endfacet
  facet normal -0 0 -1
    outer loop
      vertex 18.1652 5.90222 -6
      vertex 15.312 4.97517 -6
      vertex 17.4487 7.76867 -6
    endloop
  endfacet
  facet normal 0 0 -1
    outer loop
      vertex 14.7081 6.54846 -6
      vertex 17.4487 7.76867 -6
      vertex 15.312 4.97517 -6
    endloop
  endfacet
  facet normal 0 0 -1
    outer loop
      vertex 13.943 8.05 -6
      vertex 17.4487 7.76867 -6
      vertex 14.7081 6.54846 -6
    endloop
  endfacet
  facet normal 0 0 -1
    outer loop
      vertex 13.0252 9.46334 -6
      vertex 17.4487 7.76867 -6
      vertex 13.943 8.05 -6
    endloop
  endfacet
  facet normal 0 0 -1
    outer loop
      vertex 11.9646 10.773 -6
      vertex 17.4487 7.76867 -6
      vertex 13.0252 9.46334 -6
    endloop
  endfacet
  facet normal 0 0 -1
    outer loop
      vertex 10 24.5853 -6
      vertex 11.9646 10.773 -6
      vertex 10.773 11.9646 -6
    endloop
  endfacet
  facet normal 0 0 -1
    outer loop
      vertex 11.9646 10.773 -6
      vertex 10 24.5853 -6
      vertex 17.4487 7.76867 -6
    endloop
  endfacet
  facet normal 0 0 -1
    outer loop
      vertex 9.46334 13.0252 -6
      vertex 10 24.5853 -6
      vertex 10.773 11.9646 -6
    endloop
  endfacet
  facet normal 0 0 -1
    outer loop
      vertex 8.05 13.943 -6
      vertex 10 24.5853 -6
      vertex 9.46334 13.0252 -6
    endloop
  endfacet
  facet normal 0 0 -1
    outer loop
      vertex 6.54846 14.7081 -6
      vertex 10 24.5853 -6
      vertex 8.05 13.943 -6
    endloop
  endfacet
  facet normal 0 0 -1
    outer loop
      vertex 4.97517 15.312 -6
      vertex 10 24.5853 -6
      vertex 6.54846 14.7081 -6
    endloop
  endfacet
  facet normal 0 0 -1
    outer loop
      vertex 1 20.9705 -6
      vertex 4.97517 15.312 -6
      vertex 3.34738 15.7482 -6
    endloop
  endfacet
  facet normal 0 0 -1
    outer loop
      vertex 1 20.9705 -6
      vertex 3.34738 15.7482 -6
      vertex 1.68291 16.0118 -6
    endloop
  endfacet
  facet normal 0 0 -1
    outer loop
      vertex 1 20.9705 -6
      vertex 1.68291 16.0118 -6
      vertex 1 16.0476 -6
    endloop
  endfacet
  facet normal 0 0 -1
    outer loop
      vertex 4.97517 15.312 -6
      vertex 1 20.9705 -6
      vertex 10 24.5853 -6
    endloop
  endfacet
  facet normal 8.51655e-07 -4.33941e-07 1
    outer loop
      vertex 16.5411 -9.55 6
      vertex 10 -24.5853 6
      vertex 17.4487 -7.76867 6
    endloop
  endfacet
  facet normal 1.25305e-07 -1.25305e-07 1
    outer loop
      vertex 12.7804 -14.1941 6
      vertex 10 -24.5853 6
      vertex 14.1941 -12.7804 6
    endloop
  endfacet
  facet normal 1.77747e-07 -1.43937e-07 1
    outer loop
      vertex 14.1941 -12.7804 6
      vertex 10 -24.5853 6
      vertex 15.4522 -11.2267 6
    endloop
  endfacet
  facet normal 5.87325e-08 -1.15269e-07 1
    outer loop
      vertex 9.55 -16.5411 6
      vertex 7.76867 -17.4487 6
      vertex 10 -24.5853 6
    endloop
  endfacet
  facet normal 7.42912e-08 -1.14398e-07 1
    outer loop
      vertex 11.2267 -15.4522 6
      vertex 9.55 -16.5411 6
      vertex 10 -24.5853 6
    endloop
  endfacet
  facet normal 0.929439 0.356779 0.0940803
    outer loop
      vertex 11.4215 24.2356 3.09716
      vertex 10 28.1 2.48528
      vertex 11.4667 24.0967 3.17734
    endloop
  endfacet
  facet normal 0.92944 0.356779 0.0940756
    outer loop
      vertex 17.4487 7.76867 6
      vertex 12.6544 20.8837 3.62789
      vertex 12.5926 21.0235 3.70861
    endloop
  endfacet
  facet normal 0.92944 0.356779 0.0940752
    outer loop
      vertex 12.6544 20.8837 3.62789
      vertex 17.4487 7.76867 6
      vertex 18.1652 5.90222 6
    endloop
  endfacet
  facet normal 9.48769e-08 1.17163e-07 1
    outer loop
      vertex 12.7804 14.1941 6
      vertex 10 24.5853 6
      vertex 11.2267 15.4522 6
    endloop
  endfacet
  facet normal 1.77747e-07 1.43937e-07 1
    outer loop
      vertex 15.4522 11.2267 6
      vertex 10 24.5853 6
      vertex 14.1941 12.7804 6
    endloop
  endfacet
  facet normal 0.99863 -0.0523348 0
    outer loop
      vertex 18.9954 -1.99649 6
      vertex 19.1 0 -6
      vertex 19.1 0 6
    endloop
  endfacet
  facet normal 0.99863 -0.0523348 0
    outer loop
      vertex 19.1 0 -6
      vertex 18.9954 -1.99649 6
      vertex 18.9954 -1.99649 -6
    endloop
  endfacet
  facet normal 7.42912e-08 1.14398e-07 1
    outer loop
      vertex 10 24.5853 6
      vertex 9.55 16.5411 6
      vertex 11.2267 15.4522 6
    endloop
  endfacet
  facet normal 8.51655e-07 4.33941e-07 1
    outer loop
      vertex 17.4487 7.76867 6
      vertex 10 24.5853 6
      vertex 16.5411 9.55 6
    endloop
  endfacet
  facet normal 2.95902e-07 1.92161e-07 1
    outer loop
      vertex 16.5411 9.55 6
      vertex 10 24.5853 6
      vertex 15.4522 11.2267 6
    endloop
  endfacet
  facet normal -0.62932 -0.777146 0
    outer loop
      vertex 9.46334 13.0252 -6
      vertex 10.773 11.9646 6
      vertex 9.46334 13.0252 6
    endloop
  endfacet
  facet normal -0.62932 -0.777146 -0
    outer loop
      vertex 10.773 11.9646 6
      vertex 9.46334 13.0252 -6
      vertex 10.773 11.9646 -6
    endloop
  endfacet
  facet normal -0.544639 -0.838671 0
    outer loop
      vertex 8.05 13.943 -6
      vertex 9.46334 13.0252 6
      vertex 8.05 13.943 6
    endloop
  endfacet
  facet normal -0.544639 -0.838671 -0
    outer loop
      vertex 9.46334 13.0252 6
      vertex 8.05 13.943 -6
      vertex 9.46334 13.0252 -6
    endloop
  endfacet
  facet normal -0.965926 -0.258819 0
    outer loop
      vertex 15.7482 3.34738 -6
      vertex 15.312 4.97517 6
      vertex 15.312 4.97517 -6
    endloop
  endfacet
  facet normal -0.965926 -0.258819 0
    outer loop
      vertex 15.312 4.97517 6
      vertex 15.7482 3.34738 -6
      vertex 15.7482 3.34738 6
    endloop
  endfacet
  facet normal -0.93358 -0.358368 0
    outer loop
      vertex 15.312 4.97517 -6
      vertex 14.7081 6.54846 6
      vertex 14.7081 6.54846 -6
    endloop
  endfacet
  facet normal -0.93358 -0.358368 0
    outer loop
      vertex 14.7081 6.54846 6
      vertex 15.312 4.97517 -6
      vertex 15.312 4.97517 6
    endloop
  endfacet
  facet normal -0.707107 -0.707107 0
    outer loop
      vertex 11.9646 10.773 -6
      vertex 10.773 11.9646 6
      vertex 10.773 11.9646 -6
    endloop
  endfacet
  facet normal -0.707107 -0.707107 0
    outer loop
      vertex 10.773 11.9646 6
      vertex 11.9646 10.773 -6
      vertex 11.9646 10.773 6
    endloop
  endfacet
  facet normal -0.45399 -0.891007 0
    outer loop
      vertex 6.54846 14.7081 -6
      vertex 8.05 13.943 6
      vertex 6.54846 14.7081 6
    endloop
  endfacet
  facet normal -0.45399 -0.891007 -0
    outer loop
      vertex 8.05 13.943 6
      vertex 6.54846 14.7081 -6
      vertex 8.05 13.943 -6
    endloop
  endfacet
  facet normal -0.0523357 -0.99863 0
    outer loop
      vertex 1 16.0476 -6
      vertex 1.68291 16.0118 6
      vertex 1 16.0476 6
    endloop
  endfacet
  facet normal -0.0523357 -0.99863 -0
    outer loop
      vertex 1.68291 16.0118 6
      vertex 1 16.0476 -6
      vertex 1.68291 16.0118 -6
    endloop
  endfacet
  facet normal -0.156435 -0.987688 0
    outer loop
      vertex 1.68291 16.0118 -6
      vertex 3.34738 15.7482 6
      vertex 1.68291 16.0118 6
    endloop
  endfacet
  facet normal -0.156435 -0.987688 -0
    outer loop
      vertex 3.34738 15.7482 6
      vertex 1.68291 16.0118 -6
      vertex 3.34738 15.7482 -6
    endloop
  endfacet
  facet normal -0.93358 0.358368 0
    outer loop
      vertex 14.7081 -6.54846 -6
      vertex 15.312 -4.97517 6
      vertex 15.312 -4.97517 -6
    endloop
  endfacet
  facet normal -0.93358 0.358368 0
    outer loop
      vertex 15.312 -4.97517 6
      vertex 14.7081 -6.54846 -6
      vertex 14.7081 -6.54846 6
    endloop
  endfacet
  facet normal -0.258819 0.965926 0
    outer loop
      vertex 4.97517 -15.312 -6
      vertex 3.34738 -15.7482 6
      vertex 4.97517 -15.312 6
    endloop
  endfacet
  facet normal -0.258819 0.965926 0
    outer loop
      vertex 3.34738 -15.7482 6
      vertex 4.97517 -15.312 -6
      vertex 3.34738 -15.7482 -6
    endloop
  endfacet
  facet normal -0.707107 0.707107 0
    outer loop
      vertex 10.773 -11.9646 -6
      vertex 11.9646 -10.773 6
      vertex 11.9646 -10.773 -6
    endloop
  endfacet
  facet normal -0.707107 0.707107 0
    outer loop
      vertex 11.9646 -10.773 6
      vertex 10.773 -11.9646 -6
      vertex 10.773 -11.9646 6
    endloop
  endfacet
  facet normal -0.987688 -0.156435 0
    outer loop
      vertex 16.0118 1.68291 -6
      vertex 15.7482 3.34738 6
      vertex 15.7482 3.34738 -6
    endloop
  endfacet
  facet normal -0.987688 -0.156435 0
    outer loop
      vertex 15.7482 3.34738 6
      vertex 16.0118 1.68291 -6
      vertex 16.0118 1.68291 6
    endloop
  endfacet
  facet normal -0.891007 -0.45399 0
    outer loop
      vertex 14.7081 6.54846 -6
      vertex 13.943 8.05 6
      vertex 13.943 8.05 -6
    endloop
  endfacet
  facet normal -0.891007 -0.45399 0
    outer loop
      vertex 13.943 8.05 6
      vertex 14.7081 6.54846 -6
      vertex 14.7081 6.54846 6
    endloop
  endfacet
  facet normal -0.838671 -0.544639 0
    outer loop
      vertex 13.943 8.05 -6
      vertex 13.0252 9.46334 6
      vertex 13.0252 9.46334 -6
    endloop
  endfacet
  facet normal -0.838671 -0.544639 0
    outer loop
      vertex 13.0252 9.46334 6
      vertex 13.943 8.05 -6
      vertex 13.943 8.05 6
    endloop
  endfacet
  facet normal -0.777146 -0.62932 0
    outer loop
      vertex 13.0252 9.46334 -6
      vertex 11.9646 10.773 6
      vertex 11.9646 10.773 -6
    endloop
  endfacet
  facet normal -0.777146 -0.62932 0
    outer loop
      vertex 11.9646 10.773 6
      vertex 13.0252 9.46334 -6
      vertex 13.0252 9.46334 6
    endloop
  endfacet
  facet normal -0.358368 -0.93358 0
    outer loop
      vertex 4.97517 15.312 -6
      vertex 6.54846 14.7081 6
      vertex 4.97517 15.312 6
    endloop
  endfacet
  facet normal -0.358368 -0.93358 -0
    outer loop
      vertex 6.54846 14.7081 6
      vertex 4.97517 15.312 -6
      vertex 6.54846 14.7081 -6
    endloop
  endfacet
  facet normal -0.99863 -0.052335 0
    outer loop
      vertex 16.1 0 -6
      vertex 16.0118 1.68291 6
      vertex 16.0118 1.68291 -6
    endloop
  endfacet
  facet normal -0.99863 -0.052335 0
    outer loop
      vertex 16.0118 1.68291 6
      vertex 16.1 0 -6
      vertex 16.1 0 6
    endloop
  endfacet
  facet normal -0.0523357 0.99863 0
    outer loop
      vertex 1.68291 -16.0118 -6
      vertex 1 -16.0476 6
      vertex 1.68291 -16.0118 6
    endloop
  endfacet
  facet normal -0.0523357 0.99863 0
    outer loop
      vertex 1 -16.0476 6
      vertex 1.68291 -16.0118 -6
      vertex 1 -16.0476 -6
    endloop
  endfacet
  facet normal -0.965926 0.258819 0
    outer loop
      vertex 15.312 -4.97517 -6
      vertex 15.7482 -3.34738 6
      vertex 15.7482 -3.34738 -6
    endloop
  endfacet
  facet normal -0.965926 0.258819 0
    outer loop
      vertex 15.7482 -3.34738 6
      vertex 15.312 -4.97517 -6
      vertex 15.312 -4.97517 6
    endloop
  endfacet
  facet normal -0.156435 0.987688 0
    outer loop
      vertex 3.34738 -15.7482 -6
      vertex 1.68291 -16.0118 6
      vertex 3.34738 -15.7482 6
    endloop
  endfacet
  facet normal -0.156435 0.987688 0
    outer loop
      vertex 1.68291 -16.0118 6
      vertex 3.34738 -15.7482 -6
      vertex 1.68291 -16.0118 -6
    endloop
  endfacet
  facet normal -0.45399 0.891007 0
    outer loop
      vertex 8.05 -13.943 -6
      vertex 6.54846 -14.7081 6
      vertex 8.05 -13.943 6
    endloop
  endfacet
  facet normal -0.45399 0.891007 0
    outer loop
      vertex 6.54846 -14.7081 6
      vertex 8.05 -13.943 -6
      vertex 6.54846 -14.7081 -6
    endloop
  endfacet
  facet normal -0.62932 0.777146 0
    outer loop
      vertex 10.773 -11.9646 -6
      vertex 9.46334 -13.0252 6
      vertex 10.773 -11.9646 6
    endloop
  endfacet
  facet normal -0.62932 0.777146 0
    outer loop
      vertex 9.46334 -13.0252 6
      vertex 10.773 -11.9646 -6
      vertex 9.46334 -13.0252 -6
    endloop
  endfacet
  facet normal -0.544639 0.838671 0
    outer loop
      vertex 9.46334 -13.0252 -6
      vertex 8.05 -13.943 6
      vertex 9.46334 -13.0252 6
    endloop
  endfacet
  facet normal -0.544639 0.838671 0
    outer loop
      vertex 8.05 -13.943 6
      vertex 9.46334 -13.0252 -6
      vertex 8.05 -13.943 -6
    endloop
  endfacet
  facet normal -0.777146 0.62932 0
    outer loop
      vertex 11.9646 -10.773 -6
      vertex 13.0252 -9.46334 6
      vertex 13.0252 -9.46334 -6
    endloop
  endfacet
  facet normal -0.777146 0.62932 0
    outer loop
      vertex 13.0252 -9.46334 6
      vertex 11.9646 -10.773 -6
      vertex 11.9646 -10.773 6
    endloop
  endfacet
  facet normal -0.891007 0.45399 0
    outer loop
      vertex 13.943 -8.05 -6
      vertex 14.7081 -6.54846 6
      vertex 14.7081 -6.54846 -6
    endloop
  endfacet
  facet normal -0.891007 0.45399 0
    outer loop
      vertex 14.7081 -6.54846 6
      vertex 13.943 -8.05 -6
      vertex 13.943 -8.05 6
    endloop
  endfacet
  facet normal -0.838671 0.544639 0
    outer loop
      vertex 13.0252 -9.46334 -6
      vertex 13.943 -8.05 6
      vertex 13.943 -8.05 -6
    endloop
  endfacet
  facet normal -0.838671 0.544639 0
    outer loop
      vertex 13.943 -8.05 6
      vertex 13.0252 -9.46334 -6
      vertex 13.0252 -9.46334 6
    endloop
  endfacet
  facet normal -0.258819 -0.965926 0
    outer loop
      vertex 3.34738 15.7482 -6
      vertex 4.97517 15.312 6
      vertex 3.34738 15.7482 6
    endloop
  endfacet
  facet normal -0.258819 -0.965926 -0
    outer loop
      vertex 4.97517 15.312 6
      vertex 3.34738 15.7482 -6
      vertex 4.97517 15.312 -6
    endloop
  endfacet
  facet normal -0.987688 0.156435 0
    outer loop
      vertex 15.7482 -3.34738 -6
      vertex 16.0118 -1.68291 6
      vertex 16.0118 -1.68291 -6
    endloop
  endfacet
  facet normal -0.987688 0.156435 0
    outer loop
      vertex 16.0118 -1.68291 6
      vertex 15.7482 -3.34738 -6
      vertex 15.7482 -3.34738 6
    endloop
  endfacet
  facet normal -0.99863 0.052335 0
    outer loop
      vertex 16.0118 -1.68291 -6
      vertex 16.1 0 6
      vertex 16.1 0 -6
    endloop
  endfacet
  facet normal -0.99863 0.052335 0
    outer loop
      vertex 16.1 0 6
      vertex 16.0118 -1.68291 -6
      vertex 16.0118 -1.68291 6
    endloop
  endfacet
  facet normal -0.358368 0.93358 0
    outer loop
      vertex 6.54846 -14.7081 -6
      vertex 4.97517 -15.312 6
      vertex 6.54846 -14.7081 6
    endloop
  endfacet
  facet normal -0.358368 0.93358 0
    outer loop
      vertex 4.97517 -15.312 6
      vertex 6.54846 -14.7081 -6
      vertex 4.97517 -15.312 -6
    endloop
  endfacet
  facet normal -1 0 0
    outer loop
      vertex 1 23.0567 -2.3097
      vertex 1 26.1669 -4.41838
      vertex 1 24.5853 -6
    endloop
  endfacet
  facet normal -1 0 0
    outer loop
      vertex 1 26.1669 -4.41838
      vertex 1 24.4097 -0.956708
      vertex 1 24.6 -2.22045e-16
    endloop
  endfacet
  facet normal -1 0 0
    outer loop
      vertex 1 26.1669 -4.41838
      vertex 1 23.8678 -1.76777
      vertex 1 24.4097 -0.956708
    endloop
  endfacet
  facet normal -1 0 0
    outer loop
      vertex 1 26.1669 -4.41838
      vertex 1 23.0567 -2.3097
      vertex 1 23.8678 -1.76777
    endloop
  endfacet
  facet normal -1 0 0
    outer loop
      vertex 1 24.5853 -6
      vertex 1 22.1 -2.5
      vertex 1 23.0567 -2.3097
    endloop
  endfacet
  facet normal -1 0 0
    outer loop
      vertex 1 20.9705 -6
      vertex 1 22.1 -2.5
      vertex 1 24.5853 -6
    endloop
  endfacet
  facet normal -1 -0 0
    outer loop
      vertex 1 22.1 -2.5
      vertex 1 20.9705 -6
      vertex 1 21.1433 -2.3097
    endloop
  endfacet
  facet normal -1 0 0
    outer loop
      vertex 1 20.9705 -6
      vertex 1 20.3322 -1.76777
      vertex 1 21.1433 -2.3097
    endloop
  endfacet
  facet normal -1 0 0
    outer loop
      vertex 1 16.0476 -6
      vertex 1 20.3322 -1.76777
      vertex 1 20.9705 -6
    endloop
  endfacet
  facet normal -1 -0 0
    outer loop
      vertex 1 19.7903 -0.956708
      vertex 1 16.0476 -6
      vertex 1 19.6 -2.22045e-16
    endloop
  endfacet
  facet normal -1 -0 0
    outer loop
      vertex 1 20.3322 -1.76777
      vertex 1 16.0476 -6
      vertex 1 19.7903 -0.956708
    endloop
  endfacet
  facet normal -1 0 0
    outer loop
      vertex 1 24.6 -2.22045e-16
      vertex 1 28.1 2.48528
      vertex 1 28.1 -2.48528
    endloop
  endfacet
  facet normal -1 0 0
    outer loop
      vertex 1 24.6 -2.22045e-16
      vertex 1 28.1 -2.48528
      vertex 1 26.1669 -4.41838
    endloop
  endfacet
  facet normal -1 0 0
    outer loop
      vertex 1 24.4097 0.956708
      vertex 1 28.1 2.48528
      vertex 1 24.6 -2.22045e-16
    endloop
  endfacet
  facet normal -1 -0 0
    outer loop
      vertex 1 28.1 2.48528
      vertex 1 24.4097 0.956708
      vertex 1 26.5184 4.0669
    endloop
  endfacet
  facet normal -1 0 0
    outer loop
      vertex 1 23.8678 1.76777
      vertex 1 26.5184 4.0669
      vertex 1 24.4097 0.956708
    endloop
  endfacet
  facet normal -1 0 0
    outer loop
      vertex 1 23.0567 2.3097
      vertex 1 26.5184 4.0669
      vertex 1 23.8678 1.76777
    endloop
  endfacet
  facet normal -1 -0 0
    outer loop
      vertex 1 26.5184 4.0669
      vertex 1 23.0567 2.3097
      vertex 1 24.5853 6
    endloop
  endfacet
  facet normal -1 0 0
    outer loop
      vertex 1 22.1 2.5
      vertex 1 24.5853 6
      vertex 1 23.0567 2.3097
    endloop
  endfacet
  facet normal -1 0 0
    outer loop
      vertex 1 20.1673 6
      vertex 1 22.1 2.5
      vertex 1 21.1433 2.3097
    endloop
  endfacet
  facet normal -1 0 0
    outer loop
      vertex 1 20.1673 6
      vertex 1 21.1433 2.3097
      vertex 1 20.3322 1.76777
    endloop
  endfacet
  facet normal -1 0 0
    outer loop
      vertex 1 22.1 2.5
      vertex 1 20.1673 6
      vertex 1 24.5853 6
    endloop
  endfacet
  facet normal -1 0 0
    outer loop
      vertex 1 16.0476 6
      vertex 1 20.3322 1.76777
      vertex 1 19.7903 0.956708
    endloop
  endfacet
  facet normal -1 0 0
    outer loop
      vertex 1 16.0476 6
      vertex 1 19.7903 0.956708
      vertex 1 19.6 -2.22045e-16
    endloop
  endfacet
  facet normal -1 0 0
    outer loop
      vertex 1 16.0476 6
      vertex 1 19.6 -2.22045e-16
      vertex 1 16.0476 -6
    endloop
  endfacet
  facet normal -1 0 0
    outer loop
      vertex 1 20.3322 1.76777
      vertex 1 16.0476 6
      vertex 1 20.1673 6
    endloop
  endfacet
  facet normal -1 0 0
    outer loop
      vertex 1 -16.0476 -6
      vertex 1 -19.6 -2.22045e-16
      vertex 1 -16.0476 6
    endloop
  endfacet
  facet normal -1 0 0
    outer loop
      vertex 1 -16.0476 -6
      vertex 1 -19.7903 -0.956708
      vertex 1 -19.6 -2.22045e-16
    endloop
  endfacet
  facet normal -1 0 0
    outer loop
      vertex 1 -16.0476 -6
      vertex 1 -20.3322 -1.76777
      vertex 1 -19.7903 -0.956708
    endloop
  endfacet
  facet normal -1 0 0
    outer loop
      vertex 1 -20.9705 -6
      vertex 1 -20.3322 -1.76777
      vertex 1 -16.0476 -6
    endloop
  endfacet
  facet normal -1 0 0
    outer loop
      vertex 1 -20.9705 -6
      vertex 1 -21.1433 -2.3097
      vertex 1 -20.3322 -1.76777
    endloop
  endfacet
  facet normal -1 0 0
    outer loop
      vertex 1 -20.9705 -6
      vertex 1 -22.1 -2.5
      vertex 1 -21.1433 -2.3097
    endloop
  endfacet
  facet normal -1 0 0
    outer loop
      vertex 1 -24.5853 -6
      vertex 1 -22.1 -2.5
      vertex 1 -20.9705 -6
    endloop
  endfacet
  facet normal -1 -0 0
    outer loop
      vertex 1 -22.1 -2.5
      vertex 1 -24.5853 -6
      vertex 1 -23.0567 -2.3097
    endloop
  endfacet
  facet normal -1 0 0
    outer loop
      vertex 1 -26.1669 -4.41838
      vertex 1 -23.0567 -2.3097
      vertex 1 -24.5853 -6
    endloop
  endfacet
  facet normal -1 -0 0
    outer loop
      vertex 1 -23.0567 -2.3097
      vertex 1 -26.1669 -4.41838
      vertex 1 -23.8678 -1.76777
    endloop
  endfacet
  facet normal -1 -0 0
    outer loop
      vertex 1 -23.8678 -1.76777
      vertex 1 -26.1669 -4.41838
      vertex 1 -24.4097 -0.956708
    endloop
  endfacet
  facet normal -1 0 0
    outer loop
      vertex 1 -28.1 -2.48528
      vertex 1 -24.4097 -0.956708
      vertex 1 -26.1669 -4.41838
    endloop
  endfacet
  facet normal -1 0 0
    outer loop
      vertex 1 -19.7903 0.956708
      vertex 1 -16.0476 6
      vertex 1 -19.6 -2.22045e-16
    endloop
  endfacet
  facet normal -1 0 0
    outer loop
      vertex 1 -20.3322 1.76777
      vertex 1 -16.0476 6
      vertex 1 -19.7903 0.956708
    endloop
  endfacet
  facet normal -1 -0 0
    outer loop
      vertex 1 -16.0476 6
      vertex 1 -20.3322 1.76777
      vertex 1 -20.1673 6
    endloop
  endfacet
  facet normal -1 0 0
    outer loop
      vertex 1 -21.1433 2.3097
      vertex 1 -20.1673 6
      vertex 1 -20.3322 1.76777
    endloop
  endfacet
  facet normal -1 0 0
    outer loop
      vertex 1 -22.1 2.5
      vertex 1 -20.1673 6
      vertex 1 -21.1433 2.3097
    endloop
  endfacet
  facet normal -1 0 0
    outer loop
      vertex 1 -24.5853 6
      vertex 1 -22.1 2.5
      vertex 1 -23.0567 2.3097
    endloop
  endfacet
  facet normal -1 0 0
    outer loop
      vertex 1 -26.5184 4.0669
      vertex 1 -23.0567 2.3097
      vertex 1 -23.8678 1.76777
    endloop
  endfacet
  facet normal -1 0 0
    outer loop
      vertex 1 -22.1 2.5
      vertex 1 -24.5853 6
      vertex 1 -20.1673 6
    endloop
  endfacet
  facet normal -1 0 0
    outer loop
      vertex 1 -26.5184 4.0669
      vertex 1 -23.8678 1.76777
      vertex 1 -24.4097 0.956708
    endloop
  endfacet
  facet normal -1 0 0
    outer loop
      vertex 1 -28.1 2.48528
      vertex 1 -24.4097 0.956708
      vertex 1 -24.6 -2.22045e-16
    endloop
  endfacet
  facet normal -1 -0 0
    outer loop
      vertex 1 -24.4097 -0.956708
      vertex 1 -28.1 -2.48528
      vertex 1 -24.6 -2.22045e-16
    endloop
  endfacet
  facet normal -1 0 0
    outer loop
      vertex 1 -23.0567 2.3097
      vertex 1 -26.5184 4.0669
      vertex 1 -24.5853 6
    endloop
  endfacet
  facet normal -1 0 0
    outer loop
      vertex 1 -28.1 2.48528
      vertex 1 -24.6 -2.22045e-16
      vertex 1 -28.1 -2.48528
    endloop
  endfacet
  facet normal -1 0 0
    outer loop
      vertex 1 -24.4097 0.956708
      vertex 1 -28.1 2.48528
      vertex 1 -26.5184 4.0669
    endloop
  endfacet
endsolid OpenSCAD_Model
