solid OpenSCAD_Model
  facet normal -0.933581 0.358368 0
    outer loop
      vertex -15.5022 5.03698 -2
      vertex -15.2285 5.75 -1.86496e-15
      vertex -15.2285 5.75 -2
    endloop
  endfacet
  facet normal -0.933581 0.358368 0
    outer loop
      vertex -15.2285 5.75 -1.86496e-15
      vertex -15.5022 5.03698 -2
      vertex -15.5022 5.03698 -1.89847e-15
    endloop
  endfacet
  facet normal 0.933581 0.358368 0
    outer loop
      vertex 15.5022 5.03698 1.89847e-15
      vertex 15.2285 5.75 -2
      vertex 15.2285 5.75 1.86496e-15
    endloop
  endfacet
  facet normal 0.933581 0.358368 0
    outer loop
      vertex 15.2285 5.75 -2
      vertex 15.5022 5.03698 1.89847e-15
      vertex 15.5022 5.03698 -2
    endloop
  endfacet
  facet normal -0.99863 -0.0523356 0
    outer loop
      vertex -16.2107 -1.70381 -2
      vertex -16.3 0 -1.99617e-15
      vertex -16.3 0 -2
    endloop
  endfacet
  facet normal -0.99863 -0.0523356 0
    outer loop
      vertex -16.3 0 -1.99617e-15
      vertex -16.2107 -1.70381 -2
      vertex -16.2107 -1.70381 -1.98524e-15
    endloop
  endfacet
  facet normal 0.99863 0.0523356 0
    outer loop
      vertex 16.3 0 1.99617e-15
      vertex 16.2107 1.70381 -2
      vertex 16.2107 1.70381 1.98524e-15
    endloop
  endfacet
  facet normal 0.99863 0.0523356 0
    outer loop
      vertex 16.2107 1.70381 -2
      vertex 16.3 0 1.99617e-15
      vertex 16.3 0 -2
    endloop
  endfacet
  facet normal -0.965926 0.258819 0
    outer loop
      vertex -15.9438 3.38896 -2
      vertex -15.5022 5.03698 -1.89847e-15
      vertex -15.5022 5.03698 -2
    endloop
  endfacet
  facet normal -0.965926 0.258819 0
    outer loop
      vertex -15.5022 5.03698 -1.89847e-15
      vertex -15.9438 3.38896 -2
      vertex -15.9438 3.38896 -1.95255e-15
    endloop
  endfacet
  facet normal 0 0 -1
    outer loop
      vertex -4.96219 -11.1453 -2
      vertex -4.5 -6 -2
      vertex -4.5 -11.3227 -2
    endloop
  endfacet
  facet normal 0 0 -1
    outer loop
      vertex -7.17098 -9.87001 -2
      vertex -4.5 -6 -2
      vertex -6.1 -10.5655 -2
    endloop
  endfacet
  facet normal 0 0 -1
    outer loop
      vertex -4.5 -6 -2
      vertex -4.96219 -11.1453 -2
      vertex -6.1 -10.5655 -2
    endloop
  endfacet
  facet normal 0 0 -1
    outer loop
      vertex -8.16339 -9.06637 -2
      vertex -4.5 -6 -2
      vertex -7.17098 -9.87001 -2
    endloop
  endfacet
  facet normal 0 -0 -1
    outer loop
      vertex -4.96219 11.1453 -2
      vertex -4.5 6 -2
      vertex -6.1 10.5655 -2
    endloop
  endfacet
  facet normal 0 0 -1
    outer loop
      vertex -4.5 6 -2
      vertex -4.96219 11.1453 -2
      vertex -4.5 11.3227 -2
    endloop
  endfacet
  facet normal 0 0 -1
    outer loop
      vertex -9.06637 -8.16339 -2
      vertex -4.5 -6 -2
      vertex -8.16339 -9.06637 -2
    endloop
  endfacet
  facet normal 0 0 -1
    outer loop
      vertex -4.5 6 -2
      vertex -7.17098 9.87001 -2
      vertex -6.1 10.5655 -2
    endloop
  endfacet
  facet normal 0 0 -1
    outer loop
      vertex -9.87001 -7.17098 -2
      vertex -4.5 -6 -2
      vertex -9.06637 -8.16339 -2
    endloop
  endfacet
  facet normal 0 0 -1
    outer loop
      vertex -4.5 6 -2
      vertex -8.16339 9.06637 -2
      vertex -7.17098 9.87001 -2
    endloop
  endfacet
  facet normal 0 0 -1
    outer loop
      vertex -10.5655 -6.1 -2
      vertex -4.5 -6 -2
      vertex -9.87001 -7.17098 -2
    endloop
  endfacet
  facet normal 0 0 -1
    outer loop
      vertex -4.5 6 -2
      vertex -9.06637 8.16339 -2
      vertex -8.16339 9.06637 -2
    endloop
  endfacet
  facet normal 0 0 -1
    outer loop
      vertex -4.5 -6 -2
      vertex -10.7438 -5.75 -2
      vertex -4.5 6 -2
    endloop
  endfacet
  facet normal 0 0 -1
    outer loop
      vertex -4.5 6 -2
      vertex -9.87001 7.17098 -2
      vertex -9.06637 8.16339 -2
    endloop
  endfacet
  facet normal -0 0 -1
    outer loop
      vertex -4.5 -6 -2
      vertex -10.5655 -6.1 -2
      vertex -10.7438 -5.75 -2
    endloop
  endfacet
  facet normal 0 0 -1
    outer loop
      vertex -10.7438 5.75 -2
      vertex -4.5 6 -2
      vertex -10.7438 -5.75 -2
    endloop
  endfacet
  facet normal 0 -0 -1
    outer loop
      vertex -10.5655 6.1 -2
      vertex -4.5 6 -2
      vertex -10.7438 5.75 -2
    endloop
  endfacet
  facet normal 0 0 -1
    outer loop
      vertex -4.5 6 -2
      vertex -10.5655 6.1 -2
      vertex -9.87001 7.17098 -2
    endloop
  endfacet
  facet normal 0 0 -1
    outer loop
      vertex -15.5022 -5.03698 -2
      vertex -10.7438 -5.75 -2
      vertex -15.2285 -5.75 -2
    endloop
  endfacet
  facet normal 0 0 -1
    outer loop
      vertex -15.9438 -3.38896 -2
      vertex -10.7438 -5.75 -2
      vertex -15.5022 -5.03698 -2
    endloop
  endfacet
  facet normal 0 0 -1
    outer loop
      vertex -16.2107 -1.70381 -2
      vertex -10.7438 -5.75 -2
      vertex -15.9438 -3.38896 -2
    endloop
  endfacet
  facet normal 0 0 -1
    outer loop
      vertex -16.3 0 -2
      vertex -10.7438 -5.75 -2
      vertex -16.2107 -1.70381 -2
    endloop
  endfacet
  facet normal 0 -0 -1
    outer loop
      vertex -15.5022 5.03698 -2
      vertex -10.7438 5.75 -2
      vertex -15.9438 3.38896 -2
    endloop
  endfacet
  facet normal -0 0 -1
    outer loop
      vertex -10.7438 5.75 -2
      vertex -15.5022 5.03698 -2
      vertex -15.2285 5.75 -2
    endloop
  endfacet
  facet normal 0 0 -1
    outer loop
      vertex -10.7438 -5.75 -2
      vertex -16.3 0 -2
      vertex -10.7438 5.75 -2
    endloop
  endfacet
  facet normal 0 0 -1
    outer loop
      vertex -10.7438 5.75 -2
      vertex -16.2107 1.70381 -2
      vertex -15.9438 3.38896 -2
    endloop
  endfacet
  facet normal 0 0 -1
    outer loop
      vertex -10.7438 5.75 -2
      vertex -16.3 0 -2
      vertex -16.2107 1.70381 -2
    endloop
  endfacet
  facet normal 0 0 -1
    outer loop
      vertex -4.5 6 -2
      vertex -2 0 -2
      vertex -4.5 -6 -2
    endloop
  endfacet
  facet normal 0 0 -1
    outer loop
      vertex -2 0 -2
      vertex -4.5 6 -2
      vertex -3.75 6 -2
    endloop
  endfacet
  facet normal 0 0 -1
    outer loop
      vertex 2.53652 -11.9334 -2
      vertex 3.75 -6 -2
      vertex 3.75 -11.6082 -2
    endloop
  endfacet
  facet normal 0 0 -1
    outer loop
      vertex 3.75 -6 -2
      vertex 1.94188 -0.478631 -2
      vertex 3.75 6 -2
    endloop
  endfacet
  facet normal 0 0 -1
    outer loop
      vertex 1.27525 -12.1332 -2
      vertex 3.75 -6 -2
      vertex 2.53652 -11.9334 -2
    endloop
  endfacet
  facet normal 0 0 -1
    outer loop
      vertex 1.94188 0.478631 -2
      vertex 3.75 6 -2
      vertex 1.94188 -0.478631 -2
    endloop
  endfacet
  facet normal 0 0 -1
    outer loop
      vertex 1.49702 1.32625 -2
      vertex 3.75 6 -2
      vertex 1.94188 0.478631 -2
    endloop
  endfacet
  facet normal 0 0 -1
    outer loop
      vertex 3.75 -6 -2
      vertex 1.49702 -1.32625 -2
      vertex 1.94188 -0.478631 -2
    endloop
  endfacet
  facet normal 0 0 -1
    outer loop
      vertex 2.44929e-16 -12.2 -2
      vertex 3.75 -6 -2
      vertex 1.27525 -12.1332 -2
    endloop
  endfacet
  facet normal 0 0 -1
    outer loop
      vertex 3.75 -6 -2
      vertex 0.709209 -1.87003 -2
      vertex 1.49702 -1.32625 -2
    endloop
  endfacet
  facet normal -0 0 -1
    outer loop
      vertex 3.75 -6 -2
      vertex 2.44929e-16 -12.2 -2
      vertex -3.75 -6 -2
    endloop
  endfacet
  facet normal 0 -0 -1
    outer loop
      vertex -0.241073 -1.98542 -2
      vertex 3.75 -6 -2
      vertex -3.75 -6 -2
    endloop
  endfacet
  facet normal 0 0 -1
    outer loop
      vertex 3.75 -6 -2
      vertex -0.241073 -1.98542 -2
      vertex 0.709209 -1.87003 -2
    endloop
  endfacet
  facet normal 0 0 -1
    outer loop
      vertex -3.75 -6 -2
      vertex 2.44929e-16 -12.2 -2
      vertex -1.27525 -12.1332 -2
    endloop
  endfacet
  facet normal -0 0 -1
    outer loop
      vertex -0.241073 -1.98542 -2
      vertex -3.75 -6 -2
      vertex -1.13613 -1.64597 -2
    endloop
  endfacet
  facet normal -0 0 -1
    outer loop
      vertex -1.13613 -1.64597 -2
      vertex -3.75 -6 -2
      vertex -1.77091 -0.929446 -2
    endloop
  endfacet
  facet normal 0 0 -1
    outer loop
      vertex -3.75 -6 -2
      vertex -1.27525 -12.1332 -2
      vertex -2.53652 -11.9334 -2
    endloop
  endfacet
  facet normal 0 0 -1
    outer loop
      vertex 3.75 -6 -2
      vertex 4.5 6 -2
      vertex 4.5 -6 -2
    endloop
  endfacet
  facet normal -0 0 -1
    outer loop
      vertex 4.5 6 -2
      vertex 3.75 -6 -2
      vertex 3.75 6 -2
    endloop
  endfacet
  facet normal 0 0 -1
    outer loop
      vertex 10.7438 -5.75 -2
      vertex 16.3 0 -2
      vertex 16.2107 -1.70381 -2
    endloop
  endfacet
  facet normal 0 0 -1
    outer loop
      vertex 10.7438 -5.75 -2
      vertex 16.2107 -1.70381 -2
      vertex 15.9438 -3.38896 -2
    endloop
  endfacet
  facet normal 0 0 -1
    outer loop
      vertex 10.7438 5.75 -2
      vertex 16.3 0 -2
      vertex 10.7438 -5.75 -2
    endloop
  endfacet
  facet normal 0 0 -1
    outer loop
      vertex 10.7438 -5.75 -2
      vertex 15.9438 -3.38896 -2
      vertex 15.5022 -5.03698 -2
    endloop
  endfacet
  facet normal 0 0 -1
    outer loop
      vertex 16.3 0 -2
      vertex 10.7438 5.75 -2
      vertex 16.2107 1.70381 -2
    endloop
  endfacet
  facet normal 0 0 -1
    outer loop
      vertex 10.7438 -5.75 -2
      vertex 15.5022 -5.03698 -2
      vertex 15.2285 -5.75 -2
    endloop
  endfacet
  facet normal 0 0 -1
    outer loop
      vertex 16.2107 1.70381 -2
      vertex 10.7438 5.75 -2
      vertex 15.9438 3.38896 -2
    endloop
  endfacet
  facet normal 0 0 -1
    outer loop
      vertex 15.9438 3.38896 -2
      vertex 10.7438 5.75 -2
      vertex 15.5022 5.03698 -2
    endloop
  endfacet
  facet normal 0 0 -1
    outer loop
      vertex 15.5022 5.03698 -2
      vertex 10.7438 5.75 -2
      vertex 15.2285 5.75 -2
    endloop
  endfacet
  facet normal 0 0 -1
    outer loop
      vertex 4.5 -6 -2
      vertex 10.7438 -5.75 -2
      vertex 10.5655 -6.1 -2
    endloop
  endfacet
  facet normal -0 0 -1
    outer loop
      vertex 10.7438 -5.75 -2
      vertex 4.5 -6 -2
      vertex 10.7438 5.75 -2
    endloop
  endfacet
  facet normal 0 0 -1
    outer loop
      vertex 4.5 -6 -2
      vertex 10.5655 -6.1 -2
      vertex 9.87001 -7.17098 -2
    endloop
  endfacet
  facet normal 0 0 -1
    outer loop
      vertex 4.5 6 -2
      vertex 10.7438 5.75 -2
      vertex 4.5 -6 -2
    endloop
  endfacet
  facet normal 0 0 -1
    outer loop
      vertex 4.5 -6 -2
      vertex 9.87001 -7.17098 -2
      vertex 9.06637 -8.16339 -2
    endloop
  endfacet
  facet normal 0 0 -1
    outer loop
      vertex 10.7438 5.75 -2
      vertex 4.5 6 -2
      vertex 10.5655 6.1 -2
    endloop
  endfacet
  facet normal 0 0 -1
    outer loop
      vertex 4.5 -6 -2
      vertex 9.06637 -8.16339 -2
      vertex 8.16339 -9.06637 -2
    endloop
  endfacet
  facet normal -0 0 -1
    outer loop
      vertex 10.5655 6.1 -2
      vertex 4.5 6 -2
      vertex 9.87001 7.17098 -2
    endloop
  endfacet
  facet normal 0 0 -1
    outer loop
      vertex 4.5 -6 -2
      vertex 8.16339 -9.06637 -2
      vertex 7.17098 -9.87001 -2
    endloop
  endfacet
  facet normal -0 0 -1
    outer loop
      vertex 9.87001 7.17098 -2
      vertex 4.5 6 -2
      vertex 9.06637 8.16339 -2
    endloop
  endfacet
  facet normal 0 0 -1
    outer loop
      vertex 4.5 -6 -2
      vertex 7.17098 -9.87001 -2
      vertex 6.1 -10.5655 -2
    endloop
  endfacet
  facet normal -0 0 -1
    outer loop
      vertex 9.06637 8.16339 -2
      vertex 4.5 6 -2
      vertex 8.16339 9.06637 -2
    endloop
  endfacet
  facet normal 0 0 -1
    outer loop
      vertex 4.5 -6 -2
      vertex 6.1 -10.5655 -2
      vertex 4.96219 -11.1453 -2
    endloop
  endfacet
  facet normal -0 0 -1
    outer loop
      vertex 8.16339 9.06637 -2
      vertex 4.5 6 -2
      vertex 7.17098 9.87001 -2
    endloop
  endfacet
  facet normal 0 0 -1
    outer loop
      vertex 4.5 -6 -2
      vertex 4.96219 -11.1453 -2
      vertex 4.5 -11.3227 -2
    endloop
  endfacet
  facet normal -0 0 -1
    outer loop
      vertex 7.17098 9.87001 -2
      vertex 4.5 6 -2
      vertex 6.1 10.5655 -2
    endloop
  endfacet
  facet normal -0 0 -1
    outer loop
      vertex 6.1 10.5655 -2
      vertex 4.5 6 -2
      vertex 4.96219 11.1453 -2
    endloop
  endfacet
  facet normal -0 0 -1
    outer loop
      vertex 4.96219 11.1453 -2
      vertex 4.5 6 -2
      vertex 4.5 11.3227 -2
    endloop
  endfacet
  facet normal 0 0 -1
    outer loop
      vertex 0.709209 1.87003 -2
      vertex 3.75 6 -2
      vertex 1.49702 1.32625 -2
    endloop
  endfacet
  facet normal 0 0 -1
    outer loop
      vertex -0.241073 1.98542 -2
      vertex 3.75 6 -2
      vertex 0.709209 1.87003 -2
    endloop
  endfacet
  facet normal 0 0 -1
    outer loop
      vertex 3.75 6 -2
      vertex 2.53652 11.9334 -2
      vertex 3.75 11.6082 -2
    endloop
  endfacet
  facet normal 0 -0 -1
    outer loop
      vertex 2.44929e-16 12.2 -2
      vertex 3.75 6 -2
      vertex -3.75 6 -2
    endloop
  endfacet
  facet normal 0 0 -1
    outer loop
      vertex 3.75 6 -2
      vertex 1.27525 12.1332 -2
      vertex 2.53652 11.9334 -2
    endloop
  endfacet
  facet normal -0 0 -1
    outer loop
      vertex 3.75 6 -2
      vertex -0.241073 1.98542 -2
      vertex -3.75 6 -2
    endloop
  endfacet
  facet normal 0 0 -1
    outer loop
      vertex -3.75 6 -2
      vertex -0.241073 1.98542 -2
      vertex -1.13613 1.64597 -2
    endloop
  endfacet
  facet normal 0 0 -1
    outer loop
      vertex 3.75 6 -2
      vertex 2.44929e-16 12.2 -2
      vertex 1.27525 12.1332 -2
    endloop
  endfacet
  facet normal 0 0 -1
    outer loop
      vertex -3.75 6 -2
      vertex -1.13613 1.64597 -2
      vertex -1.77091 0.929446 -2
    endloop
  endfacet
  facet normal 0 0 -1
    outer loop
      vertex -3.75 6 -2
      vertex -1.77091 0.929446 -2
      vertex -2 0 -2
    endloop
  endfacet
  facet normal 0 0 -1
    outer loop
      vertex 2.44929e-16 12.2 -2
      vertex -3.75 6 -2
      vertex -1.27525 12.1332 -2
    endloop
  endfacet
  facet normal 0 0 -1
    outer loop
      vertex -4.5 -6 -2
      vertex -1.77091 -0.929446 -2
      vertex -3.75 -6 -2
    endloop
  endfacet
  facet normal 0 0 -1
    outer loop
      vertex -3.75 -6 -2
      vertex -2.53652 -11.9334 -2
      vertex -3.75 -11.6082 -2
    endloop
  endfacet
  facet normal -0 0 -1
    outer loop
      vertex -1.77091 -0.929446 -2
      vertex -4.5 -6 -2
      vertex -2 0 -2
    endloop
  endfacet
  facet normal 0 0 -1
    outer loop
      vertex -1.27525 12.1332 -2
      vertex -3.75 6 -2
      vertex -2.53652 11.9334 -2
    endloop
  endfacet
  facet normal 0 0 -1
    outer loop
      vertex -2.53652 11.9334 -2
      vertex -3.75 6 -2
      vertex -3.75 11.6082 -2
    endloop
  endfacet
  facet normal 0.965926 0.258819 0
    outer loop
      vertex 15.9438 3.38896 1.95255e-15
      vertex 15.5022 5.03698 -2
      vertex 15.5022 5.03698 1.89847e-15
    endloop
  endfacet
  facet normal 0.965926 0.258819 0
    outer loop
      vertex 15.5022 5.03698 -2
      vertex 15.9438 3.38896 1.95255e-15
      vertex 15.9438 3.38896 -2
    endloop
  endfacet
  facet normal 0.987688 0.156434 0
    outer loop
      vertex 16.2107 1.70381 1.98524e-15
      vertex 15.9438 3.38896 -2
      vertex 15.9438 3.38896 1.95255e-15
    endloop
  endfacet
  facet normal 0.987688 0.156434 0
    outer loop
      vertex 15.9438 3.38896 -2
      vertex 16.2107 1.70381 1.98524e-15
      vertex 16.2107 1.70381 -2
    endloop
  endfacet
  facet normal -0.99863 0.0523356 0
    outer loop
      vertex -16.3 0 -2
      vertex -16.2107 1.70381 -1.98524e-15
      vertex -16.2107 1.70381 -2
    endloop
  endfacet
  facet normal -0.99863 0.0523356 0
    outer loop
      vertex -16.2107 1.70381 -1.98524e-15
      vertex -16.3 0 -2
      vertex -16.3 0 -1.99617e-15
    endloop
  endfacet
  facet normal -0.965926 -0.258819 0
    outer loop
      vertex -15.5022 -5.03698 -2
      vertex -15.9438 -3.38896 -1.95255e-15
      vertex -15.9438 -3.38896 -2
    endloop
  endfacet
  facet normal -0.965926 -0.258819 0
    outer loop
      vertex -15.9438 -3.38896 -1.95255e-15
      vertex -15.5022 -5.03698 -2
      vertex -15.5022 -5.03698 -1.89847e-15
    endloop
  endfacet
  facet normal 0.99863 -0.0523356 0
    outer loop
      vertex 16.2107 -1.70381 1.98524e-15
      vertex 16.3 0 -2
      vertex 16.3 0 1.99617e-15
    endloop
  endfacet
  facet normal 0.99863 -0.0523356 0
    outer loop
      vertex 16.3 0 -2
      vertex 16.2107 -1.70381 1.98524e-15
      vertex 16.2107 -1.70381 -2
    endloop
  endfacet
  facet normal -0.987688 0.156434 0
    outer loop
      vertex -16.2107 1.70381 -2
      vertex -15.9438 3.38896 -1.95255e-15
      vertex -15.9438 3.38896 -2
    endloop
  endfacet
  facet normal -0.987688 0.156434 0
    outer loop
      vertex -15.9438 3.38896 -1.95255e-15
      vertex -16.2107 1.70381 -2
      vertex -16.2107 1.70381 -1.98524e-15
    endloop
  endfacet
  facet normal -0.987688 -0.156434 0
    outer loop
      vertex -15.9438 -3.38896 -2
      vertex -16.2107 -1.70381 -1.98524e-15
      vertex -16.2107 -1.70381 -2
    endloop
  endfacet
  facet normal -0.987688 -0.156434 0
    outer loop
      vertex -16.2107 -1.70381 -1.98524e-15
      vertex -15.9438 -3.38896 -2
      vertex -15.9438 -3.38896 -1.95255e-15
    endloop
  endfacet
  facet normal -0.933581 -0.358368 0
    outer loop
      vertex -15.2285 -5.75 -2
      vertex -15.5022 -5.03698 -1.89847e-15
      vertex -15.5022 -5.03698 -2
    endloop
  endfacet
  facet normal -0.933581 -0.358368 0
    outer loop
      vertex -15.5022 -5.03698 -1.89847e-15
      vertex -15.2285 -5.75 -2
      vertex -15.2285 -5.75 -1.86496e-15
    endloop
  endfacet
  facet normal 0.965926 -0.258819 0
    outer loop
      vertex 15.5022 -5.03698 1.89847e-15
      vertex 15.9438 -3.38896 -2
      vertex 15.9438 -3.38896 1.95255e-15
    endloop
  endfacet
  facet normal 0.965926 -0.258819 0
    outer loop
      vertex 15.9438 -3.38896 -2
      vertex 15.5022 -5.03698 1.89847e-15
      vertex 15.5022 -5.03698 -2
    endloop
  endfacet
  facet normal -1.22465e-16 0 1
    outer loop
      vertex -4.96219 11.1453 -6.07693e-16
      vertex -4.5 6 -5.51091e-16
      vertex -4.5 11.3227 -5.51091e-16
    endloop
  endfacet
  facet normal -1.22465e-16 -4.01404e-24 1
    outer loop
      vertex -7.17098 9.87001 -8.78192e-16
      vertex -4.5 6 -5.51091e-16
      vertex -6.1 10.5655 -7.47034e-16
    endloop
  endfacet
  facet normal -1.22465e-16 -1.29449e-24 1
    outer loop
      vertex -4.5 6 -5.51091e-16
      vertex -4.96219 11.1453 -6.07693e-16
      vertex -6.1 10.5655 -7.47034e-16
    endloop
  endfacet
  facet normal -1.22465e-16 -3.68244e-23 1
    outer loop
      vertex -8.16339 9.06637 -9.99727e-16
      vertex -4.5 6 -5.51091e-16
      vertex -7.17098 9.87001 -8.78192e-16
    endloop
  endfacet
  facet normal -1.22465e-16 1.29449e-24 1
    outer loop
      vertex -4.96219 -11.1453 -6.07693e-16
      vertex -4.5 -6 -5.51091e-16
      vertex -6.1 -10.5655 -7.47034e-16
    endloop
  endfacet
  facet normal -1.22465e-16 0 1
    outer loop
      vertex -4.5 -6 -5.51091e-16
      vertex -4.96219 -11.1453 -6.07693e-16
      vertex -4.5 -11.3227 -5.51091e-16
    endloop
  endfacet
  facet normal -1.22465e-16 3.74147e-23 1
    outer loop
      vertex -9.06637 8.16339 -1.11031e-15
      vertex -4.5 6 -5.51091e-16
      vertex -8.16339 9.06637 -9.99727e-16
    endloop
  endfacet
  facet normal -1.22465e-16 4.01404e-24 1
    outer loop
      vertex -4.5 -6 -5.51091e-16
      vertex -7.17098 -9.87001 -8.78192e-16
      vertex -6.1 -10.5655 -7.47034e-16
    endloop
  endfacet
  facet normal -1.22465e-16 -3.42335e-23 1
    outer loop
      vertex -9.87001 7.17098 -1.20873e-15
      vertex -4.5 6 -5.51091e-16
      vertex -9.06637 8.16339 -1.11031e-15
    endloop
  endfacet
  facet normal -1.22465e-16 3.68244e-23 1
    outer loop
      vertex -4.5 -6 -5.51091e-16
      vertex -8.16339 -9.06637 -9.99727e-16
      vertex -7.17098 -9.87001 -8.78192e-16
    endloop
  endfacet
  facet normal -1.22465e-16 1.85961e-23 1
    outer loop
      vertex -10.5655 6.1 -1.2939e-15
      vertex -4.5 6 -5.51091e-16
      vertex -9.87001 7.17098 -1.20873e-15
    endloop
  endfacet
  facet normal -1.22465e-16 -3.74147e-23 1
    outer loop
      vertex -4.5 -6 -5.51091e-16
      vertex -9.06637 -8.16339 -1.11031e-15
      vertex -8.16339 -9.06637 -9.99727e-16
    endloop
  endfacet
  facet normal -1.22465e-16 0 1
    outer loop
      vertex -4.5 6 -5.51091e-16
      vertex -10.7438 5.75 -1.31574e-15
      vertex -4.5 -6 -5.51091e-16
    endloop
  endfacet
  facet normal -1.22465e-16 3.42335e-23 1
    outer loop
      vertex -4.5 -6 -5.51091e-16
      vertex -9.87001 -7.17098 -1.20873e-15
      vertex -9.06637 -8.16339 -1.11031e-15
    endloop
  endfacet
  facet normal -1.22465e-16 -1.44682e-22 1
    outer loop
      vertex -4.5 6 -5.51091e-16
      vertex -10.5655 6.1 -1.2939e-15
      vertex -10.7438 5.75 -1.31574e-15
    endloop
  endfacet
  facet normal -1.22465e-16 0 1
    outer loop
      vertex -10.7438 -5.75 -1.31574e-15
      vertex -4.5 -6 -5.51091e-16
      vertex -10.7438 5.75 -1.31574e-15
    endloop
  endfacet
  facet normal -1.22465e-16 1.44682e-22 1
    outer loop
      vertex -10.5655 -6.1 -1.2939e-15
      vertex -4.5 -6 -5.51091e-16
      vertex -10.7438 -5.75 -1.31574e-15
    endloop
  endfacet
  facet normal -1.22465e-16 -1.85961e-23 1
    outer loop
      vertex -4.5 -6 -5.51091e-16
      vertex -10.5655 -6.1 -1.2939e-15
      vertex -9.87001 -7.17098 -1.20873e-15
    endloop
  endfacet
  facet normal -1.22465e-16 -2.82363e-22 1
    outer loop
      vertex -15.5022 5.03698 -1.89847e-15
      vertex -10.7438 5.75 -1.31574e-15
      vertex -15.2285 5.75 -1.86496e-15
    endloop
  endfacet
  facet normal -1.22465e-16 7.67831e-23 1
    outer loop
      vertex -15.9438 3.38896 -1.95255e-15
      vertex -10.7438 5.75 -1.31574e-15
      vertex -15.5022 5.03698 -1.89847e-15
    endloop
  endfacet
  facet normal -1.22465e-16 -3.46458e-25 1
    outer loop
      vertex -16.2107 1.70381 -1.98524e-15
      vertex -10.7438 5.75 -1.31574e-15
      vertex -15.9438 3.38896 -1.95255e-15
    endloop
  endfacet
  facet normal -1.22465e-16 -1.008e-23 1
    outer loop
      vertex -16.3 0 -1.99617e-15
      vertex -10.7438 5.75 -1.31574e-15
      vertex -16.2107 1.70381 -1.98524e-15
    endloop
  endfacet
  facet normal -1.22465e-16 -7.67831e-23 1
    outer loop
      vertex -15.5022 -5.03698 -1.89847e-15
      vertex -10.7438 -5.75 -1.31574e-15
      vertex -15.9438 -3.38896 -1.95255e-15
    endloop
  endfacet
  facet normal -1.22465e-16 2.82363e-22 1
    outer loop
      vertex -10.7438 -5.75 -1.31574e-15
      vertex -15.5022 -5.03698 -1.89847e-15
      vertex -15.2285 -5.75 -1.86496e-15
    endloop
  endfacet
  facet normal -1.22465e-16 0 1
    outer loop
      vertex -10.7438 5.75 -1.31574e-15
      vertex -16.3 0 -1.99617e-15
      vertex -10.7438 -5.75 -1.31574e-15
    endloop
  endfacet
  facet normal -1.22465e-16 3.46458e-25 1
    outer loop
      vertex -10.7438 -5.75 -1.31574e-15
      vertex -16.2107 -1.70381 -1.98524e-15
      vertex -15.9438 -3.38896 -1.95255e-15
    endloop
  endfacet
  facet normal -1.22465e-16 1.008e-23 1
    outer loop
      vertex -10.7438 -5.75 -1.31574e-15
      vertex -16.3 0 -1.99617e-15
      vertex -16.2107 -1.70381 -1.98524e-15
    endloop
  endfacet
  facet normal -1.22465e-16 0 1
    outer loop
      vertex -4.5 -6 -5.51091e-16
      vertex -2 0 -2.44929e-16
      vertex -4.5 6 -5.51091e-16
    endloop
  endfacet
  facet normal -1.22465e-16 2.05876e-23 1
    outer loop
      vertex -2 0 -2.44929e-16
      vertex -4.5 -6 -5.51091e-16
      vertex -3.75 -6 -4.59243e-16
    endloop
  endfacet
  facet normal -1.22465e-16 8.2134e-24 1
    outer loop
      vertex 0 12.2 0
      vertex 1.275 11.25 1.56142e-16
      vertex 1.27525 12.1332 1.56173e-16
    endloop
  endfacet
  facet normal -1.22465e-16 1.22241e-24 1
    outer loop
      vertex 0 12.2 0
      vertex -1.275 11.25 -1.56142e-16
      vertex 1.275 11.25 1.56142e-16
    endloop
  endfacet
  facet normal -1.22465e-16 -5.58658e-24 1
    outer loop
      vertex -2.53652 11.9334 -3.10634e-16
      vertex -1.275 11.25 -1.56142e-16
      vertex -1.27525 12.1332 -1.56173e-16
    endloop
  endfacet
  facet normal -1.22465e-16 -5.58359e-24 1
    outer loop
      vertex -1.27525 12.1332 -1.56173e-16
      vertex -1.275 11.25 -1.56142e-16
      vertex 0 12.2 0
    endloop
  endfacet
  facet normal -1.22465e-16 0 1
    outer loop
      vertex 1.24 10.8171 1.51856e-16
      vertex 3.75 6 4.59243e-16
      vertex 3.75 11.6082 4.59243e-16
    endloop
  endfacet
  facet normal -1.22465e-16 0 1
    outer loop
      vertex 3.75 6 4.59243e-16
      vertex 1.94188 0.478631 2.37812e-16
      vertex 3.75 -6 4.59243e-16
    endloop
  endfacet
  facet normal -1.22465e-16 -3.42312e-23 1
    outer loop
      vertex 1.24 10.8171 1.51856e-16
      vertex 3.75 11.6082 4.59243e-16
      vertex 2.53652 11.9334 3.10634e-16
    endloop
  endfacet
  facet normal -1.22465e-16 0 1
    outer loop
      vertex 1.94188 -0.478631 2.37812e-16
      vertex 3.75 -6 4.59243e-16
      vertex 1.94188 0.478631 2.37812e-16
    endloop
  endfacet
  facet normal -1.22465e-16 -4.10583e-24 1
    outer loop
      vertex 1.49702 -1.32625 1.83332e-16
      vertex 3.75 -6 4.59243e-16
      vertex 1.94188 -0.478631 2.37812e-16
    endloop
  endfacet
  facet normal -1.22465e-16 4.10583e-24 1
    outer loop
      vertex 3.75 6 4.59243e-16
      vertex 1.49702 1.32625 1.83332e-16
      vertex 1.94188 0.478631 2.37812e-16
    endloop
  endfacet
  facet normal -1.22465e-16 8.2163e-24 1
    outer loop
      vertex 1.275 11.25 1.56142e-16
      vertex 2.53652 11.9334 3.10634e-16
      vertex 1.27525 12.1332 1.56173e-16
    endloop
  endfacet
  facet normal -1.22465e-16 0 1
    outer loop
      vertex 1.275 11.15 1.56142e-16
      vertex 2.53652 11.9334 3.10634e-16
      vertex 1.275 11.25 1.56142e-16
    endloop
  endfacet
  facet normal -1.22465e-16 -3.30824e-23 1
    outer loop
      vertex 1.24 10.8171 1.51856e-16
      vertex 2.53652 11.9334 3.10634e-16
      vertex 1.275 11.15 1.56142e-16
    endloop
  endfacet
  facet normal -1.22465e-16 4.59834e-26 1
    outer loop
      vertex 3.75 6 4.59243e-16
      vertex 1.24 10.8171 1.51856e-16
      vertex 0.309322 6.21356 3.7881e-17
    endloop
  endfacet
  facet normal -1.22465e-16 -2.83592e-25 1
    outer loop
      vertex 0.709209 1.87003 8.68531e-17
      vertex 3.75 6 4.59243e-16
      vertex 0.309322 6.21356 3.7881e-17
    endloop
  endfacet
  facet normal -1.22465e-16 8.80195e-24 1
    outer loop
      vertex 3.75 6 4.59243e-16
      vertex 0.709209 1.87003 8.68531e-17
      vertex 1.49702 1.32625 1.83332e-16
    endloop
  endfacet
  facet normal -1.22465e-16 -8.24192e-25 1
    outer loop
      vertex 0.309322 6.21356 3.7881e-17
      vertex -0.241073 1.98542 -2.95229e-17
      vertex 0.709209 1.87003 8.68531e-17
    endloop
  endfacet
  facet normal -1.22465e-16 -1.0364e-25 1
    outer loop
      vertex -0.309321 6.21356 -3.78809e-17
      vertex -0.241073 1.98542 -2.95229e-17
      vertex 0.309322 6.21356 3.7881e-17
    endloop
  endfacet
  facet normal -1.22465e-16 -6.64365e-26 1
    outer loop
      vertex -0.309321 6.21356 -3.78809e-17
      vertex -1.13613 1.64597 -1.39136e-16
      vertex -0.241073 1.98542 -2.95229e-17
    endloop
  endfacet
  facet normal -1.22465e-16 5.60909e-25 1
    outer loop
      vertex -3.75 6 -4.59243e-16
      vertex -0.309321 6.21356 -3.78809e-17
      vertex -1.24 10.8172 -1.51856e-16
    endloop
  endfacet
  facet normal -1.22465e-16 1.66417e-23 1
    outer loop
      vertex -2.53652 11.9334 -3.10634e-16
      vertex -1.24 10.8172 -1.51856e-16
      vertex -1.275 11.15 -1.56142e-16
    endloop
  endfacet
  facet normal -1.22465e-16 -1.72946e-24 1
    outer loop
      vertex -0.309321 6.21356 -3.78809e-17
      vertex -3.75 6 -4.59243e-16
      vertex -1.13613 1.64597 -1.39136e-16
    endloop
  endfacet
  facet normal -1.22465e-16 0 1
    outer loop
      vertex -1.275 11.25 -1.56142e-16
      vertex -2.53652 11.9334 -3.10634e-16
      vertex -1.275 11.15 -1.56142e-16
    endloop
  endfacet
  facet normal -1.22465e-16 -3.91681e-24 1
    outer loop
      vertex -1.13613 1.64597 -1.39136e-16
      vertex -3.75 6 -4.59243e-16
      vertex -1.77091 0.929446 -2.16874e-16
    endloop
  endfacet
  facet normal -1.22465e-16 3.23675e-23 1
    outer loop
      vertex -1.24 10.8172 -1.51856e-16
      vertex -2.53652 11.9334 -3.10634e-16
      vertex -3.75 11.6082 -4.59243e-16
    endloop
  endfacet
  facet normal -1.22465e-16 0 1
    outer loop
      vertex 3.75 6 4.59243e-16
      vertex 4.5 -6 5.51091e-16
      vertex 4.5 6 5.51091e-16
    endloop
  endfacet
  facet normal -1.22465e-16 0 1
    outer loop
      vertex 4.5 -6 5.51091e-16
      vertex 3.75 6 4.59243e-16
      vertex 3.75 -6 4.59243e-16
    endloop
  endfacet
  facet normal -1.22465e-16 1.008e-23 1
    outer loop
      vertex 10.7438 5.75 1.31574e-15
      vertex 16.3 0 1.99617e-15
      vertex 16.2107 1.70381 1.98524e-15
    endloop
  endfacet
  facet normal -1.22465e-16 3.46458e-25 1
    outer loop
      vertex 10.7438 5.75 1.31574e-15
      vertex 16.2107 1.70381 1.98524e-15
      vertex 15.9438 3.38896 1.95255e-15
    endloop
  endfacet
  facet normal -1.22465e-16 0 1
    outer loop
      vertex 10.7438 -5.75 1.31574e-15
      vertex 16.3 0 1.99617e-15
      vertex 10.7438 5.75 1.31574e-15
    endloop
  endfacet
  facet normal -1.22465e-16 -7.67831e-23 1
    outer loop
      vertex 10.7438 5.75 1.31574e-15
      vertex 15.9438 3.38896 1.95255e-15
      vertex 15.5022 5.03698 1.89847e-15
    endloop
  endfacet
  facet normal -1.22465e-16 -1.008e-23 1
    outer loop
      vertex 16.3 0 1.99617e-15
      vertex 10.7438 -5.75 1.31574e-15
      vertex 16.2107 -1.70381 1.98524e-15
    endloop
  endfacet
  facet normal -1.22465e-16 2.82363e-22 1
    outer loop
      vertex 10.7438 5.75 1.31574e-15
      vertex 15.5022 5.03698 1.89847e-15
      vertex 15.2285 5.75 1.86496e-15
    endloop
  endfacet
  facet normal -1.22465e-16 -3.46458e-25 1
    outer loop
      vertex 16.2107 -1.70381 1.98524e-15
      vertex 10.7438 -5.75 1.31574e-15
      vertex 15.9438 -3.38896 1.95255e-15
    endloop
  endfacet
  facet normal -1.22465e-16 7.67831e-23 1
    outer loop
      vertex 15.9438 -3.38896 1.95255e-15
      vertex 10.7438 -5.75 1.31574e-15
      vertex 15.5022 -5.03698 1.89847e-15
    endloop
  endfacet
  facet normal -1.22465e-16 -2.82363e-22 1
    outer loop
      vertex 15.5022 -5.03698 1.89847e-15
      vertex 10.7438 -5.75 1.31574e-15
      vertex 15.2285 -5.75 1.86496e-15
    endloop
  endfacet
  facet normal -1.22465e-16 1.44682e-22 1
    outer loop
      vertex 4.5 6 5.51091e-16
      vertex 10.7438 5.75 1.31574e-15
      vertex 10.5655 6.1 1.2939e-15
    endloop
  endfacet
  facet normal -1.22465e-16 0 1
    outer loop
      vertex 10.7438 5.75 1.31574e-15
      vertex 4.5 6 5.51091e-16
      vertex 10.7438 -5.75 1.31574e-15
    endloop
  endfacet
  facet normal -1.22465e-16 -1.85961e-23 1
    outer loop
      vertex 4.5 6 5.51091e-16
      vertex 10.5655 6.1 1.2939e-15
      vertex 9.87001 7.17098 1.20873e-15
    endloop
  endfacet
  facet normal -1.22465e-16 0 1
    outer loop
      vertex 4.5 -6 5.51091e-16
      vertex 10.7438 -5.75 1.31574e-15
      vertex 4.5 6 5.51091e-16
    endloop
  endfacet
  facet normal -1.22465e-16 3.42335e-23 1
    outer loop
      vertex 4.5 6 5.51091e-16
      vertex 9.87001 7.17098 1.20873e-15
      vertex 9.06637 8.16339 1.11031e-15
    endloop
  endfacet
  facet normal -1.22465e-16 -1.44682e-22 1
    outer loop
      vertex 10.7438 -5.75 1.31574e-15
      vertex 4.5 -6 5.51091e-16
      vertex 10.5655 -6.1 1.2939e-15
    endloop
  endfacet
  facet normal -1.22465e-16 -3.74147e-23 1
    outer loop
      vertex 4.5 6 5.51091e-16
      vertex 9.06637 8.16339 1.11031e-15
      vertex 8.16339 9.06637 9.99727e-16
    endloop
  endfacet
  facet normal -1.22465e-16 1.85961e-23 1
    outer loop
      vertex 10.5655 -6.1 1.2939e-15
      vertex 4.5 -6 5.51091e-16
      vertex 9.87001 -7.17098 1.20873e-15
    endloop
  endfacet
  facet normal -1.22465e-16 3.68244e-23 1
    outer loop
      vertex 4.5 6 5.51091e-16
      vertex 8.16339 9.06637 9.99727e-16
      vertex 7.17098 9.87001 8.78192e-16
    endloop
  endfacet
  facet normal -1.22465e-16 -3.42335e-23 1
    outer loop
      vertex 9.87001 -7.17098 1.20873e-15
      vertex 4.5 -6 5.51091e-16
      vertex 9.06637 -8.16339 1.11031e-15
    endloop
  endfacet
  facet normal -1.22465e-16 4.01404e-24 1
    outer loop
      vertex 4.5 6 5.51091e-16
      vertex 7.17098 9.87001 8.78192e-16
      vertex 6.1 10.5655 7.47034e-16
    endloop
  endfacet
  facet normal -1.22465e-16 3.74147e-23 1
    outer loop
      vertex 9.06637 -8.16339 1.11031e-15
      vertex 4.5 -6 5.51091e-16
      vertex 8.16339 -9.06637 9.99727e-16
    endloop
  endfacet
  facet normal -1.22465e-16 1.29449e-24 1
    outer loop
      vertex 4.5 6 5.51091e-16
      vertex 6.1 10.5655 7.47034e-16
      vertex 4.96219 11.1453 6.07693e-16
    endloop
  endfacet
  facet normal -1.22465e-16 -3.68244e-23 1
    outer loop
      vertex 8.16339 -9.06637 9.99727e-16
      vertex 4.5 -6 5.51091e-16
      vertex 7.17098 -9.87001 8.78192e-16
    endloop
  endfacet
  facet normal -1.22465e-16 0 1
    outer loop
      vertex 4.5 6 5.51091e-16
      vertex 4.96219 11.1453 6.07693e-16
      vertex 4.5 11.3227 5.51091e-16
    endloop
  endfacet
  facet normal -1.22465e-16 -4.01404e-24 1
    outer loop
      vertex 7.17098 -9.87001 8.78192e-16
      vertex 4.5 -6 5.51091e-16
      vertex 6.1 -10.5655 7.47034e-16
    endloop
  endfacet
  facet normal -1.22465e-16 -1.29449e-24 1
    outer loop
      vertex 6.1 -10.5655 7.47034e-16
      vertex 4.5 -6 5.51091e-16
      vertex 4.96219 -11.1453 6.07693e-16
    endloop
  endfacet
  facet normal -1.22465e-16 0 1
    outer loop
      vertex 4.96219 -11.1453 6.07693e-16
      vertex 4.5 -6 5.51091e-16
      vertex 4.5 -11.3227 5.51091e-16
    endloop
  endfacet
  facet normal -1.22465e-16 -8.80195e-24 1
    outer loop
      vertex 0.709209 -1.87003 8.68531e-17
      vertex 3.75 -6 4.59243e-16
      vertex 1.49702 -1.32625 1.83332e-16
    endloop
  endfacet
  facet normal -1.22465e-16 5.60909e-25 1
    outer loop
      vertex 1.24 -10.8172 1.51856e-16
      vertex 3.75 -6 4.59243e-16
      vertex 0.309321 -6.21356 3.78809e-17
    endloop
  endfacet
  facet normal -1.22465e-16 0 1
    outer loop
      vertex 3.75 -6 4.59243e-16
      vertex 1.24 -10.8172 1.51856e-16
      vertex 3.75 -11.6082 4.59243e-16
    endloop
  endfacet
  facet normal -1.22465e-16 0 1
    outer loop
      vertex 1.275 -11.25 1.56142e-16
      vertex 2.53652 -11.9334 3.10634e-16
      vertex 1.275 -11.15 1.56142e-16
    endloop
  endfacet
  facet normal -1.22465e-16 1.66417e-23 1
    outer loop
      vertex 2.53652 -11.9334 3.10634e-16
      vertex 1.24 -10.8172 1.51856e-16
      vertex 1.275 -11.15 1.56142e-16
    endloop
  endfacet
  facet normal -1.22465e-16 2.55297e-25 1
    outer loop
      vertex 3.75 -6 4.59243e-16
      vertex 0.709209 -1.87003 8.68531e-17
      vertex 0.309321 -6.21356 3.78809e-17
    endloop
  endfacet
  facet normal -1.22465e-16 3.23675e-23 1
    outer loop
      vertex 3.75 -11.6082 4.59243e-16
      vertex 1.24 -10.8172 1.51856e-16
      vertex 2.53652 -11.9334 3.10634e-16
    endloop
  endfacet
  facet normal -1.22465e-16 7.92e-25 1
    outer loop
      vertex -0.241073 -1.98542 -2.95229e-17
      vertex 0.309321 -6.21356 3.78809e-17
      vertex 0.709209 -1.87003 8.68531e-17
    endloop
  endfacet
  facet normal -1.22465e-16 7.09391e-26 1
    outer loop
      vertex -0.241073 -1.98542 -2.95229e-17
      vertex -0.309322 -6.21356 -3.7881e-17
      vertex 0.309321 -6.21356 3.78809e-17
    endloop
  endfacet
  facet normal -1.22465e-16 3.39343e-26 1
    outer loop
      vertex -1.13613 -1.64597 -1.39136e-16
      vertex -0.309322 -6.21356 -3.7881e-17
      vertex -0.241073 -1.98542 -2.95229e-17
    endloop
  endfacet
  facet normal -1.22465e-16 1.7062e-24 1
    outer loop
      vertex -3.75 -6 -4.59243e-16
      vertex -0.309322 -6.21356 -3.7881e-17
      vertex -1.13613 -1.64597 -1.39136e-16
    endloop
  endfacet
  facet normal -1.22465e-16 4.59834e-26 1
    outer loop
      vertex -0.309322 -6.21356 -3.7881e-17
      vertex -3.75 -6 -4.59243e-16
      vertex -1.24 -10.8171 -1.51856e-16
    endloop
  endfacet
  facet normal -1.22465e-16 0 1
    outer loop
      vertex -2.53652 -11.9334 -3.10634e-16
      vertex -1.275 -11.25 -1.56142e-16
      vertex -1.275 -11.15 -1.56142e-16
    endloop
  endfacet
  facet normal -1.22465e-16 3.91681e-24 1
    outer loop
      vertex -3.75 -6 -4.59243e-16
      vertex -1.13613 -1.64597 -1.39136e-16
      vertex -1.77091 -0.929446 -2.16874e-16
    endloop
  endfacet
  facet normal -1.22465e-16 0 1
    outer loop
      vertex -3.75 -11.6082 -4.59243e-16
      vertex -1.24 -10.8171 -1.51856e-16
      vertex -3.75 -6 -4.59243e-16
    endloop
  endfacet
  facet normal -1.22465e-16 7.72951e-24 1
    outer loop
      vertex -3.75 -6 -4.59243e-16
      vertex -1.77091 -0.929446 -2.16874e-16
      vertex -2 0 -2.44929e-16
    endloop
  endfacet
  facet normal -1.22465e-16 -3.42312e-23 1
    outer loop
      vertex -2.53652 -11.9334 -3.10634e-16
      vertex -1.24 -10.8171 -1.51856e-16
      vertex -3.75 -11.6082 -4.59243e-16
    endloop
  endfacet
  facet normal -1.22465e-16 -2.49363e-23 1
    outer loop
      vertex -4.5 6 -5.51091e-16
      vertex -1.77091 0.929446 -2.16874e-16
      vertex -3.75 6 -4.59243e-16
    endloop
  endfacet
  facet normal -1.22465e-16 0 1
    outer loop
      vertex -1.24 10.8172 -1.51856e-16
      vertex -3.75 11.6082 -4.59243e-16
      vertex -3.75 6 -4.59243e-16
    endloop
  endfacet
  facet normal -1.22465e-16 -5.68132e-24 1
    outer loop
      vertex -1.77091 0.929446 -2.16874e-16
      vertex -4.5 6 -5.51091e-16
      vertex -2 0 -2.44929e-16
    endloop
  endfacet
  facet normal -1.22465e-16 8.2163e-24 1
    outer loop
      vertex -1.275 -11.25 -1.56142e-16
      vertex -2.53652 -11.9334 -3.10634e-16
      vertex -1.27525 -12.1332 -1.56173e-16
    endloop
  endfacet
  facet normal -1.22465e-16 -3.30824e-23 1
    outer loop
      vertex -1.24 -10.8171 -1.51856e-16
      vertex -2.53652 -11.9334 -3.10634e-16
      vertex -1.275 -11.15 -1.56142e-16
    endloop
  endfacet
  facet normal -1.22465e-16 -5.58658e-24 1
    outer loop
      vertex 2.53652 -11.9334 3.10634e-16
      vertex 1.275 -11.25 1.56142e-16
      vertex 1.27525 -12.1332 1.56173e-16
    endloop
  endfacet
  facet normal -1.22465e-16 -5.58359e-24 1
    outer loop
      vertex 1.275 -11.25 1.56142e-16
      vertex 0 -12.2 0
      vertex 1.27525 -12.1332 1.56173e-16
    endloop
  endfacet
  facet normal -1.22465e-16 1.22241e-24 1
    outer loop
      vertex -1.275 -11.25 -1.56142e-16
      vertex 0 -12.2 0
      vertex 1.275 -11.25 1.56142e-16
    endloop
  endfacet
  facet normal -1.22465e-16 8.2134e-24 1
    outer loop
      vertex 0 -12.2 0
      vertex -1.275 -11.25 -1.56142e-16
      vertex -1.27525 -12.1332 -1.56173e-16
    endloop
  endfacet
  facet normal 0.987688 -0.156434 0
    outer loop
      vertex 15.9438 -3.38896 1.95255e-15
      vertex 16.2107 -1.70381 -2
      vertex 16.2107 -1.70381 1.98524e-15
    endloop
  endfacet
  facet normal 0.987688 -0.156434 0
    outer loop
      vertex 16.2107 -1.70381 -2
      vertex 15.9438 -3.38896 1.95255e-15
      vertex 15.9438 -3.38896 -2
    endloop
  endfacet
  facet normal 0.933581 -0.358368 0
    outer loop
      vertex 15.2285 -5.75 1.86496e-15
      vertex 15.5022 -5.03698 -2
      vertex 15.5022 -5.03698 1.89847e-15
    endloop
  endfacet
  facet normal 0.933581 -0.358368 0
    outer loop
      vertex 15.5022 -5.03698 -2
      vertex 15.2285 -5.75 1.86496e-15
      vertex 15.2285 -5.75 -2
    endloop
  endfacet
  facet normal 0 -1 0
    outer loop
      vertex 10.7438 -5.75 -2
      vertex 15.2285 -5.75 1.86496e-15
      vertex 10.7438 -5.75 1.31574e-15
    endloop
  endfacet
  facet normal 0 -1 -0
    outer loop
      vertex 15.2285 -5.75 1.86496e-15
      vertex 10.7438 -5.75 -2
      vertex 15.2285 -5.75 -2
    endloop
  endfacet
  facet normal 0 -1 0
    outer loop
      vertex -15.2285 -5.75 -2
      vertex -10.7438 -5.75 -1.31574e-15
      vertex -15.2285 -5.75 -1.86496e-15
    endloop
  endfacet
  facet normal 0 -1 -0
    outer loop
      vertex -10.7438 -5.75 -1.31574e-15
      vertex -15.2285 -5.75 -2
      vertex -10.7438 -5.75 -2
    endloop
  endfacet
  facet normal 0 1 -0
    outer loop
      vertex 15.2285 5.75 -2
      vertex 10.7438 5.75 1.31574e-15
      vertex 15.2285 5.75 1.86496e-15
    endloop
  endfacet
  facet normal 0 1 0
    outer loop
      vertex 10.7438 5.75 1.31574e-15
      vertex 15.2285 5.75 -2
      vertex 10.7438 5.75 -2
    endloop
  endfacet
  facet normal 0 1 -0
    outer loop
      vertex -10.7438 5.75 -2
      vertex -15.2285 5.75 -1.86496e-15
      vertex -10.7438 5.75 -1.31574e-15
    endloop
  endfacet
  facet normal 0 1 0
    outer loop
      vertex -15.2285 5.75 -1.86496e-15
      vertex -10.7438 5.75 -2
      vertex -15.2285 5.75 -2
    endloop
  endfacet
  facet normal -0.0523365 0.99863 -6.40937e-18
    outer loop
      vertex 2.44929e-16 12.2 -2
      vertex -1.27525 12.1332 -1.56173e-16
      vertex 0 12.2 0
    endloop
  endfacet
  facet normal -0.0523365 0.99863 0
    outer loop
      vertex -1.27525 12.1332 -1.56173e-16
      vertex 2.44929e-16 12.2 -2
      vertex -1.27525 12.1332 -2
    endloop
  endfacet
  facet normal 0.0523365 -0.99863 6.40937e-18
    outer loop
      vertex 2.44929e-16 -12.2 -2
      vertex 1.27525 -12.1332 1.56173e-16
      vertex 0 -12.2 0
    endloop
  endfacet
  facet normal 0.0523365 -0.99863 0
    outer loop
      vertex 1.27525 -12.1332 1.56173e-16
      vertex 2.44929e-16 -12.2 -2
      vertex 1.27525 -12.1332 -2
    endloop
  endfacet
  facet normal -0.707107 0.707107 0
    outer loop
      vertex -9.06637 8.16339 -2
      vertex -8.16339 9.06637 -9.99727e-16
      vertex -8.16339 9.06637 -2
    endloop
  endfacet
  facet normal -0.707107 0.707107 0
    outer loop
      vertex -8.16339 9.06637 -9.99727e-16
      vertex -9.06637 8.16339 -2
      vertex -9.06637 8.16339 -1.11031e-15
    endloop
  endfacet
  facet normal 0.62932 0.777146 -0
    outer loop
      vertex 8.16339 9.06637 -2
      vertex 7.17098 9.87001 8.78192e-16
      vertex 8.16339 9.06637 9.99727e-16
    endloop
  endfacet
  facet normal 0.62932 0.777146 0
    outer loop
      vertex 7.17098 9.87001 8.78192e-16
      vertex 8.16339 9.06637 -2
      vertex 7.17098 9.87001 -2
    endloop
  endfacet
  facet normal 0.358368 0.93358 -0
    outer loop
      vertex 4.96219 11.1453 -2
      vertex 4.5 11.3227 5.51091e-16
      vertex 4.96219 11.1453 6.07693e-16
    endloop
  endfacet
  facet normal 0.358368 0.93358 0
    outer loop
      vertex 4.5 11.3227 5.51091e-16
      vertex 4.96219 11.1453 -2
      vertex 4.5 11.3227 -2
    endloop
  endfacet
  facet normal -0.891007 0.45399 0
    outer loop
      vertex -10.7438 5.75 -2
      vertex -10.5655 6.1 -1.2939e-15
      vertex -10.5655 6.1 -2
    endloop
  endfacet
  facet normal -0.891007 0.45399 0
    outer loop
      vertex -10.5655 6.1 -1.2939e-15
      vertex -10.7438 5.75 -2
      vertex -10.7438 5.75 -1.31574e-15
    endloop
  endfacet
  facet normal -0.45399 0.891007 0
    outer loop
      vertex -4.96219 11.1453 -2
      vertex -6.1 10.5655 -7.47034e-16
      vertex -4.96219 11.1453 -6.07693e-16
    endloop
  endfacet
  facet normal -0.45399 0.891007 0
    outer loop
      vertex -6.1 10.5655 -7.47034e-16
      vertex -4.96219 11.1453 -2
      vertex -6.1 10.5655 -2
    endloop
  endfacet
  facet normal -0.544639 0.83867 0
    outer loop
      vertex -6.1 10.5655 -2
      vertex -7.17098 9.87001 -8.78192e-16
      vertex -6.1 10.5655 -7.47034e-16
    endloop
  endfacet
  facet normal -0.544639 0.83867 0
    outer loop
      vertex -7.17098 9.87001 -8.78192e-16
      vertex -6.1 10.5655 -2
      vertex -7.17098 9.87001 -2
    endloop
  endfacet
  facet normal 0.83867 0.544639 0
    outer loop
      vertex 10.5655 6.1 1.2939e-15
      vertex 9.87001 7.17098 -2
      vertex 9.87001 7.17098 1.20873e-15
    endloop
  endfacet
  facet normal 0.83867 0.544639 0
    outer loop
      vertex 9.87001 7.17098 -2
      vertex 10.5655 6.1 1.2939e-15
      vertex 10.5655 6.1 -2
    endloop
  endfacet
  facet normal 0.777146 0.62932 0
    outer loop
      vertex 9.87001 7.17098 1.20873e-15
      vertex 9.06637 8.16339 -2
      vertex 9.06637 8.16339 1.11031e-15
    endloop
  endfacet
  facet normal 0.777146 0.62932 0
    outer loop
      vertex 9.06637 8.16339 -2
      vertex 9.87001 7.17098 1.20873e-15
      vertex 9.87001 7.17098 -2
    endloop
  endfacet
  facet normal 0.45399 0.891007 -0
    outer loop
      vertex 6.1 10.5655 -2
      vertex 4.96219 11.1453 6.07693e-16
      vertex 6.1 10.5655 7.47034e-16
    endloop
  endfacet
  facet normal 0.45399 0.891007 0
    outer loop
      vertex 4.96219 11.1453 6.07693e-16
      vertex 6.1 10.5655 -2
      vertex 4.96219 11.1453 -2
    endloop
  endfacet
  facet normal 0.156434 0.987688 -0
    outer loop
      vertex 2.53652 11.9334 -2
      vertex 1.27525 12.1332 1.56173e-16
      vertex 2.53652 11.9334 3.10634e-16
    endloop
  endfacet
  facet normal 0.156434 0.987688 0
    outer loop
      vertex 1.27525 12.1332 1.56173e-16
      vertex 2.53652 11.9334 -2
      vertex 1.27525 12.1332 -2
    endloop
  endfacet
  facet normal -0.891007 -0.45399 0
    outer loop
      vertex -10.5655 -6.1 -2
      vertex -10.7438 -5.75 -1.31574e-15
      vertex -10.7438 -5.75 -2
    endloop
  endfacet
  facet normal -0.891007 -0.45399 0
    outer loop
      vertex -10.7438 -5.75 -1.31574e-15
      vertex -10.5655 -6.1 -2
      vertex -10.5655 -6.1 -1.2939e-15
    endloop
  endfacet
  facet normal -0.258819 -0.965926 0
    outer loop
      vertex -3.75 -11.6082 -2
      vertex -2.53652 -11.9334 -3.10634e-16
      vertex -3.75 -11.6082 -4.59243e-16
    endloop
  endfacet
  facet normal -0.258819 -0.965926 -0
    outer loop
      vertex -2.53652 -11.9334 -3.10634e-16
      vertex -3.75 -11.6082 -2
      vertex -2.53652 -11.9334 -2
    endloop
  endfacet
  facet normal -0.707107 -0.707107 0
    outer loop
      vertex -8.16339 -9.06637 -2
      vertex -9.06637 -8.16339 -1.11031e-15
      vertex -9.06637 -8.16339 -2
    endloop
  endfacet
  facet normal -0.707107 -0.707107 0
    outer loop
      vertex -9.06637 -8.16339 -1.11031e-15
      vertex -8.16339 -9.06637 -2
      vertex -8.16339 -9.06637 -9.99727e-16
    endloop
  endfacet
  facet normal 0.358368 -0.93358 0
    outer loop
      vertex 4.5 -11.3227 -2
      vertex 4.96219 -11.1453 6.07693e-16
      vertex 4.5 -11.3227 5.51091e-16
    endloop
  endfacet
  facet normal 0.358368 -0.93358 0
    outer loop
      vertex 4.96219 -11.1453 6.07693e-16
      vertex 4.5 -11.3227 -2
      vertex 4.96219 -11.1453 -2
    endloop
  endfacet
  facet normal 0.891007 -0.45399 0
    outer loop
      vertex 10.5655 -6.1 1.2939e-15
      vertex 10.7438 -5.75 -2
      vertex 10.7438 -5.75 1.31574e-15
    endloop
  endfacet
  facet normal 0.891007 -0.45399 0
    outer loop
      vertex 10.7438 -5.75 -2
      vertex 10.5655 -6.1 1.2939e-15
      vertex 10.5655 -6.1 -2
    endloop
  endfacet
  facet normal 0.83867 -0.544639 0
    outer loop
      vertex 9.87001 -7.17098 1.20873e-15
      vertex 10.5655 -6.1 -2
      vertex 10.5655 -6.1 1.2939e-15
    endloop
  endfacet
  facet normal 0.83867 -0.544639 0
    outer loop
      vertex 10.5655 -6.1 -2
      vertex 9.87001 -7.17098 1.20873e-15
      vertex 9.87001 -7.17098 -2
    endloop
  endfacet
  facet normal -0.777146 0.62932 0
    outer loop
      vertex -9.87001 7.17098 -2
      vertex -9.06637 8.16339 -1.11031e-15
      vertex -9.06637 8.16339 -2
    endloop
  endfacet
  facet normal -0.777146 0.62932 0
    outer loop
      vertex -9.06637 8.16339 -1.11031e-15
      vertex -9.87001 7.17098 -2
      vertex -9.87001 7.17098 -1.20873e-15
    endloop
  endfacet
  facet normal -0.83867 0.544639 0
    outer loop
      vertex -10.5655 6.1 -2
      vertex -9.87001 7.17098 -1.20873e-15
      vertex -9.87001 7.17098 -2
    endloop
  endfacet
  facet normal -0.83867 0.544639 0
    outer loop
      vertex -9.87001 7.17098 -1.20873e-15
      vertex -10.5655 6.1 -2
      vertex -10.5655 6.1 -1.2939e-15
    endloop
  endfacet
  facet normal -0.258819 0.965926 0
    outer loop
      vertex -2.53652 11.9334 -2
      vertex -3.75 11.6082 -4.59243e-16
      vertex -2.53652 11.9334 -3.10634e-16
    endloop
  endfacet
  facet normal -0.258819 0.965926 0
    outer loop
      vertex -3.75 11.6082 -4.59243e-16
      vertex -2.53652 11.9334 -2
      vertex -3.75 11.6082 -2
    endloop
  endfacet
  facet normal -0.358368 0.93358 0
    outer loop
      vertex -4.5 11.3227 -2
      vertex -4.96219 11.1453 -6.07693e-16
      vertex -4.5 11.3227 -5.51091e-16
    endloop
  endfacet
  facet normal -0.358368 0.93358 0
    outer loop
      vertex -4.96219 11.1453 -6.07693e-16
      vertex -4.5 11.3227 -2
      vertex -4.96219 11.1453 -2
    endloop
  endfacet
  facet normal -0.156434 0.987688 0
    outer loop
      vertex -1.27525 12.1332 -2
      vertex -2.53652 11.9334 -3.10634e-16
      vertex -1.27525 12.1332 -1.56173e-16
    endloop
  endfacet
  facet normal -0.156434 0.987688 0
    outer loop
      vertex -2.53652 11.9334 -3.10634e-16
      vertex -1.27525 12.1332 -2
      vertex -2.53652 11.9334 -2
    endloop
  endfacet
  facet normal -0.62932 0.777146 0
    outer loop
      vertex -7.17098 9.87001 -2
      vertex -8.16339 9.06637 -9.99727e-16
      vertex -7.17098 9.87001 -8.78192e-16
    endloop
  endfacet
  facet normal -0.62932 0.777146 0
    outer loop
      vertex -8.16339 9.06637 -9.99727e-16
      vertex -7.17098 9.87001 -2
      vertex -8.16339 9.06637 -2
    endloop
  endfacet
  facet normal 0.707107 0.707107 0
    outer loop
      vertex 9.06637 8.16339 1.11031e-15
      vertex 8.16339 9.06637 -2
      vertex 8.16339 9.06637 9.99727e-16
    endloop
  endfacet
  facet normal 0.707107 0.707107 0
    outer loop
      vertex 8.16339 9.06637 -2
      vertex 9.06637 8.16339 1.11031e-15
      vertex 9.06637 8.16339 -2
    endloop
  endfacet
  facet normal 0.891007 0.45399 0
    outer loop
      vertex 10.7438 5.75 1.31574e-15
      vertex 10.5655 6.1 -2
      vertex 10.5655 6.1 1.2939e-15
    endloop
  endfacet
  facet normal 0.891007 0.45399 0
    outer loop
      vertex 10.5655 6.1 -2
      vertex 10.7438 5.75 1.31574e-15
      vertex 10.7438 5.75 -2
    endloop
  endfacet
  facet normal 0.544639 0.83867 -0
    outer loop
      vertex 7.17098 9.87001 -2
      vertex 6.1 10.5655 7.47034e-16
      vertex 7.17098 9.87001 8.78192e-16
    endloop
  endfacet
  facet normal 0.544639 0.83867 0
    outer loop
      vertex 6.1 10.5655 7.47034e-16
      vertex 7.17098 9.87001 -2
      vertex 6.1 10.5655 -2
    endloop
  endfacet
  facet normal 0.0523365 0.99863 -0
    outer loop
      vertex 1.27525 12.1332 -2
      vertex 0 12.2 0
      vertex 1.27525 12.1332 1.56173e-16
    endloop
  endfacet
  facet normal 0.0523365 0.99863 6.40937e-18
    outer loop
      vertex 0 12.2 0
      vertex 1.27525 12.1332 -2
      vertex 2.44929e-16 12.2 -2
    endloop
  endfacet
  facet normal -0.0523365 -0.99863 0
    outer loop
      vertex -1.27525 -12.1332 -2
      vertex 0 -12.2 0
      vertex -1.27525 -12.1332 -1.56173e-16
    endloop
  endfacet
  facet normal -0.0523365 -0.99863 -6.40937e-18
    outer loop
      vertex 0 -12.2 0
      vertex -1.27525 -12.1332 -2
      vertex 2.44929e-16 -12.2 -2
    endloop
  endfacet
  facet normal -0.45399 -0.891007 0
    outer loop
      vertex -6.1 -10.5655 -2
      vertex -4.96219 -11.1453 -6.07693e-16
      vertex -6.1 -10.5655 -7.47034e-16
    endloop
  endfacet
  facet normal -0.45399 -0.891007 -0
    outer loop
      vertex -4.96219 -11.1453 -6.07693e-16
      vertex -6.1 -10.5655 -2
      vertex -4.96219 -11.1453 -2
    endloop
  endfacet
  facet normal -0.62932 -0.777146 0
    outer loop
      vertex -8.16339 -9.06637 -2
      vertex -7.17098 -9.87001 -8.78192e-16
      vertex -8.16339 -9.06637 -9.99727e-16
    endloop
  endfacet
  facet normal -0.62932 -0.777146 -0
    outer loop
      vertex -7.17098 -9.87001 -8.78192e-16
      vertex -8.16339 -9.06637 -2
      vertex -7.17098 -9.87001 -2
    endloop
  endfacet
  facet normal -0.777146 -0.62932 0
    outer loop
      vertex -9.06637 -8.16339 -2
      vertex -9.87001 -7.17098 -1.20873e-15
      vertex -9.87001 -7.17098 -2
    endloop
  endfacet
  facet normal -0.777146 -0.62932 0
    outer loop
      vertex -9.87001 -7.17098 -1.20873e-15
      vertex -9.06637 -8.16339 -2
      vertex -9.06637 -8.16339 -1.11031e-15
    endloop
  endfacet
  facet normal -0.83867 -0.544639 0
    outer loop
      vertex -9.87001 -7.17098 -2
      vertex -10.5655 -6.1 -1.2939e-15
      vertex -10.5655 -6.1 -2
    endloop
  endfacet
  facet normal -0.83867 -0.544639 0
    outer loop
      vertex -10.5655 -6.1 -1.2939e-15
      vertex -9.87001 -7.17098 -2
      vertex -9.87001 -7.17098 -1.20873e-15
    endloop
  endfacet
  facet normal 0.707107 -0.707107 0
    outer loop
      vertex 8.16339 -9.06637 9.99727e-16
      vertex 9.06637 -8.16339 -2
      vertex 9.06637 -8.16339 1.11031e-15
    endloop
  endfacet
  facet normal 0.707107 -0.707107 0
    outer loop
      vertex 9.06637 -8.16339 -2
      vertex 8.16339 -9.06637 9.99727e-16
      vertex 8.16339 -9.06637 -2
    endloop
  endfacet
  facet normal 0.62932 -0.777146 0
    outer loop
      vertex 7.17098 -9.87001 -2
      vertex 8.16339 -9.06637 9.99727e-16
      vertex 7.17098 -9.87001 8.78192e-16
    endloop
  endfacet
  facet normal 0.62932 -0.777146 0
    outer loop
      vertex 8.16339 -9.06637 9.99727e-16
      vertex 7.17098 -9.87001 -2
      vertex 8.16339 -9.06637 -2
    endloop
  endfacet
  facet normal 0.544639 -0.83867 0
    outer loop
      vertex 6.1 -10.5655 -2
      vertex 7.17098 -9.87001 8.78192e-16
      vertex 6.1 -10.5655 7.47034e-16
    endloop
  endfacet
  facet normal 0.544639 -0.83867 0
    outer loop
      vertex 7.17098 -9.87001 8.78192e-16
      vertex 6.1 -10.5655 -2
      vertex 7.17098 -9.87001 -2
    endloop
  endfacet
  facet normal 0.156434 -0.987688 0
    outer loop
      vertex 1.27525 -12.1332 -2
      vertex 2.53652 -11.9334 3.10634e-16
      vertex 1.27525 -12.1332 1.56173e-16
    endloop
  endfacet
  facet normal 0.156434 -0.987688 0
    outer loop
      vertex 2.53652 -11.9334 3.10634e-16
      vertex 1.27525 -12.1332 -2
      vertex 2.53652 -11.9334 -2
    endloop
  endfacet
  facet normal 0.777146 -0.62932 0
    outer loop
      vertex 9.06637 -8.16339 1.11031e-15
      vertex 9.87001 -7.17098 -2
      vertex 9.87001 -7.17098 1.20873e-15
    endloop
  endfacet
  facet normal 0.777146 -0.62932 0
    outer loop
      vertex 9.87001 -7.17098 -2
      vertex 9.06637 -8.16339 1.11031e-15
      vertex 9.06637 -8.16339 -2
    endloop
  endfacet
  facet normal 0.258819 0.965926 -0
    outer loop
      vertex 3.75 11.6082 -2
      vertex 2.53652 11.9334 3.10634e-16
      vertex 3.75 11.6082 4.59243e-16
    endloop
  endfacet
  facet normal 0.258819 0.965926 0
    outer loop
      vertex 2.53652 11.9334 3.10634e-16
      vertex 3.75 11.6082 -2
      vertex 2.53652 11.9334 -2
    endloop
  endfacet
  facet normal -0.156434 -0.987688 0
    outer loop
      vertex -2.53652 -11.9334 -2
      vertex -1.27525 -12.1332 -1.56173e-16
      vertex -2.53652 -11.9334 -3.10634e-16
    endloop
  endfacet
  facet normal -0.156434 -0.987688 -0
    outer loop
      vertex -1.27525 -12.1332 -1.56173e-16
      vertex -2.53652 -11.9334 -2
      vertex -1.27525 -12.1332 -2
    endloop
  endfacet
  facet normal -0.358368 -0.93358 0
    outer loop
      vertex -4.96219 -11.1453 -2
      vertex -4.5 -11.3227 -5.51091e-16
      vertex -4.96219 -11.1453 -6.07693e-16
    endloop
  endfacet
  facet normal -0.358368 -0.93358 -0
    outer loop
      vertex -4.5 -11.3227 -5.51091e-16
      vertex -4.96219 -11.1453 -2
      vertex -4.5 -11.3227 -2
    endloop
  endfacet
  facet normal -0.544639 -0.83867 0
    outer loop
      vertex -7.17098 -9.87001 -2
      vertex -6.1 -10.5655 -7.47034e-16
      vertex -7.17098 -9.87001 -8.78192e-16
    endloop
  endfacet
  facet normal -0.544639 -0.83867 -0
    outer loop
      vertex -6.1 -10.5655 -7.47034e-16
      vertex -7.17098 -9.87001 -2
      vertex -6.1 -10.5655 -2
    endloop
  endfacet
  facet normal 0.45399 -0.891007 0
    outer loop
      vertex 4.96219 -11.1453 -2
      vertex 6.1 -10.5655 7.47034e-16
      vertex 4.96219 -11.1453 6.07693e-16
    endloop
  endfacet
  facet normal 0.45399 -0.891007 0
    outer loop
      vertex 6.1 -10.5655 7.47034e-16
      vertex 4.96219 -11.1453 -2
      vertex 6.1 -10.5655 -2
    endloop
  endfacet
  facet normal 0.258819 -0.965926 0
    outer loop
      vertex 2.53652 -11.9334 -2
      vertex 3.75 -11.6082 4.59243e-16
      vertex 2.53652 -11.9334 3.10634e-16
    endloop
  endfacet
  facet normal 0.258819 -0.965926 0
    outer loop
      vertex 3.75 -11.6082 4.59243e-16
      vertex 2.53652 -11.9334 -2
      vertex 3.75 -11.6082 -2
    endloop
  endfacet
  facet normal 0.84004 -0 0.542525
    outer loop
      vertex 0.5 11.15 1.25
      vertex 1.275 11.25 0.0499992
      vertex 0.5 11.25 1.25
    endloop
  endfacet
  facet normal 0.84004 0 0.542525
    outer loop
      vertex 1.275 11.25 0.0499992
      vertex 0.5 11.15 1.25
      vertex 1.275 11.15 0.0499992
    endloop
  endfacet
  facet normal 0.828182 -0.167428 0.534867
    outer loop
      vertex 0.5 11.15 1.25
      vertex 1.24 10.8171 1.51856e-16
      vertex 1.275 11.15 0.0499992
    endloop
  endfacet
  facet normal 0.828182 -0.167428 0.534867
    outer loop
      vertex 1.24 10.8171 1.51856e-16
      vertex 0.5 11.15 1.25
      vertex 0.309322 6.21356 3.7881e-17
    endloop
  endfacet
  facet normal 0.994517 -0.104574 0
    outer loop
      vertex 1.275 11.15 1.56142e-16
      vertex 1.275 11.15 0.0499992
      vertex 1.24 10.8171 1.51856e-16
    endloop
  endfacet
  facet normal -0.994517 -0.104574 0
    outer loop
      vertex -1.275 11.15 -1.56142e-16
      vertex -1.24 10.8172 -1.51856e-16
      vertex -1.275 11.15 0.0499983
    endloop
  endfacet
  facet normal 0 1 0
    outer loop
      vertex 1.275 11.25 0.0499992
      vertex -0.499999 11.25 1.25
      vertex 0.5 11.25 1.25
    endloop
  endfacet
  facet normal 0 1 0
    outer loop
      vertex 1.275 11.25 0.0499992
      vertex -1.275 11.25 0.0499983
      vertex -0.499999 11.25 1.25
    endloop
  endfacet
  facet normal 0 1 -0
    outer loop
      vertex 1.275 11.25 1.56142e-16
      vertex -1.275 11.25 0.0499983
      vertex 1.275 11.25 0.0499992
    endloop
  endfacet
  facet normal 0 1 0
    outer loop
      vertex -1.275 11.25 0.0499983
      vertex 1.275 11.25 1.56142e-16
      vertex -1.275 11.25 -1.56142e-16
    endloop
  endfacet
  facet normal -0 0 1
    outer loop
      vertex -0.499999 11.25 1.25
      vertex 0.5 11.15 1.25
      vertex 0.5 11.25 1.25
    endloop
  endfacet
  facet normal 0 0 1
    outer loop
      vertex 0.5 11.15 1.25
      vertex -0.499999 11.25 1.25
      vertex -0.499999 11.15 1.25
    endloop
  endfacet
  facet normal 1 -0 0
    outer loop
      vertex 1.275 11.15 0.0499992
      vertex 1.275 11.25 1.56142e-16
      vertex 1.275 11.25 0.0499992
    endloop
  endfacet
  facet normal 1 0 0
    outer loop
      vertex 1.275 11.25 1.56142e-16
      vertex 1.275 11.15 0.0499992
      vertex 1.275 11.15 1.56142e-16
    endloop
  endfacet
  facet normal -0.84004 0 0.542525
    outer loop
      vertex -1.275 11.15 0.0499983
      vertex -0.499999 11.25 1.25
      vertex -1.275 11.25 0.0499983
    endloop
  endfacet
  facet normal -0.84004 0 0.542525
    outer loop
      vertex -0.499999 11.25 1.25
      vertex -1.275 11.15 0.0499983
      vertex -0.499999 11.15 1.25
    endloop
  endfacet
  facet normal -1 0 0
    outer loop
      vertex -1.275 11.15 -1.56142e-16
      vertex -1.275 11.25 0.0499983
      vertex -1.275 11.25 -1.56142e-16
    endloop
  endfacet
  facet normal -1 -0 0
    outer loop
      vertex -1.275 11.25 0.0499983
      vertex -1.275 11.15 -1.56142e-16
      vertex -1.275 11.15 0.0499983
    endloop
  endfacet
  facet normal -0.828182 -0.167428 0.534867
    outer loop
      vertex -1.24 10.8172 -1.51856e-16
      vertex -0.499999 11.15 1.25
      vertex -1.275 11.15 0.0499983
    endloop
  endfacet
  facet normal -0.828182 -0.167428 0.534867
    outer loop
      vertex -0.499999 11.15 1.25
      vertex -1.24 10.8172 -1.51856e-16
      vertex -0.309321 6.21356 -3.78809e-17
    endloop
  endfacet
  facet normal 0 -0.245471 0.969404
    outer loop
      vertex 0.5 11.15 1.25
      vertex -0.309321 6.21356 -3.78809e-17
      vertex 0.309322 6.21356 3.7881e-17
    endloop
  endfacet
  facet normal 0 -0.245471 0.969404
    outer loop
      vertex -0.309321 6.21356 -3.78809e-17
      vertex 0.5 11.15 1.25
      vertex -0.499999 11.15 1.25
    endloop
  endfacet
  facet normal -0.828182 0.167428 0.534867
    outer loop
      vertex -0.5 -11.15 1.25
      vertex -1.24 -10.8171 -1.51856e-16
      vertex -1.275 -11.15 0.0499992
    endloop
  endfacet
  facet normal -0.828182 0.167428 0.534867
    outer loop
      vertex -1.24 -10.8171 -1.51856e-16
      vertex -0.5 -11.15 1.25
      vertex -0.309322 -6.21356 -3.7881e-17
    endloop
  endfacet
  facet normal 0.994517 0.104574 0
    outer loop
      vertex 1.24 -10.8172 1.51856e-16
      vertex 1.275 -11.15 0.0499983
      vertex 1.275 -11.15 1.56142e-16
    endloop
  endfacet
  facet normal -0.994517 0.104574 0
    outer loop
      vertex -1.275 -11.15 0.0499992
      vertex -1.24 -10.8171 -1.51856e-16
      vertex -1.275 -11.15 -1.56142e-16
    endloop
  endfacet
  facet normal -0 0 1
    outer loop
      vertex -0.5 -11.15 1.25
      vertex 0.499999 -11.25 1.25
      vertex 0.499999 -11.15 1.25
    endloop
  endfacet
  facet normal 0 0 1
    outer loop
      vertex 0.499999 -11.25 1.25
      vertex -0.5 -11.15 1.25
      vertex -0.5 -11.25 1.25
    endloop
  endfacet
  facet normal -0.84004 0 0.542525
    outer loop
      vertex -1.275 -11.25 0.0499992
      vertex -0.5 -11.15 1.25
      vertex -1.275 -11.15 0.0499992
    endloop
  endfacet
  facet normal -0.84004 0 0.542525
    outer loop
      vertex -0.5 -11.15 1.25
      vertex -1.275 -11.25 0.0499992
      vertex -0.5 -11.25 1.25
    endloop
  endfacet
  facet normal -1 0 0
    outer loop
      vertex -1.275 -11.25 -1.56142e-16
      vertex -1.275 -11.15 0.0499992
      vertex -1.275 -11.15 -1.56142e-16
    endloop
  endfacet
  facet normal -1 -0 0
    outer loop
      vertex -1.275 -11.15 0.0499992
      vertex -1.275 -11.25 -1.56142e-16
      vertex -1.275 -11.25 0.0499992
    endloop
  endfacet
  facet normal 0.84004 -0 0.542525
    outer loop
      vertex 0.499999 -11.25 1.25
      vertex 1.275 -11.15 0.0499983
      vertex 0.499999 -11.15 1.25
    endloop
  endfacet
  facet normal 0.84004 0 0.542525
    outer loop
      vertex 1.275 -11.15 0.0499983
      vertex 0.499999 -11.25 1.25
      vertex 1.275 -11.25 0.0499983
    endloop
  endfacet
  facet normal 0 -1 0
    outer loop
      vertex -1.275 -11.25 0.0499992
      vertex 0.499999 -11.25 1.25
      vertex -0.5 -11.25 1.25
    endloop
  endfacet
  facet normal 0 -1 0
    outer loop
      vertex -1.275 -11.25 0.0499992
      vertex 1.275 -11.25 0.0499983
      vertex 0.499999 -11.25 1.25
    endloop
  endfacet
  facet normal 0 -1 0
    outer loop
      vertex -1.275 -11.25 0.0499992
      vertex 1.275 -11.25 1.56142e-16
      vertex 1.275 -11.25 0.0499983
    endloop
  endfacet
  facet normal -0 -1 0
    outer loop
      vertex 1.275 -11.25 1.56142e-16
      vertex -1.275 -11.25 0.0499992
      vertex -1.275 -11.25 -1.56142e-16
    endloop
  endfacet
  facet normal 1 -0 0
    outer loop
      vertex 1.275 -11.25 0.0499983
      vertex 1.275 -11.15 1.56142e-16
      vertex 1.275 -11.15 0.0499983
    endloop
  endfacet
  facet normal 1 0 0
    outer loop
      vertex 1.275 -11.15 1.56142e-16
      vertex 1.275 -11.25 0.0499983
      vertex 1.275 -11.25 1.56142e-16
    endloop
  endfacet
  facet normal 0.828182 0.167428 0.534867
    outer loop
      vertex 0.499999 -11.15 1.25
      vertex 1.24 -10.8172 1.51856e-16
      vertex 0.309321 -6.21356 3.78809e-17
    endloop
  endfacet
  facet normal 0.828182 0.167428 0.534867
    outer loop
      vertex 1.24 -10.8172 1.51856e-16
      vertex 0.499999 -11.15 1.25
      vertex 1.275 -11.15 0.0499983
    endloop
  endfacet
  facet normal -1.18718e-16 0.245471 0.969404
    outer loop
      vertex -0.309322 -6.21356 -3.7881e-17
      vertex 0.499999 -11.15 1.25
      vertex 0.309321 -6.21356 3.78809e-17
    endloop
  endfacet
  facet normal 0 0.245471 0.969404
    outer loop
      vertex 0.499999 -11.15 1.25
      vertex -0.309322 -6.21356 -3.7881e-17
      vertex -0.5 -11.15 1.25
    endloop
  endfacet
  facet normal -1 0 0
    outer loop
      vertex 4.5 6 -2
      vertex 4.5 11.3227 5.51091e-16
      vertex 4.5 11.3227 -2
    endloop
  endfacet
  facet normal -1 -0 0
    outer loop
      vertex 4.5 11.3227 5.51091e-16
      vertex 4.5 6 -2
      vertex 4.5 6 5.51091e-16
    endloop
  endfacet
  facet normal -1 0 0
    outer loop
      vertex 4.5 -11.3227 -2
      vertex 4.5 -6 5.51091e-16
      vertex 4.5 -6 -2
    endloop
  endfacet
  facet normal -1 -0 0
    outer loop
      vertex 4.5 -6 5.51091e-16
      vertex 4.5 -11.3227 -2
      vertex 4.5 -11.3227 5.51091e-16
    endloop
  endfacet
  facet normal 1 -0 0
    outer loop
      vertex -4.5 -11.3227 -5.51091e-16
      vertex -4.5 -6 -2
      vertex -4.5 -6 -5.51091e-16
    endloop
  endfacet
  facet normal 1 0 0
    outer loop
      vertex -4.5 -6 -2
      vertex -4.5 -11.3227 -5.51091e-16
      vertex -4.5 -11.3227 -2
    endloop
  endfacet
  facet normal 1 -0 0
    outer loop
      vertex -4.5 6 -5.51091e-16
      vertex -4.5 11.3227 -2
      vertex -4.5 11.3227 -5.51091e-16
    endloop
  endfacet
  facet normal 1 0 0
    outer loop
      vertex -4.5 11.3227 -2
      vertex -4.5 6 -5.51091e-16
      vertex -4.5 6 -2
    endloop
  endfacet
  facet normal 1 -0 0
    outer loop
      vertex 3.75 6 4.59243e-16
      vertex 3.75 11.6082 -2
      vertex 3.75 11.6082 4.59243e-16
    endloop
  endfacet
  facet normal 1 0 0
    outer loop
      vertex 3.75 11.6082 -2
      vertex 3.75 6 4.59243e-16
      vertex 3.75 6 -2
    endloop
  endfacet
  facet normal 1 -0 0
    outer loop
      vertex 3.75 -11.6082 4.59243e-16
      vertex 3.75 -6 -2
      vertex 3.75 -6 4.59243e-16
    endloop
  endfacet
  facet normal 1 0 0
    outer loop
      vertex 3.75 -6 -2
      vertex 3.75 -11.6082 4.59243e-16
      vertex 3.75 -11.6082 -2
    endloop
  endfacet
  facet normal -1 0 0
    outer loop
      vertex -3.75 -11.6082 -2
      vertex -3.75 -6 -4.59243e-16
      vertex -3.75 -6 -2
    endloop
  endfacet
  facet normal -1 -0 0
    outer loop
      vertex -3.75 -6 -4.59243e-16
      vertex -3.75 -11.6082 -2
      vertex -3.75 -11.6082 -4.59243e-16
    endloop
  endfacet
  facet normal -1 0 0
    outer loop
      vertex -3.75 6 -2
      vertex -3.75 11.6082 -4.59243e-16
      vertex -3.75 11.6082 -2
    endloop
  endfacet
  facet normal -1 -0 0
    outer loop
      vertex -3.75 11.6082 -4.59243e-16
      vertex -3.75 6 -2
      vertex -3.75 6 -4.59243e-16
    endloop
  endfacet
  facet normal 0 -1 0
    outer loop
      vertex 3.75 -6 -2
      vertex 4.5 -6 5.51091e-16
      vertex 3.75 -6 4.59243e-16
    endloop
  endfacet
  facet normal 0 -1 -0
    outer loop
      vertex 4.5 -6 5.51091e-16
      vertex 3.75 -6 -2
      vertex 4.5 -6 -2
    endloop
  endfacet
  facet normal 0 -1 0
    outer loop
      vertex -4.5 -6 -2
      vertex -3.75 -6 -4.59243e-16
      vertex -4.5 -6 -5.51091e-16
    endloop
  endfacet
  facet normal 0 -1 -0
    outer loop
      vertex -3.75 -6 -4.59243e-16
      vertex -4.5 -6 -2
      vertex -3.75 -6 -2
    endloop
  endfacet
  facet normal 0 1 -0
    outer loop
      vertex 4.5 6 -2
      vertex 3.75 6 4.59243e-16
      vertex 4.5 6 5.51091e-16
    endloop
  endfacet
  facet normal 0 1 0
    outer loop
      vertex 3.75 6 4.59243e-16
      vertex 4.5 6 -2
      vertex 3.75 6 -2
    endloop
  endfacet
  facet normal 0 1 -0
    outer loop
      vertex -3.75 6 -2
      vertex -4.5 6 -5.51091e-16
      vertex -3.75 6 -4.59243e-16
    endloop
  endfacet
  facet normal 0 1 0
    outer loop
      vertex -4.5 6 -5.51091e-16
      vertex -3.75 6 -2
      vertex -4.5 6 -2
    endloop
  endfacet
  facet normal 0.970942 -0.239317 0
    outer loop
      vertex -2 0 -2.44929e-16
      vertex -1.77091 0.929446 -2
      vertex -1.77091 0.929446 -2.16874e-16
    endloop
  endfacet
  facet normal 0.970942 -0.239317 0
    outer loop
      vertex -1.77091 0.929446 -2
      vertex -2 0 -2.44929e-16
      vertex -2 0 -2
    endloop
  endfacet
  facet normal -1 0 0
    outer loop
      vertex 1.94188 -0.478631 -2
      vertex 1.94188 0.478631 2.37812e-16
      vertex 1.94188 0.478631 -2
    endloop
  endfacet
  facet normal -1 -0 0
    outer loop
      vertex 1.94188 0.478631 2.37812e-16
      vertex 1.94188 -0.478631 -2
      vertex 1.94188 -0.478631 2.37812e-16
    endloop
  endfacet
  facet normal -0.120537 -0.992709 0
    outer loop
      vertex -0.241073 1.98542 -2
      vertex 0.709209 1.87003 8.68531e-17
      vertex -0.241073 1.98542 -2.95229e-17
    endloop
  endfacet
  facet normal -0.120537 -0.992709 -0
    outer loop
      vertex 0.709209 1.87003 8.68531e-17
      vertex -0.241073 1.98542 -2
      vertex 0.709209 1.87003 -2
    endloop
  endfacet
  facet normal 0.748511 -0.663122 0
    outer loop
      vertex -1.77091 0.929446 -2.16874e-16
      vertex -1.13613 1.64597 -2
      vertex -1.13613 1.64597 -1.39136e-16
    endloop
  endfacet
  facet normal 0.748511 -0.663122 0
    outer loop
      vertex -1.13613 1.64597 -2
      vertex -1.77091 0.929446 -2.16874e-16
      vertex -1.77091 0.929446 -2
    endloop
  endfacet
  facet normal 0.970942 0.239317 0
    outer loop
      vertex -1.77091 -0.929446 -2.16874e-16
      vertex -2 0 -2
      vertex -2 0 -2.44929e-16
    endloop
  endfacet
  facet normal 0.970942 0.239317 0
    outer loop
      vertex -2 0 -2
      vertex -1.77091 -0.929446 -2.16874e-16
      vertex -1.77091 -0.929446 -2
    endloop
  endfacet
  facet normal 0.354605 -0.935016 0
    outer loop
      vertex -1.13613 1.64597 -2
      vertex -0.241073 1.98542 -2.95229e-17
      vertex -1.13613 1.64597 -1.39136e-16
    endloop
  endfacet
  facet normal 0.354605 -0.935016 0
    outer loop
      vertex -0.241073 1.98542 -2.95229e-17
      vertex -1.13613 1.64597 -2
      vertex -0.241073 1.98542 -2
    endloop
  endfacet
  facet normal -0.568065 -0.822984 0
    outer loop
      vertex 0.709209 1.87003 -2
      vertex 1.49702 1.32625 1.83332e-16
      vertex 0.709209 1.87003 8.68531e-17
    endloop
  endfacet
  facet normal -0.568065 -0.822984 -0
    outer loop
      vertex 1.49702 1.32625 1.83332e-16
      vertex 0.709209 1.87003 -2
      vertex 1.49702 1.32625 -2
    endloop
  endfacet
  facet normal -0.885456 -0.464723 0
    outer loop
      vertex 1.94188 0.478631 -2
      vertex 1.49702 1.32625 1.83332e-16
      vertex 1.49702 1.32625 -2
    endloop
  endfacet
  facet normal -0.885456 -0.464723 0
    outer loop
      vertex 1.49702 1.32625 1.83332e-16
      vertex 1.94188 0.478631 -2
      vertex 1.94188 0.478631 2.37812e-16
    endloop
  endfacet
  facet normal -0.885456 0.464723 0
    outer loop
      vertex 1.49702 -1.32625 -2
      vertex 1.94188 -0.478631 2.37812e-16
      vertex 1.94188 -0.478631 -2
    endloop
  endfacet
  facet normal -0.885456 0.464723 0
    outer loop
      vertex 1.94188 -0.478631 2.37812e-16
      vertex 1.49702 -1.32625 -2
      vertex 1.49702 -1.32625 1.83332e-16
    endloop
  endfacet
  facet normal 0.354605 0.935016 -0
    outer loop
      vertex -0.241073 -1.98542 -2
      vertex -1.13613 -1.64597 -1.39136e-16
      vertex -0.241073 -1.98542 -2.95229e-17
    endloop
  endfacet
  facet normal 0.354605 0.935016 0
    outer loop
      vertex -1.13613 -1.64597 -1.39136e-16
      vertex -0.241073 -1.98542 -2
      vertex -1.13613 -1.64597 -2
    endloop
  endfacet
  facet normal -0.568065 0.822984 0
    outer loop
      vertex 1.49702 -1.32625 -2
      vertex 0.709209 -1.87003 8.68531e-17
      vertex 1.49702 -1.32625 1.83332e-16
    endloop
  endfacet
  facet normal -0.568065 0.822984 0
    outer loop
      vertex 0.709209 -1.87003 8.68531e-17
      vertex 1.49702 -1.32625 -2
      vertex 0.709209 -1.87003 -2
    endloop
  endfacet
  facet normal 0.748511 0.663122 0
    outer loop
      vertex -1.13613 -1.64597 -1.39136e-16
      vertex -1.77091 -0.929446 -2
      vertex -1.77091 -0.929446 -2.16874e-16
    endloop
  endfacet
  facet normal 0.748511 0.663122 0
    outer loop
      vertex -1.77091 -0.929446 -2
      vertex -1.13613 -1.64597 -1.39136e-16
      vertex -1.13613 -1.64597 -2
    endloop
  endfacet
  facet normal -0.120537 0.992709 0
    outer loop
      vertex 0.709209 -1.87003 -2
      vertex -0.241073 -1.98542 -2.95229e-17
      vertex 0.709209 -1.87003 8.68531e-17
    endloop
  endfacet
  facet normal -0.120537 0.992709 0
    outer loop
      vertex -0.241073 -1.98542 -2.95229e-17
      vertex 0.709209 -1.87003 -2
      vertex -0.241073 -1.98542 -2
    endloop
  endfacet
endsolid OpenSCAD_Model
