solid OpenSCAD_Model
  facet normal 0.933581 0.358368 0
    outer loop
      vertex 15.5022 5.03698 5
      vertex 15.2285 5.75 3
      vertex 15.2285 5.75 5
    endloop
  endfacet
  facet normal 0.933581 0.358368 0
    outer loop
      vertex 15.2285 5.75 3
      vertex 15.5022 5.03698 5
      vertex 15.5022 5.03698 3
    endloop
  endfacet
  facet normal -0.933581 0.358368 0
    outer loop
      vertex -15.5022 5.03698 3
      vertex -15.2285 5.75 5
      vertex -15.2285 5.75 3
    endloop
  endfacet
  facet normal -0.933581 0.358368 0
    outer loop
      vertex -15.2285 5.75 5
      vertex -15.5022 5.03698 3
      vertex -15.5022 5.03698 5
    endloop
  endfacet
  facet normal -0.99863 0.0523356 0
    outer loop
      vertex -16.3 0 3
      vertex -16.2107 1.70381 5
      vertex -16.2107 1.70381 3
    endloop
  endfacet
  facet normal -0.99863 0.0523356 0
    outer loop
      vertex -16.2107 1.70381 5
      vertex -16.3 0 3
      vertex -16.3 0 5
    endloop
  endfacet
  facet normal -0.987688 0.156434 0
    outer loop
      vertex -16.2107 1.70381 3
      vertex -15.9438 3.38896 5
      vertex -15.9438 3.38896 3
    endloop
  endfacet
  facet normal -0.987688 0.156434 0
    outer loop
      vertex -15.9438 3.38896 5
      vertex -16.2107 1.70381 3
      vertex -16.2107 1.70381 5
    endloop
  endfacet
  facet normal 0.987688 0.156434 0
    outer loop
      vertex 16.2107 1.70381 5
      vertex 15.9438 3.38896 3
      vertex 15.9438 3.38896 5
    endloop
  endfacet
  facet normal 0.987688 0.156434 0
    outer loop
      vertex 15.9438 3.38896 3
      vertex 16.2107 1.70381 5
      vertex 16.2107 1.70381 3
    endloop
  endfacet
  facet normal 0.965926 0.258819 0
    outer loop
      vertex 15.9438 3.38896 5
      vertex 15.5022 5.03698 3
      vertex 15.5022 5.03698 5
    endloop
  endfacet
  facet normal 0.965926 0.258819 0
    outer loop
      vertex 15.5022 5.03698 3
      vertex 15.9438 3.38896 5
      vertex 15.9438 3.38896 3
    endloop
  endfacet
  facet normal -0.965926 0.258819 0
    outer loop
      vertex -15.9438 3.38896 3
      vertex -15.5022 5.03698 5
      vertex -15.5022 5.03698 3
    endloop
  endfacet
  facet normal -0.965926 0.258819 0
    outer loop
      vertex -15.5022 5.03698 5
      vertex -15.9438 3.38896 3
      vertex -15.9438 3.38896 5
    endloop
  endfacet
  facet normal -0 0 1
    outer loop
      vertex -4.96219 11.1453 5
      vertex -4.5 5 5
      vertex -4.5 11.3227 5
    endloop
  endfacet
  facet normal -0 0 1
    outer loop
      vertex -7.17098 9.87001 5
      vertex -4.5 5 5
      vertex -6.1 10.5655 5
    endloop
  endfacet
  facet normal 0 0 1
    outer loop
      vertex -4.5 5 5
      vertex -4.96219 11.1453 5
      vertex -6.1 10.5655 5
    endloop
  endfacet
  facet normal -0 0 1
    outer loop
      vertex -8.16339 9.06637 5
      vertex -4.5 5 5
      vertex -7.17098 9.87001 5
    endloop
  endfacet
  facet normal 0 -0 1
    outer loop
      vertex -4.96219 -11.1453 5
      vertex -4.5 -5 5
      vertex -6.1 -10.5655 5
    endloop
  endfacet
  facet normal 0 0 1
    outer loop
      vertex -4.5 -5 5
      vertex -4.96219 -11.1453 5
      vertex -4.5 -11.3227 5
    endloop
  endfacet
  facet normal -0 0 1
    outer loop
      vertex -9.06637 8.16339 5
      vertex -4.5 5 5
      vertex -8.16339 9.06637 5
    endloop
  endfacet
  facet normal 0 0 1
    outer loop
      vertex -4.5 -5 5
      vertex -7.17098 -9.87001 5
      vertex -6.1 -10.5655 5
    endloop
  endfacet
  facet normal -0 0 1
    outer loop
      vertex -9.87001 7.17098 5
      vertex -4.5 5 5
      vertex -9.06637 8.16339 5
    endloop
  endfacet
  facet normal 0 0 1
    outer loop
      vertex -4.5 -5 5
      vertex -8.16339 -9.06637 5
      vertex -7.17098 -9.87001 5
    endloop
  endfacet
  facet normal -0 0 1
    outer loop
      vertex -10.5655 6.1 5
      vertex -4.5 5 5
      vertex -9.87001 7.17098 5
    endloop
  endfacet
  facet normal 0 0 1
    outer loop
      vertex -4.5 -5 5
      vertex -9.06637 -8.16339 5
      vertex -8.16339 -9.06637 5
    endloop
  endfacet
  facet normal 0 0 1
    outer loop
      vertex -4.5 5 5
      vertex -10.7438 5.75 5
      vertex -4.5 -5 5
    endloop
  endfacet
  facet normal 0 0 1
    outer loop
      vertex -4.5 -5 5
      vertex -9.87001 -7.17098 5
      vertex -9.06637 -8.16339 5
    endloop
  endfacet
  facet normal 0 0 1
    outer loop
      vertex -4.5 5 5
      vertex -10.5655 6.1 5
      vertex -10.7438 5.75 5
    endloop
  endfacet
  facet normal 0 0 1
    outer loop
      vertex -10.7438 -5.75 5
      vertex -4.5 -5 5
      vertex -10.7438 5.75 5
    endloop
  endfacet
  facet normal 0 -0 1
    outer loop
      vertex -10.5655 -6.1 5
      vertex -4.5 -5 5
      vertex -10.7438 -5.75 5
    endloop
  endfacet
  facet normal 0 0 1
    outer loop
      vertex -4.5 -5 5
      vertex -10.5655 -6.1 5
      vertex -9.87001 -7.17098 5
    endloop
  endfacet
  facet normal 0 0 1
    outer loop
      vertex -15.5022 5.03698 5
      vertex -10.7438 5.75 5
      vertex -15.2285 5.75 5
    endloop
  endfacet
  facet normal 0 0 1
    outer loop
      vertex -15.9438 3.38896 5
      vertex -10.7438 5.75 5
      vertex -15.5022 5.03698 5
    endloop
  endfacet
  facet normal 0 0 1
    outer loop
      vertex -16.2107 1.70381 5
      vertex -10.7438 5.75 5
      vertex -15.9438 3.38896 5
    endloop
  endfacet
  facet normal 0 0 1
    outer loop
      vertex -16.3 0 5
      vertex -10.7438 5.75 5
      vertex -16.2107 1.70381 5
    endloop
  endfacet
  facet normal -0 -0 1
    outer loop
      vertex -15.5022 -5.03698 5
      vertex -10.7438 -5.75 5
      vertex -15.9438 -3.38896 5
    endloop
  endfacet
  facet normal 0 0 1
    outer loop
      vertex -10.7438 -5.75 5
      vertex -15.5022 -5.03698 5
      vertex -15.2285 -5.75 5
    endloop
  endfacet
  facet normal 0 0 1
    outer loop
      vertex -10.7438 5.75 5
      vertex -16.3 0 5
      vertex -10.7438 -5.75 5
    endloop
  endfacet
  facet normal 0 0 1
    outer loop
      vertex -10.7438 -5.75 5
      vertex -16.2107 -1.70381 5
      vertex -15.9438 -3.38896 5
    endloop
  endfacet
  facet normal 0 0 1
    outer loop
      vertex -10.7438 -5.75 5
      vertex -16.3 0 5
      vertex -16.2107 -1.70381 5
    endloop
  endfacet
  facet normal 0 0 1
    outer loop
      vertex -4.5 -5 5
      vertex -2.5 0 5
      vertex -4.5 5 5
    endloop
  endfacet
  facet normal 0 0 1
    outer loop
      vertex -2.5 0 5
      vertex -4.5 -5 5
      vertex -3.75 -5 5
    endloop
  endfacet
  facet normal 0 0 1
    outer loop
      vertex 2.53652 11.9334 5
      vertex 3.75 5 5
      vertex 3.75 11.6082 5
    endloop
  endfacet
  facet normal 0 0 1
    outer loop
      vertex 3.75 5 5
      vertex 2.5 0 5
      vertex 3.75 -5 5
    endloop
  endfacet
  facet normal 0 0 1
    outer loop
      vertex 1.27525 12.1332 5
      vertex 3.75 5 5
      vertex 2.53652 11.9334 5
    endloop
  endfacet
  facet normal -0 0 1
    outer loop
      vertex 2.3097 -0.956708 5
      vertex 3.75 -5 5
      vertex 2.5 0 5
    endloop
  endfacet
  facet normal -0 0 1
    outer loop
      vertex 1.76777 -1.76777 5
      vertex 3.75 -5 5
      vertex 2.3097 -0.956708 5
    endloop
  endfacet
  facet normal 0 0 1
    outer loop
      vertex 3.75 5 5
      vertex 2.3097 0.956708 5
      vertex 2.5 0 5
    endloop
  endfacet
  facet normal 0 0 1
    outer loop
      vertex 3.75 5 5
      vertex 1.76777 1.76777 5
      vertex 2.3097 0.956708 5
    endloop
  endfacet
  facet normal 0 0 1
    outer loop
      vertex 0 12.2 5
      vertex 3.75 5 5
      vertex 1.27525 12.1332 5
    endloop
  endfacet
  facet normal 0 0 1
    outer loop
      vertex 3.75 5 5
      vertex 0.956708 2.3097 5
      vertex 1.76777 1.76777 5
    endloop
  endfacet
  facet normal 0 0 1
    outer loop
      vertex 3.75 5 5
      vertex 0 12.2 5
      vertex -3.75 5 5
    endloop
  endfacet
  facet normal 0 0 1
    outer loop
      vertex 3.75 5 5
      vertex 0 2.5 5
      vertex 0.956708 2.3097 5
    endloop
  endfacet
  facet normal 0 0 1
    outer loop
      vertex 3.75 5 5
      vertex -3.75 5 5
      vertex 0 2.5 5
    endloop
  endfacet
  facet normal 0 0 1
    outer loop
      vertex -3.75 5 5
      vertex 0 12.2 5
      vertex -1.27525 12.1332 5
    endloop
  endfacet
  facet normal 0 0 1
    outer loop
      vertex 0 2.5 5
      vertex -3.75 5 5
      vertex -0.956708 2.3097 5
    endloop
  endfacet
  facet normal 0 0 1
    outer loop
      vertex -0.956708 2.3097 5
      vertex -3.75 5 5
      vertex -1.76777 1.76777 5
    endloop
  endfacet
  facet normal 0 0 1
    outer loop
      vertex -1.76777 1.76777 5
      vertex -3.75 5 5
      vertex -2.3097 0.956708 5
    endloop
  endfacet
  facet normal 0 0 1
    outer loop
      vertex -3.75 5 5
      vertex -1.27525 12.1332 5
      vertex -2.53652 11.9334 5
    endloop
  endfacet
  facet normal -0 0 1
    outer loop
      vertex 3.75 5 5
      vertex 4.5 -5 5
      vertex 4.5 5 5
    endloop
  endfacet
  facet normal 0 0 1
    outer loop
      vertex 4.5 -5 5
      vertex 3.75 5 5
      vertex 3.75 -5 5
    endloop
  endfacet
  facet normal 0 0 1
    outer loop
      vertex 10.7438 5.75 5
      vertex 16.3 0 5
      vertex 16.2107 1.70381 5
    endloop
  endfacet
  facet normal 0 0 1
    outer loop
      vertex 10.7438 5.75 5
      vertex 16.2107 1.70381 5
      vertex 15.9438 3.38896 5
    endloop
  endfacet
  facet normal 0 0 1
    outer loop
      vertex 10.7438 -5.75 5
      vertex 16.3 0 5
      vertex 10.7438 5.75 5
    endloop
  endfacet
  facet normal 0 0 1
    outer loop
      vertex 10.7438 5.75 5
      vertex 15.9438 3.38896 5
      vertex 15.5022 5.03698 5
    endloop
  endfacet
  facet normal 0 0 1
    outer loop
      vertex 16.3 0 5
      vertex 10.7438 -5.75 5
      vertex 16.2107 -1.70381 5
    endloop
  endfacet
  facet normal -0 0 1
    outer loop
      vertex 10.7438 5.75 5
      vertex 15.5022 5.03698 5
      vertex 15.2285 5.75 5
    endloop
  endfacet
  facet normal 0 0 1
    outer loop
      vertex 16.2107 -1.70381 5
      vertex 10.7438 -5.75 5
      vertex 15.9438 -3.38896 5
    endloop
  endfacet
  facet normal 0 0 1
    outer loop
      vertex 15.9438 -3.38896 5
      vertex 10.7438 -5.75 5
      vertex 15.5022 -5.03698 5
    endloop
  endfacet
  facet normal 0 0 1
    outer loop
      vertex 15.5022 -5.03698 5
      vertex 10.7438 -5.75 5
      vertex 15.2285 -5.75 5
    endloop
  endfacet
  facet normal 0 0 1
    outer loop
      vertex 4.5 5 5
      vertex 10.7438 5.75 5
      vertex 10.5655 6.1 5
    endloop
  endfacet
  facet normal 0 0 1
    outer loop
      vertex 10.7438 5.75 5
      vertex 4.5 5 5
      vertex 10.7438 -5.75 5
    endloop
  endfacet
  facet normal 0 0 1
    outer loop
      vertex 4.5 5 5
      vertex 10.5655 6.1 5
      vertex 9.87001 7.17098 5
    endloop
  endfacet
  facet normal -0 0 1
    outer loop
      vertex 4.5 -5 5
      vertex 10.7438 -5.75 5
      vertex 4.5 5 5
    endloop
  endfacet
  facet normal 0 0 1
    outer loop
      vertex 4.5 5 5
      vertex 9.87001 7.17098 5
      vertex 9.06637 8.16339 5
    endloop
  endfacet
  facet normal 0 0 1
    outer loop
      vertex 10.7438 -5.75 5
      vertex 4.5 -5 5
      vertex 10.5655 -6.1 5
    endloop
  endfacet
  facet normal 0 0 1
    outer loop
      vertex 4.5 5 5
      vertex 9.06637 8.16339 5
      vertex 8.16339 9.06637 5
    endloop
  endfacet
  facet normal 0 0 1
    outer loop
      vertex 10.5655 -6.1 5
      vertex 4.5 -5 5
      vertex 9.87001 -7.17098 5
    endloop
  endfacet
  facet normal 0 0 1
    outer loop
      vertex 4.5 5 5
      vertex 8.16339 9.06637 5
      vertex 7.17098 9.87001 5
    endloop
  endfacet
  facet normal 0 0 1
    outer loop
      vertex 9.87001 -7.17098 5
      vertex 4.5 -5 5
      vertex 9.06637 -8.16339 5
    endloop
  endfacet
  facet normal 0 0 1
    outer loop
      vertex 4.5 5 5
      vertex 7.17098 9.87001 5
      vertex 6.1 10.5655 5
    endloop
  endfacet
  facet normal 0 0 1
    outer loop
      vertex 9.06637 -8.16339 5
      vertex 4.5 -5 5
      vertex 8.16339 -9.06637 5
    endloop
  endfacet
  facet normal 0 0 1
    outer loop
      vertex 4.5 5 5
      vertex 6.1 10.5655 5
      vertex 4.96219 11.1453 5
    endloop
  endfacet
  facet normal 0 0 1
    outer loop
      vertex 8.16339 -9.06637 5
      vertex 4.5 -5 5
      vertex 7.17098 -9.87001 5
    endloop
  endfacet
  facet normal 0 0 1
    outer loop
      vertex 4.5 5 5
      vertex 4.96219 11.1453 5
      vertex 4.5 11.3227 5
    endloop
  endfacet
  facet normal 0 0 1
    outer loop
      vertex 7.17098 -9.87001 5
      vertex 4.5 -5 5
      vertex 6.1 -10.5655 5
    endloop
  endfacet
  facet normal 0 0 1
    outer loop
      vertex 6.1 -10.5655 5
      vertex 4.5 -5 5
      vertex 4.96219 -11.1453 5
    endloop
  endfacet
  facet normal 0 0 1
    outer loop
      vertex 4.96219 -11.1453 5
      vertex 4.5 -5 5
      vertex 4.5 -11.3227 5
    endloop
  endfacet
  facet normal -0 0 1
    outer loop
      vertex 0.956708 -2.3097 5
      vertex 3.75 -5 5
      vertex 1.76777 -1.76777 5
    endloop
  endfacet
  facet normal -0 0 1
    outer loop
      vertex 0 -2.5 5
      vertex 3.75 -5 5
      vertex 0.956708 -2.3097 5
    endloop
  endfacet
  facet normal 0 0 1
    outer loop
      vertex 3.75 -5 5
      vertex 2.53652 -11.9334 5
      vertex 3.75 -11.6082 5
    endloop
  endfacet
  facet normal 0 0 1
    outer loop
      vertex -3.75 -5 5
      vertex 3.75 -5 5
      vertex 0 -2.5 5
    endloop
  endfacet
  facet normal 0 0 1
    outer loop
      vertex 3.75 -5 5
      vertex 1.27525 -12.1332 5
      vertex 2.53652 -11.9334 5
    endloop
  endfacet
  facet normal 0 -0 1
    outer loop
      vertex 0 -12.2 5
      vertex 3.75 -5 5
      vertex -3.75 -5 5
    endloop
  endfacet
  facet normal 0 0 1
    outer loop
      vertex -3.75 -5 5
      vertex 0 -2.5 5
      vertex -0.956708 -2.3097 5
    endloop
  endfacet
  facet normal 0 0 1
    outer loop
      vertex 3.75 -5 5
      vertex 0 -12.2 5
      vertex 1.27525 -12.1332 5
    endloop
  endfacet
  facet normal 0 0 1
    outer loop
      vertex -3.75 -5 5
      vertex -0.956708 -2.3097 5
      vertex -1.76777 -1.76777 5
    endloop
  endfacet
  facet normal 0 0 1
    outer loop
      vertex -3.75 -5 5
      vertex -1.76777 -1.76777 5
      vertex -2.3097 -0.956708 5
    endloop
  endfacet
  facet normal 0 0 1
    outer loop
      vertex -3.75 -5 5
      vertex -2.3097 -0.956708 5
      vertex -2.5 0 5
    endloop
  endfacet
  facet normal 0 0 1
    outer loop
      vertex 0 -12.2 5
      vertex -3.75 -5 5
      vertex -1.27525 -12.1332 5
    endloop
  endfacet
  facet normal -0 0 1
    outer loop
      vertex -4.5 5 5
      vertex -2.3097 0.956708 5
      vertex -3.75 5 5
    endloop
  endfacet
  facet normal 0 0 1
    outer loop
      vertex -3.75 5 5
      vertex -2.53652 11.9334 5
      vertex -3.75 11.6082 5
    endloop
  endfacet
  facet normal 0 0 1
    outer loop
      vertex -2.3097 0.956708 5
      vertex -4.5 5 5
      vertex -2.5 0 5
    endloop
  endfacet
  facet normal 0 0 1
    outer loop
      vertex -1.27525 -12.1332 5
      vertex -3.75 -5 5
      vertex -2.53652 -11.9334 5
    endloop
  endfacet
  facet normal 0 0 1
    outer loop
      vertex -2.53652 -11.9334 5
      vertex -3.75 -5 5
      vertex -3.75 -11.6082 5
    endloop
  endfacet
  facet normal 0.99863 0.0523356 0
    outer loop
      vertex 16.3 0 5
      vertex 16.2107 1.70381 3
      vertex 16.2107 1.70381 5
    endloop
  endfacet
  facet normal 0.99863 0.0523356 0
    outer loop
      vertex 16.2107 1.70381 3
      vertex 16.3 0 5
      vertex 16.3 0 3
    endloop
  endfacet
  facet normal -0.99863 -0.0523356 0
    outer loop
      vertex -16.2107 -1.70381 3
      vertex -16.3 0 5
      vertex -16.3 0 3
    endloop
  endfacet
  facet normal -0.99863 -0.0523356 0
    outer loop
      vertex -16.3 0 5
      vertex -16.2107 -1.70381 3
      vertex -16.2107 -1.70381 5
    endloop
  endfacet
  facet normal 0.987688 -0.156434 0
    outer loop
      vertex 15.9438 -3.38896 5
      vertex 16.2107 -1.70381 3
      vertex 16.2107 -1.70381 5
    endloop
  endfacet
  facet normal 0.987688 -0.156434 0
    outer loop
      vertex 16.2107 -1.70381 3
      vertex 15.9438 -3.38896 5
      vertex 15.9438 -3.38896 3
    endloop
  endfacet
  facet normal 0.99863 -0.0523356 0
    outer loop
      vertex 16.2107 -1.70381 5
      vertex 16.3 0 3
      vertex 16.3 0 5
    endloop
  endfacet
  facet normal 0.99863 -0.0523356 0
    outer loop
      vertex 16.3 0 3
      vertex 16.2107 -1.70381 5
      vertex 16.2107 -1.70381 3
    endloop
  endfacet
  facet normal 0.965926 -0.258819 0
    outer loop
      vertex 15.5022 -5.03698 5
      vertex 15.9438 -3.38896 3
      vertex 15.9438 -3.38896 5
    endloop
  endfacet
  facet normal 0.965926 -0.258819 0
    outer loop
      vertex 15.9438 -3.38896 3
      vertex 15.5022 -5.03698 5
      vertex 15.5022 -5.03698 3
    endloop
  endfacet
  facet normal -0.933581 -0.358368 0
    outer loop
      vertex -15.2285 -5.75 3
      vertex -15.5022 -5.03698 5
      vertex -15.5022 -5.03698 3
    endloop
  endfacet
  facet normal -0.933581 -0.358368 0
    outer loop
      vertex -15.5022 -5.03698 5
      vertex -15.2285 -5.75 3
      vertex -15.2285 -5.75 5
    endloop
  endfacet
  facet normal 0.933581 -0.358368 0
    outer loop
      vertex 15.2285 -5.75 5
      vertex 15.5022 -5.03698 3
      vertex 15.5022 -5.03698 5
    endloop
  endfacet
  facet normal 0.933581 -0.358368 0
    outer loop
      vertex 15.5022 -5.03698 3
      vertex 15.2285 -5.75 5
      vertex 15.2285 -5.75 3
    endloop
  endfacet
  facet normal 0 0 -1
    outer loop
      vertex -4.96219 -11.1453 3
      vertex -4.5 -5 3
      vertex -4.5 -11.3227 3
    endloop
  endfacet
  facet normal 0 0 -1
    outer loop
      vertex -7.17098 -9.87001 3
      vertex -4.5 -5 3
      vertex -6.1 -10.5655 3
    endloop
  endfacet
  facet normal 0 0 -1
    outer loop
      vertex -4.5 -5 3
      vertex -4.96219 -11.1453 3
      vertex -6.1 -10.5655 3
    endloop
  endfacet
  facet normal 0 0 -1
    outer loop
      vertex -8.16339 -9.06637 3
      vertex -4.5 -5 3
      vertex -7.17098 -9.87001 3
    endloop
  endfacet
  facet normal 0 -0 -1
    outer loop
      vertex -4.96219 11.1453 3
      vertex -4.5 5 3
      vertex -6.1 10.5655 3
    endloop
  endfacet
  facet normal 0 0 -1
    outer loop
      vertex -4.5 5 3
      vertex -4.96219 11.1453 3
      vertex -4.5 11.3227 3
    endloop
  endfacet
  facet normal 0 0 -1
    outer loop
      vertex -9.06637 -8.16339 3
      vertex -4.5 -5 3
      vertex -8.16339 -9.06637 3
    endloop
  endfacet
  facet normal 0 0 -1
    outer loop
      vertex -4.5 5 3
      vertex -7.17098 9.87001 3
      vertex -6.1 10.5655 3
    endloop
  endfacet
  facet normal 0 0 -1
    outer loop
      vertex -9.87001 -7.17098 3
      vertex -4.5 -5 3
      vertex -9.06637 -8.16339 3
    endloop
  endfacet
  facet normal 0 0 -1
    outer loop
      vertex -4.5 5 3
      vertex -8.16339 9.06637 3
      vertex -7.17098 9.87001 3
    endloop
  endfacet
  facet normal 0 0 -1
    outer loop
      vertex -10.5655 -6.1 3
      vertex -4.5 -5 3
      vertex -9.87001 -7.17098 3
    endloop
  endfacet
  facet normal 0 0 -1
    outer loop
      vertex -4.5 5 3
      vertex -9.06637 8.16339 3
      vertex -8.16339 9.06637 3
    endloop
  endfacet
  facet normal -0 0 -1
    outer loop
      vertex -4.5 -5 3
      vertex -10.7438 -5.75 3
      vertex -4.5 5 3
    endloop
  endfacet
  facet normal 0 0 -1
    outer loop
      vertex -4.5 5 3
      vertex -9.87001 7.17098 3
      vertex -9.06637 8.16339 3
    endloop
  endfacet
  facet normal 0 0 -1
    outer loop
      vertex -4.5 -5 3
      vertex -10.5655 -6.1 3
      vertex -10.7438 -5.75 3
    endloop
  endfacet
  facet normal 0 0 -1
    outer loop
      vertex -10.7438 5.75 3
      vertex -4.5 5 3
      vertex -10.7438 -5.75 3
    endloop
  endfacet
  facet normal 0 -0 -1
    outer loop
      vertex -10.5655 6.1 3
      vertex -4.5 5 3
      vertex -10.7438 5.75 3
    endloop
  endfacet
  facet normal 0 0 -1
    outer loop
      vertex -4.5 5 3
      vertex -10.5655 6.1 3
      vertex -9.87001 7.17098 3
    endloop
  endfacet
  facet normal 0 0 -1
    outer loop
      vertex -15.5022 -5.03698 3
      vertex -10.7438 -5.75 3
      vertex -15.2285 -5.75 3
    endloop
  endfacet
  facet normal 0 0 -1
    outer loop
      vertex -15.9438 -3.38896 3
      vertex -10.7438 -5.75 3
      vertex -15.5022 -5.03698 3
    endloop
  endfacet
  facet normal 0 0 -1
    outer loop
      vertex -16.2107 -1.70381 3
      vertex -10.7438 -5.75 3
      vertex -15.9438 -3.38896 3
    endloop
  endfacet
  facet normal 0 0 -1
    outer loop
      vertex -16.3 0 3
      vertex -10.7438 -5.75 3
      vertex -16.2107 -1.70381 3
    endloop
  endfacet
  facet normal 0 -0 -1
    outer loop
      vertex -15.5022 5.03698 3
      vertex -10.7438 5.75 3
      vertex -15.9438 3.38896 3
    endloop
  endfacet
  facet normal -0 0 -1
    outer loop
      vertex -10.7438 5.75 3
      vertex -15.5022 5.03698 3
      vertex -15.2285 5.75 3
    endloop
  endfacet
  facet normal 0 0 -1
    outer loop
      vertex -10.7438 -5.75 3
      vertex -16.3 0 3
      vertex -10.7438 5.75 3
    endloop
  endfacet
  facet normal 0 0 -1
    outer loop
      vertex -10.7438 5.75 3
      vertex -16.2107 1.70381 3
      vertex -15.9438 3.38896 3
    endloop
  endfacet
  facet normal 0 0 -1
    outer loop
      vertex -10.7438 5.75 3
      vertex -16.3 0 3
      vertex -16.2107 1.70381 3
    endloop
  endfacet
  facet normal 0 0 -1
    outer loop
      vertex -4.5 5 3
      vertex -2.5 0 3
      vertex -4.5 -5 3
    endloop
  endfacet
  facet normal 0 0 -1
    outer loop
      vertex -2.5 0 3
      vertex -4.5 5 3
      vertex -3.75 5 3
    endloop
  endfacet
  facet normal 0 0 -1
    outer loop
      vertex 0 -12.2 3
      vertex 1.275 -11.25 3
      vertex 1.27525 -12.1332 3
    endloop
  endfacet
  facet normal 0 0 -1
    outer loop
      vertex 0 -12.2 3
      vertex -1.275 -11.25 3
      vertex 1.275 -11.25 3
    endloop
  endfacet
  facet normal 0 0 -1
    outer loop
      vertex -2.53652 -11.9334 3
      vertex -1.275 -11.25 3
      vertex -1.27525 -12.1332 3
    endloop
  endfacet
  facet normal 0 0 -1
    outer loop
      vertex -1.27525 -12.1332 3
      vertex -1.275 -11.25 3
      vertex 0 -12.2 3
    endloop
  endfacet
  facet normal 0 0 -1
    outer loop
      vertex 1.21932 -10.6205 3
      vertex 3.75 -5 3
      vertex 3.75 -11.6082 3
    endloop
  endfacet
  facet normal 0 0 -1
    outer loop
      vertex 3.75 -5 3
      vertex 2.5 0 3
      vertex 3.75 5 3
    endloop
  endfacet
  facet normal 0 0 -1
    outer loop
      vertex 1.21932 -10.6205 3
      vertex 3.75 -11.6082 3
      vertex 2.53652 -11.9334 3
    endloop
  endfacet
  facet normal 0 0 -1
    outer loop
      vertex 2.3097 0.956708 3
      vertex 3.75 5 3
      vertex 2.5 0 3
    endloop
  endfacet
  facet normal 0 0 -1
    outer loop
      vertex 1.76777 1.76777 3
      vertex 3.75 5 3
      vertex 2.3097 0.956708 3
    endloop
  endfacet
  facet normal 0 0 -1
    outer loop
      vertex 3.75 -5 3
      vertex 2.3097 -0.956708 3
      vertex 2.5 0 3
    endloop
  endfacet
  facet normal 0 0 -1
    outer loop
      vertex 3.75 -5 3
      vertex 1.76777 -1.76777 3
      vertex 2.3097 -0.956708 3
    endloop
  endfacet
  facet normal 0 0 -1
    outer loop
      vertex 1.275 -11.25 3
      vertex 2.53652 -11.9334 3
      vertex 1.27525 -12.1332 3
    endloop
  endfacet
  facet normal 0 0 -1
    outer loop
      vertex 1.275 -11.15 3
      vertex 2.53652 -11.9334 3
      vertex 1.275 -11.25 3
    endloop
  endfacet
  facet normal 0 0 -1
    outer loop
      vertex 1.21932 -10.6205 3
      vertex 2.53652 -11.9334 3
      vertex 1.275 -11.15 3
    endloop
  endfacet
  facet normal 0 0 -1
    outer loop
      vertex 3.75 -5 3
      vertex 1.21932 -10.6205 3
      vertex 0.280487 -5.46707 3
    endloop
  endfacet
  facet normal 0 -0 -1
    outer loop
      vertex 0.956708 -2.3097 3
      vertex 3.75 -5 3
      vertex 0.280487 -5.46707 3
    endloop
  endfacet
  facet normal 0 0 -1
    outer loop
      vertex 3.75 -5 3
      vertex 0.956708 -2.3097 3
      vertex 1.76777 -1.76777 3
    endloop
  endfacet
  facet normal 0 0 -1
    outer loop
      vertex 0 -2.5 3
      vertex 0.280487 -5.46707 3
      vertex 0.231708 -5.46707 3
    endloop
  endfacet
  facet normal 0 0 -1
    outer loop
      vertex 0.280487 -5.46707 3
      vertex 0 -2.5 3
      vertex 0.956708 -2.3097 3
    endloop
  endfacet
  facet normal 0 0 -1
    outer loop
      vertex -0.280487 -5.46707 3
      vertex 0 -2.5 3
      vertex 0.231708 -5.46707 3
    endloop
  endfacet
  facet normal 0 0 -1
    outer loop
      vertex -0.280487 -5.46707 3
      vertex -0.956708 -2.3097 3
      vertex 0 -2.5 3
    endloop
  endfacet
  facet normal 0 0 -1
    outer loop
      vertex -3.75 -5 3
      vertex -0.280487 -5.46707 3
      vertex -1.21932 -10.6205 3
    endloop
  endfacet
  facet normal 0 0 -1
    outer loop
      vertex -2.53652 -11.9334 3
      vertex -1.21932 -10.6205 3
      vertex -1.275 -11.15 3
    endloop
  endfacet
  facet normal 0 0 -1
    outer loop
      vertex -0.280487 -5.46707 3
      vertex -3.75 -5 3
      vertex -0.956708 -2.3097 3
    endloop
  endfacet
  facet normal -0 0 -1
    outer loop
      vertex -1.275 -11.25 3
      vertex -2.53652 -11.9334 3
      vertex -1.275 -11.15 3
    endloop
  endfacet
  facet normal -0 0 -1
    outer loop
      vertex -0.956708 -2.3097 3
      vertex -3.75 -5 3
      vertex -1.76777 -1.76777 3
    endloop
  endfacet
  facet normal -0 0 -1
    outer loop
      vertex -1.76777 -1.76777 3
      vertex -3.75 -5 3
      vertex -2.3097 -0.956708 3
    endloop
  endfacet
  facet normal 0 0 -1
    outer loop
      vertex -1.21932 -10.6205 3
      vertex -2.53652 -11.9334 3
      vertex -3.75 -11.6082 3
    endloop
  endfacet
  facet normal 0 0 -1
    outer loop
      vertex 3.75 -5 3
      vertex 4.5 5 3
      vertex 4.5 -5 3
    endloop
  endfacet
  facet normal -0 0 -1
    outer loop
      vertex 4.5 5 3
      vertex 3.75 -5 3
      vertex 3.75 5 3
    endloop
  endfacet
  facet normal 0 0 -1
    outer loop
      vertex 10.7438 -5.75 3
      vertex 16.3 0 3
      vertex 16.2107 -1.70381 3
    endloop
  endfacet
  facet normal 0 0 -1
    outer loop
      vertex 10.7438 -5.75 3
      vertex 16.2107 -1.70381 3
      vertex 15.9438 -3.38896 3
    endloop
  endfacet
  facet normal 0 0 -1
    outer loop
      vertex 10.7438 5.75 3
      vertex 16.3 0 3
      vertex 10.7438 -5.75 3
    endloop
  endfacet
  facet normal 0 0 -1
    outer loop
      vertex 10.7438 -5.75 3
      vertex 15.9438 -3.38896 3
      vertex 15.5022 -5.03698 3
    endloop
  endfacet
  facet normal 0 0 -1
    outer loop
      vertex 16.3 0 3
      vertex 10.7438 5.75 3
      vertex 16.2107 1.70381 3
    endloop
  endfacet
  facet normal 0 0 -1
    outer loop
      vertex 10.7438 -5.75 3
      vertex 15.5022 -5.03698 3
      vertex 15.2285 -5.75 3
    endloop
  endfacet
  facet normal 0 0 -1
    outer loop
      vertex 16.2107 1.70381 3
      vertex 10.7438 5.75 3
      vertex 15.9438 3.38896 3
    endloop
  endfacet
  facet normal 0 0 -1
    outer loop
      vertex 15.9438 3.38896 3
      vertex 10.7438 5.75 3
      vertex 15.5022 5.03698 3
    endloop
  endfacet
  facet normal 0 0 -1
    outer loop
      vertex 15.5022 5.03698 3
      vertex 10.7438 5.75 3
      vertex 15.2285 5.75 3
    endloop
  endfacet
  facet normal 0 0 -1
    outer loop
      vertex 4.5 -5 3
      vertex 10.7438 -5.75 3
      vertex 10.5655 -6.1 3
    endloop
  endfacet
  facet normal 0 0 -1
    outer loop
      vertex 10.7438 -5.75 3
      vertex 4.5 -5 3
      vertex 10.7438 5.75 3
    endloop
  endfacet
  facet normal 0 0 -1
    outer loop
      vertex 4.5 -5 3
      vertex 10.5655 -6.1 3
      vertex 9.87001 -7.17098 3
    endloop
  endfacet
  facet normal 0 0 -1
    outer loop
      vertex 4.5 5 3
      vertex 10.7438 5.75 3
      vertex 4.5 -5 3
    endloop
  endfacet
  facet normal 0 0 -1
    outer loop
      vertex 4.5 -5 3
      vertex 9.87001 -7.17098 3
      vertex 9.06637 -8.16339 3
    endloop
  endfacet
  facet normal -0 0 -1
    outer loop
      vertex 10.7438 5.75 3
      vertex 4.5 5 3
      vertex 10.5655 6.1 3
    endloop
  endfacet
  facet normal 0 0 -1
    outer loop
      vertex 4.5 -5 3
      vertex 9.06637 -8.16339 3
      vertex 8.16339 -9.06637 3
    endloop
  endfacet
  facet normal -0 0 -1
    outer loop
      vertex 10.5655 6.1 3
      vertex 4.5 5 3
      vertex 9.87001 7.17098 3
    endloop
  endfacet
  facet normal 0 0 -1
    outer loop
      vertex 4.5 -5 3
      vertex 8.16339 -9.06637 3
      vertex 7.17098 -9.87001 3
    endloop
  endfacet
  facet normal -0 0 -1
    outer loop
      vertex 9.87001 7.17098 3
      vertex 4.5 5 3
      vertex 9.06637 8.16339 3
    endloop
  endfacet
  facet normal 0 0 -1
    outer loop
      vertex 4.5 -5 3
      vertex 7.17098 -9.87001 3
      vertex 6.1 -10.5655 3
    endloop
  endfacet
  facet normal -0 0 -1
    outer loop
      vertex 9.06637 8.16339 3
      vertex 4.5 5 3
      vertex 8.16339 9.06637 3
    endloop
  endfacet
  facet normal 0 0 -1
    outer loop
      vertex 4.5 -5 3
      vertex 6.1 -10.5655 3
      vertex 4.96219 -11.1453 3
    endloop
  endfacet
  facet normal -0 0 -1
    outer loop
      vertex 8.16339 9.06637 3
      vertex 4.5 5 3
      vertex 7.17098 9.87001 3
    endloop
  endfacet
  facet normal 0 0 -1
    outer loop
      vertex 4.5 -5 3
      vertex 4.96219 -11.1453 3
      vertex 4.5 -11.3227 3
    endloop
  endfacet
  facet normal -0 0 -1
    outer loop
      vertex 7.17098 9.87001 3
      vertex 4.5 5 3
      vertex 6.1 10.5655 3
    endloop
  endfacet
  facet normal -0 0 -1
    outer loop
      vertex 6.1 10.5655 3
      vertex 4.5 5 3
      vertex 4.96219 11.1453 3
    endloop
  endfacet
  facet normal -0 0 -1
    outer loop
      vertex 4.96219 11.1453 3
      vertex 4.5 5 3
      vertex 4.5 11.3227 3
    endloop
  endfacet
  facet normal 0 0 -1
    outer loop
      vertex 0.956708 2.3097 3
      vertex 3.75 5 3
      vertex 1.76777 1.76777 3
    endloop
  endfacet
  facet normal 0 -0 -1
    outer loop
      vertex 1.21932 10.6205 3
      vertex 3.75 5 3
      vertex 0.280487 5.46707 3
    endloop
  endfacet
  facet normal 0 0 -1
    outer loop
      vertex 3.75 5 3
      vertex 1.21932 10.6205 3
      vertex 3.75 11.6082 3
    endloop
  endfacet
  facet normal 0 0 -1
    outer loop
      vertex 1.275 11.25 3
      vertex 2.53652 11.9334 3
      vertex 1.275 11.15 3
    endloop
  endfacet
  facet normal 0 0 -1
    outer loop
      vertex 2.53652 11.9334 3
      vertex 1.21932 10.6205 3
      vertex 1.275 11.15 3
    endloop
  endfacet
  facet normal -0 0 -1
    outer loop
      vertex 3.75 5 3
      vertex 0.956708 2.3097 3
      vertex 0.280487 5.46707 3
    endloop
  endfacet
  facet normal -0 0 -1
    outer loop
      vertex 3.75 11.6082 3
      vertex 1.21932 10.6205 3
      vertex 2.53652 11.9334 3
    endloop
  endfacet
  facet normal 0 0 -1
    outer loop
      vertex 0 2.5 3
      vertex 0.280487 5.46707 3
      vertex 0.956708 2.3097 3
    endloop
  endfacet
  facet normal 0 0 -1
    outer loop
      vertex 0 2.5 3
      vertex -0.231708 5.46707 3
      vertex 0.280487 5.46707 3
    endloop
  endfacet
  facet normal 0 0 -1
    outer loop
      vertex 0 2.5 3
      vertex -0.280487 5.46707 3
      vertex -0.231708 5.46707 3
    endloop
  endfacet
  facet normal 0 0 -1
    outer loop
      vertex -0.956708 2.3097 3
      vertex -0.280487 5.46707 3
      vertex 0 2.5 3
    endloop
  endfacet
  facet normal 0 0 -1
    outer loop
      vertex -3.75 5 3
      vertex -0.280487 5.46707 3
      vertex -0.956708 2.3097 3
    endloop
  endfacet
  facet normal -0 0 -1
    outer loop
      vertex -0.280487 5.46707 3
      vertex -3.75 5 3
      vertex -1.21932 10.6205 3
    endloop
  endfacet
  facet normal 0 0 -1
    outer loop
      vertex -2.53652 11.9334 3
      vertex -1.275 11.25 3
      vertex -1.275 11.15 3
    endloop
  endfacet
  facet normal 0 0 -1
    outer loop
      vertex -3.75 5 3
      vertex -0.956708 2.3097 3
      vertex -1.76777 1.76777 3
    endloop
  endfacet
  facet normal 0 0 -1
    outer loop
      vertex -3.75 11.6082 3
      vertex -1.21932 10.6205 3
      vertex -3.75 5 3
    endloop
  endfacet
  facet normal 0 0 -1
    outer loop
      vertex -3.75 5 3
      vertex -1.76777 1.76777 3
      vertex -2.3097 0.956708 3
    endloop
  endfacet
  facet normal 0 0 -1
    outer loop
      vertex -3.75 5 3
      vertex -2.3097 0.956708 3
      vertex -2.5 0 3
    endloop
  endfacet
  facet normal 0 -0 -1
    outer loop
      vertex -2.53652 11.9334 3
      vertex -1.21932 10.6205 3
      vertex -3.75 11.6082 3
    endloop
  endfacet
  facet normal 0 0 -1
    outer loop
      vertex -4.5 -5 3
      vertex -2.3097 -0.956708 3
      vertex -3.75 -5 3
    endloop
  endfacet
  facet normal -0 0 -1
    outer loop
      vertex -1.21932 -10.6205 3
      vertex -3.75 -11.6082 3
      vertex -3.75 -5 3
    endloop
  endfacet
  facet normal -0 0 -1
    outer loop
      vertex -2.3097 -0.956708 3
      vertex -4.5 -5 3
      vertex -2.5 0 3
    endloop
  endfacet
  facet normal 0 0 -1
    outer loop
      vertex -1.275 11.25 3
      vertex -2.53652 11.9334 3
      vertex -1.27525 12.1332 3
    endloop
  endfacet
  facet normal 0 0 -1
    outer loop
      vertex -1.21932 10.6205 3
      vertex -2.53652 11.9334 3
      vertex -1.275 11.15 3
    endloop
  endfacet
  facet normal -0 0 -1
    outer loop
      vertex 2.53652 11.9334 3
      vertex 1.275 11.25 3
      vertex 1.27525 12.1332 3
    endloop
  endfacet
  facet normal 0 0 -1
    outer loop
      vertex 1.275 11.25 3
      vertex 0 12.2 3
      vertex 1.27525 12.1332 3
    endloop
  endfacet
  facet normal 0 0 -1
    outer loop
      vertex -1.275 11.25 3
      vertex 0 12.2 3
      vertex 1.275 11.25 3
    endloop
  endfacet
  facet normal 0 0 -1
    outer loop
      vertex 0 12.2 3
      vertex -1.275 11.25 3
      vertex -1.27525 12.1332 3
    endloop
  endfacet
  facet normal -0.987688 -0.156434 0
    outer loop
      vertex -15.9438 -3.38896 3
      vertex -16.2107 -1.70381 5
      vertex -16.2107 -1.70381 3
    endloop
  endfacet
  facet normal -0.987688 -0.156434 0
    outer loop
      vertex -16.2107 -1.70381 5
      vertex -15.9438 -3.38896 3
      vertex -15.9438 -3.38896 5
    endloop
  endfacet
  facet normal -0.965926 -0.258819 0
    outer loop
      vertex -15.5022 -5.03698 3
      vertex -15.9438 -3.38896 5
      vertex -15.9438 -3.38896 3
    endloop
  endfacet
  facet normal -0.965926 -0.258819 0
    outer loop
      vertex -15.9438 -3.38896 5
      vertex -15.5022 -5.03698 3
      vertex -15.5022 -5.03698 5
    endloop
  endfacet
  facet normal 0 -1 0
    outer loop
      vertex -15.2285 -5.75 3
      vertex -10.7438 -5.75 5
      vertex -15.2285 -5.75 5
    endloop
  endfacet
  facet normal 0 -1 -0
    outer loop
      vertex -10.7438 -5.75 5
      vertex -15.2285 -5.75 3
      vertex -10.7438 -5.75 3
    endloop
  endfacet
  facet normal 0 -1 0
    outer loop
      vertex 10.7438 -5.75 3
      vertex 15.2285 -5.75 5
      vertex 10.7438 -5.75 5
    endloop
  endfacet
  facet normal 0 -1 -0
    outer loop
      vertex 15.2285 -5.75 5
      vertex 10.7438 -5.75 3
      vertex 15.2285 -5.75 3
    endloop
  endfacet
  facet normal 0 1 -0
    outer loop
      vertex -10.7438 5.75 3
      vertex -15.2285 5.75 5
      vertex -10.7438 5.75 5
    endloop
  endfacet
  facet normal 0 1 0
    outer loop
      vertex -15.2285 5.75 5
      vertex -10.7438 5.75 3
      vertex -15.2285 5.75 3
    endloop
  endfacet
  facet normal 0 1 -0
    outer loop
      vertex 15.2285 5.75 3
      vertex 10.7438 5.75 5
      vertex 15.2285 5.75 5
    endloop
  endfacet
  facet normal 0 1 0
    outer loop
      vertex 10.7438 5.75 5
      vertex 15.2285 5.75 3
      vertex 10.7438 5.75 3
    endloop
  endfacet
  facet normal 0.0523365 0.99863 -0
    outer loop
      vertex 1.27525 12.1332 3
      vertex 0 12.2 5
      vertex 1.27525 12.1332 5
    endloop
  endfacet
  facet normal 0.0523365 0.99863 0
    outer loop
      vertex 0 12.2 5
      vertex 1.27525 12.1332 3
      vertex 0 12.2 3
    endloop
  endfacet
  facet normal 0.707107 0.707107 0
    outer loop
      vertex 9.06637 8.16339 5
      vertex 8.16339 9.06637 3
      vertex 8.16339 9.06637 5
    endloop
  endfacet
  facet normal 0.707107 0.707107 0
    outer loop
      vertex 8.16339 9.06637 3
      vertex 9.06637 8.16339 5
      vertex 9.06637 8.16339 3
    endloop
  endfacet
  facet normal -0.62932 0.777146 0
    outer loop
      vertex -7.17098 9.87001 3
      vertex -8.16339 9.06637 5
      vertex -7.17098 9.87001 5
    endloop
  endfacet
  facet normal -0.62932 0.777146 0
    outer loop
      vertex -8.16339 9.06637 5
      vertex -7.17098 9.87001 3
      vertex -8.16339 9.06637 3
    endloop
  endfacet
  facet normal -0.358368 0.93358 0
    outer loop
      vertex -4.5 11.3227 3
      vertex -4.96219 11.1453 5
      vertex -4.5 11.3227 5
    endloop
  endfacet
  facet normal -0.358368 0.93358 0
    outer loop
      vertex -4.96219 11.1453 5
      vertex -4.5 11.3227 3
      vertex -4.96219 11.1453 3
    endloop
  endfacet
  facet normal 0.891007 0.45399 0
    outer loop
      vertex 10.7438 5.75 5
      vertex 10.5655 6.1 3
      vertex 10.5655 6.1 5
    endloop
  endfacet
  facet normal 0.891007 0.45399 0
    outer loop
      vertex 10.5655 6.1 3
      vertex 10.7438 5.75 5
      vertex 10.7438 5.75 3
    endloop
  endfacet
  facet normal 0.45399 0.891007 -0
    outer loop
      vertex 6.1 10.5655 3
      vertex 4.96219 11.1453 5
      vertex 6.1 10.5655 5
    endloop
  endfacet
  facet normal 0.45399 0.891007 0
    outer loop
      vertex 4.96219 11.1453 5
      vertex 6.1 10.5655 3
      vertex 4.96219 11.1453 3
    endloop
  endfacet
  facet normal 0.544639 0.83867 -0
    outer loop
      vertex 7.17098 9.87001 3
      vertex 6.1 10.5655 5
      vertex 7.17098 9.87001 5
    endloop
  endfacet
  facet normal 0.544639 0.83867 0
    outer loop
      vertex 6.1 10.5655 5
      vertex 7.17098 9.87001 3
      vertex 6.1 10.5655 3
    endloop
  endfacet
  facet normal -0.83867 0.544639 0
    outer loop
      vertex -10.5655 6.1 3
      vertex -9.87001 7.17098 5
      vertex -9.87001 7.17098 3
    endloop
  endfacet
  facet normal -0.83867 0.544639 0
    outer loop
      vertex -9.87001 7.17098 5
      vertex -10.5655 6.1 3
      vertex -10.5655 6.1 5
    endloop
  endfacet
  facet normal -0.777146 0.62932 0
    outer loop
      vertex -9.87001 7.17098 3
      vertex -9.06637 8.16339 5
      vertex -9.06637 8.16339 3
    endloop
  endfacet
  facet normal -0.777146 0.62932 0
    outer loop
      vertex -9.06637 8.16339 5
      vertex -9.87001 7.17098 3
      vertex -9.87001 7.17098 5
    endloop
  endfacet
  facet normal -0.45399 0.891007 0
    outer loop
      vertex -4.96219 11.1453 3
      vertex -6.1 10.5655 5
      vertex -4.96219 11.1453 5
    endloop
  endfacet
  facet normal -0.45399 0.891007 0
    outer loop
      vertex -6.1 10.5655 5
      vertex -4.96219 11.1453 3
      vertex -6.1 10.5655 3
    endloop
  endfacet
  facet normal -0.156434 0.987688 0
    outer loop
      vertex -1.27525 12.1332 3
      vertex -2.53652 11.9334 5
      vertex -1.27525 12.1332 5
    endloop
  endfacet
  facet normal -0.156434 0.987688 0
    outer loop
      vertex -2.53652 11.9334 5
      vertex -1.27525 12.1332 3
      vertex -2.53652 11.9334 3
    endloop
  endfacet
  facet normal 0.891007 -0.45399 0
    outer loop
      vertex 10.5655 -6.1 5
      vertex 10.7438 -5.75 3
      vertex 10.7438 -5.75 5
    endloop
  endfacet
  facet normal 0.891007 -0.45399 0
    outer loop
      vertex 10.7438 -5.75 3
      vertex 10.5655 -6.1 5
      vertex 10.5655 -6.1 3
    endloop
  endfacet
  facet normal 0.258819 -0.965926 0
    outer loop
      vertex 2.53652 -11.9334 3
      vertex 3.75 -11.6082 5
      vertex 2.53652 -11.9334 5
    endloop
  endfacet
  facet normal 0.258819 -0.965926 0
    outer loop
      vertex 3.75 -11.6082 5
      vertex 2.53652 -11.9334 3
      vertex 3.75 -11.6082 3
    endloop
  endfacet
  facet normal 0.707107 -0.707107 0
    outer loop
      vertex 8.16339 -9.06637 5
      vertex 9.06637 -8.16339 3
      vertex 9.06637 -8.16339 5
    endloop
  endfacet
  facet normal 0.707107 -0.707107 0
    outer loop
      vertex 9.06637 -8.16339 3
      vertex 8.16339 -9.06637 5
      vertex 8.16339 -9.06637 3
    endloop
  endfacet
  facet normal -0.358368 -0.93358 0
    outer loop
      vertex -4.96219 -11.1453 3
      vertex -4.5 -11.3227 5
      vertex -4.96219 -11.1453 5
    endloop
  endfacet
  facet normal -0.358368 -0.93358 -0
    outer loop
      vertex -4.5 -11.3227 5
      vertex -4.96219 -11.1453 3
      vertex -4.5 -11.3227 3
    endloop
  endfacet
  facet normal -0.891007 -0.45399 0
    outer loop
      vertex -10.5655 -6.1 3
      vertex -10.7438 -5.75 5
      vertex -10.7438 -5.75 3
    endloop
  endfacet
  facet normal -0.891007 -0.45399 0
    outer loop
      vertex -10.7438 -5.75 5
      vertex -10.5655 -6.1 3
      vertex -10.5655 -6.1 5
    endloop
  endfacet
  facet normal -0.83867 -0.544639 0
    outer loop
      vertex -9.87001 -7.17098 3
      vertex -10.5655 -6.1 5
      vertex -10.5655 -6.1 3
    endloop
  endfacet
  facet normal -0.83867 -0.544639 0
    outer loop
      vertex -10.5655 -6.1 5
      vertex -9.87001 -7.17098 3
      vertex -9.87001 -7.17098 5
    endloop
  endfacet
  facet normal 0.777146 0.62932 0
    outer loop
      vertex 9.87001 7.17098 5
      vertex 9.06637 8.16339 3
      vertex 9.06637 8.16339 5
    endloop
  endfacet
  facet normal 0.777146 0.62932 0
    outer loop
      vertex 9.06637 8.16339 3
      vertex 9.87001 7.17098 5
      vertex 9.87001 7.17098 3
    endloop
  endfacet
  facet normal 0.83867 0.544639 0
    outer loop
      vertex 10.5655 6.1 5
      vertex 9.87001 7.17098 3
      vertex 9.87001 7.17098 5
    endloop
  endfacet
  facet normal 0.83867 0.544639 0
    outer loop
      vertex 9.87001 7.17098 3
      vertex 10.5655 6.1 5
      vertex 10.5655 6.1 3
    endloop
  endfacet
  facet normal 0.258819 0.965926 -0
    outer loop
      vertex 3.75 11.6082 3
      vertex 2.53652 11.9334 5
      vertex 3.75 11.6082 5
    endloop
  endfacet
  facet normal 0.258819 0.965926 0
    outer loop
      vertex 2.53652 11.9334 5
      vertex 3.75 11.6082 3
      vertex 2.53652 11.9334 3
    endloop
  endfacet
  facet normal 0.358368 0.93358 -0
    outer loop
      vertex 4.96219 11.1453 3
      vertex 4.5 11.3227 5
      vertex 4.96219 11.1453 5
    endloop
  endfacet
  facet normal 0.358368 0.93358 0
    outer loop
      vertex 4.5 11.3227 5
      vertex 4.96219 11.1453 3
      vertex 4.5 11.3227 3
    endloop
  endfacet
  facet normal 0.156434 0.987688 -0
    outer loop
      vertex 2.53652 11.9334 3
      vertex 1.27525 12.1332 5
      vertex 2.53652 11.9334 5
    endloop
  endfacet
  facet normal 0.156434 0.987688 0
    outer loop
      vertex 1.27525 12.1332 5
      vertex 2.53652 11.9334 3
      vertex 1.27525 12.1332 3
    endloop
  endfacet
  facet normal 0.62932 0.777146 -0
    outer loop
      vertex 8.16339 9.06637 3
      vertex 7.17098 9.87001 5
      vertex 8.16339 9.06637 5
    endloop
  endfacet
  facet normal 0.62932 0.777146 0
    outer loop
      vertex 7.17098 9.87001 5
      vertex 8.16339 9.06637 3
      vertex 7.17098 9.87001 3
    endloop
  endfacet
  facet normal -0.891007 0.45399 0
    outer loop
      vertex -10.7438 5.75 3
      vertex -10.5655 6.1 5
      vertex -10.5655 6.1 3
    endloop
  endfacet
  facet normal -0.891007 0.45399 0
    outer loop
      vertex -10.5655 6.1 5
      vertex -10.7438 5.75 3
      vertex -10.7438 5.75 5
    endloop
  endfacet
  facet normal -0.258819 0.965926 0
    outer loop
      vertex -2.53652 11.9334 3
      vertex -3.75 11.6082 5
      vertex -2.53652 11.9334 5
    endloop
  endfacet
  facet normal -0.258819 0.965926 0
    outer loop
      vertex -3.75 11.6082 5
      vertex -2.53652 11.9334 3
      vertex -3.75 11.6082 3
    endloop
  endfacet
  facet normal -0.0523365 0.99863 0
    outer loop
      vertex 0 12.2 3
      vertex -1.27525 12.1332 5
      vertex 0 12.2 5
    endloop
  endfacet
  facet normal -0.0523365 0.99863 0
    outer loop
      vertex -1.27525 12.1332 5
      vertex 0 12.2 3
      vertex -1.27525 12.1332 3
    endloop
  endfacet
  facet normal 0.0523365 -0.99863 0
    outer loop
      vertex 0 -12.2 3
      vertex 1.27525 -12.1332 5
      vertex 0 -12.2 5
    endloop
  endfacet
  facet normal 0.0523365 -0.99863 0
    outer loop
      vertex 1.27525 -12.1332 5
      vertex 0 -12.2 3
      vertex 1.27525 -12.1332 3
    endloop
  endfacet
  facet normal 0.45399 -0.891007 0
    outer loop
      vertex 4.96219 -11.1453 3
      vertex 6.1 -10.5655 5
      vertex 4.96219 -11.1453 5
    endloop
  endfacet
  facet normal 0.45399 -0.891007 0
    outer loop
      vertex 6.1 -10.5655 5
      vertex 4.96219 -11.1453 3
      vertex 6.1 -10.5655 3
    endloop
  endfacet
  facet normal 0.62932 -0.777146 0
    outer loop
      vertex 7.17098 -9.87001 3
      vertex 8.16339 -9.06637 5
      vertex 7.17098 -9.87001 5
    endloop
  endfacet
  facet normal 0.62932 -0.777146 0
    outer loop
      vertex 8.16339 -9.06637 5
      vertex 7.17098 -9.87001 3
      vertex 8.16339 -9.06637 3
    endloop
  endfacet
  facet normal 0.777146 -0.62932 0
    outer loop
      vertex 9.06637 -8.16339 5
      vertex 9.87001 -7.17098 3
      vertex 9.87001 -7.17098 5
    endloop
  endfacet
  facet normal 0.777146 -0.62932 0
    outer loop
      vertex 9.87001 -7.17098 3
      vertex 9.06637 -8.16339 5
      vertex 9.06637 -8.16339 3
    endloop
  endfacet
  facet normal 0.83867 -0.544639 0
    outer loop
      vertex 9.87001 -7.17098 5
      vertex 10.5655 -6.1 3
      vertex 10.5655 -6.1 5
    endloop
  endfacet
  facet normal 0.83867 -0.544639 0
    outer loop
      vertex 10.5655 -6.1 3
      vertex 9.87001 -7.17098 5
      vertex 9.87001 -7.17098 3
    endloop
  endfacet
  facet normal -0.707107 -0.707107 0
    outer loop
      vertex -8.16339 -9.06637 3
      vertex -9.06637 -8.16339 5
      vertex -9.06637 -8.16339 3
    endloop
  endfacet
  facet normal -0.707107 -0.707107 0
    outer loop
      vertex -9.06637 -8.16339 5
      vertex -8.16339 -9.06637 3
      vertex -8.16339 -9.06637 5
    endloop
  endfacet
  facet normal -0.62932 -0.777146 0
    outer loop
      vertex -8.16339 -9.06637 3
      vertex -7.17098 -9.87001 5
      vertex -8.16339 -9.06637 5
    endloop
  endfacet
  facet normal -0.62932 -0.777146 -0
    outer loop
      vertex -7.17098 -9.87001 5
      vertex -8.16339 -9.06637 3
      vertex -7.17098 -9.87001 3
    endloop
  endfacet
  facet normal -0.544639 -0.83867 0
    outer loop
      vertex -7.17098 -9.87001 3
      vertex -6.1 -10.5655 5
      vertex -7.17098 -9.87001 5
    endloop
  endfacet
  facet normal -0.544639 -0.83867 -0
    outer loop
      vertex -6.1 -10.5655 5
      vertex -7.17098 -9.87001 3
      vertex -6.1 -10.5655 3
    endloop
  endfacet
  facet normal -0.156434 -0.987688 0
    outer loop
      vertex -2.53652 -11.9334 3
      vertex -1.27525 -12.1332 5
      vertex -2.53652 -11.9334 5
    endloop
  endfacet
  facet normal -0.156434 -0.987688 -0
    outer loop
      vertex -1.27525 -12.1332 5
      vertex -2.53652 -11.9334 3
      vertex -1.27525 -12.1332 3
    endloop
  endfacet
  facet normal -0.777146 -0.62932 0
    outer loop
      vertex -9.06637 -8.16339 3
      vertex -9.87001 -7.17098 5
      vertex -9.87001 -7.17098 3
    endloop
  endfacet
  facet normal -0.777146 -0.62932 0
    outer loop
      vertex -9.87001 -7.17098 5
      vertex -9.06637 -8.16339 3
      vertex -9.06637 -8.16339 5
    endloop
  endfacet
  facet normal -0.707107 0.707107 0
    outer loop
      vertex -9.06637 8.16339 3
      vertex -8.16339 9.06637 5
      vertex -8.16339 9.06637 3
    endloop
  endfacet
  facet normal -0.707107 0.707107 0
    outer loop
      vertex -8.16339 9.06637 5
      vertex -9.06637 8.16339 3
      vertex -9.06637 8.16339 5
    endloop
  endfacet
  facet normal -0.544639 0.83867 0
    outer loop
      vertex -6.1 10.5655 3
      vertex -7.17098 9.87001 5
      vertex -6.1 10.5655 5
    endloop
  endfacet
  facet normal -0.544639 0.83867 0
    outer loop
      vertex -7.17098 9.87001 5
      vertex -6.1 10.5655 3
      vertex -7.17098 9.87001 3
    endloop
  endfacet
  facet normal 0.156434 -0.987688 0
    outer loop
      vertex 1.27525 -12.1332 3
      vertex 2.53652 -11.9334 5
      vertex 1.27525 -12.1332 5
    endloop
  endfacet
  facet normal 0.156434 -0.987688 0
    outer loop
      vertex 2.53652 -11.9334 5
      vertex 1.27525 -12.1332 3
      vertex 2.53652 -11.9334 3
    endloop
  endfacet
  facet normal 0.358368 -0.93358 0
    outer loop
      vertex 4.5 -11.3227 3
      vertex 4.96219 -11.1453 5
      vertex 4.5 -11.3227 5
    endloop
  endfacet
  facet normal 0.358368 -0.93358 0
    outer loop
      vertex 4.96219 -11.1453 5
      vertex 4.5 -11.3227 3
      vertex 4.96219 -11.1453 3
    endloop
  endfacet
  facet normal 0.544639 -0.83867 0
    outer loop
      vertex 6.1 -10.5655 3
      vertex 7.17098 -9.87001 5
      vertex 6.1 -10.5655 5
    endloop
  endfacet
  facet normal 0.544639 -0.83867 0
    outer loop
      vertex 7.17098 -9.87001 5
      vertex 6.1 -10.5655 3
      vertex 7.17098 -9.87001 3
    endloop
  endfacet
  facet normal -0.45399 -0.891007 0
    outer loop
      vertex -6.1 -10.5655 3
      vertex -4.96219 -11.1453 5
      vertex -6.1 -10.5655 5
    endloop
  endfacet
  facet normal -0.45399 -0.891007 -0
    outer loop
      vertex -4.96219 -11.1453 5
      vertex -6.1 -10.5655 3
      vertex -4.96219 -11.1453 3
    endloop
  endfacet
  facet normal -0.258819 -0.965926 0
    outer loop
      vertex -3.75 -11.6082 3
      vertex -2.53652 -11.9334 5
      vertex -3.75 -11.6082 5
    endloop
  endfacet
  facet normal -0.258819 -0.965926 -0
    outer loop
      vertex -2.53652 -11.9334 5
      vertex -3.75 -11.6082 3
      vertex -2.53652 -11.9334 3
    endloop
  endfacet
  facet normal -0.0523365 -0.99863 0
    outer loop
      vertex -1.27525 -12.1332 3
      vertex 0 -12.2 5
      vertex -1.27525 -12.1332 5
    endloop
  endfacet
  facet normal -0.0523365 -0.99863 -0
    outer loop
      vertex 0 -12.2 5
      vertex -1.27525 -12.1332 3
      vertex 0 -12.2 3
    endloop
  endfacet
  facet normal -0.774865 0 -0.632126
    outer loop
      vertex -0.5 11.15 2
      vertex -1.275 11.25 2.95
      vertex -0.5 11.25 2
    endloop
  endfacet
  facet normal -0.774865 -0 -0.632126
    outer loop
      vertex -1.275 11.25 2.95
      vertex -0.5 11.15 2
      vertex -1.275 11.15 2.95
    endloop
  endfacet
  facet normal -0.767259 -0.139777 -0.625921
    outer loop
      vertex -0.5 11.15 2
      vertex -1.21932 10.6205 3
      vertex -1.275 11.15 2.95
    endloop
  endfacet
  facet normal -0.767259 -0.139777 -0.625921
    outer loop
      vertex -1.21932 10.6205 3
      vertex -0.5 11.15 2
      vertex -0.280487 5.46707 3
    endloop
  endfacet
  facet normal 9.53675e-07 0 -1
    outer loop
      vertex -0.5 11.15 2
      vertex 0.499999 11.25 2
      vertex 0.499999 11.15 2
    endloop
  endfacet
  facet normal 9.53675e-07 0 -1
    outer loop
      vertex 0.499999 11.25 2
      vertex -0.5 11.15 2
      vertex -0.5 11.25 2
    endloop
  endfacet
  facet normal 0 1 0
    outer loop
      vertex 0.499999 11.25 2
      vertex 1.275 11.25 3
      vertex 1.275 11.25 2.95
    endloop
  endfacet
  facet normal 0 1 0
    outer loop
      vertex 1.275 11.25 3
      vertex 0.499999 11.25 2
      vertex -1.275 11.25 3
    endloop
  endfacet
  facet normal 0 1 -0
    outer loop
      vertex -0.5 11.25 2
      vertex -1.275 11.25 3
      vertex 0.499999 11.25 2
    endloop
  endfacet
  facet normal 0 1 0
    outer loop
      vertex -1.275 11.25 3
      vertex -0.5 11.25 2
      vertex -1.275 11.25 2.95
    endloop
  endfacet
  facet normal -1 0 0
    outer loop
      vertex -1.275 11.15 2.95
      vertex -1.275 11.25 3
      vertex -1.275 11.25 2.95
    endloop
  endfacet
  facet normal -1 -0 0
    outer loop
      vertex -1.275 11.25 3
      vertex -1.275 11.15 2.95
      vertex -1.275 11.15 3
    endloop
  endfacet
  facet normal -0.994517 -0.104574 -0
    outer loop
      vertex -1.275 11.15 3
      vertex -1.275 11.15 2.95
      vertex -1.21932 10.6205 3
    endloop
  endfacet
  facet normal 0.994517 -0.104574 0
    outer loop
      vertex 1.275 11.15 3
      vertex 1.21932 10.6205 3
      vertex 1.275 11.15 2.95
    endloop
  endfacet
  facet normal 0 -0.173303 -0.984869
    outer loop
      vertex -0.280487 5.46707 3
      vertex -0.5 11.15 2
      vertex -0.231708 5.46707 3
    endloop
  endfacet
  facet normal 1 -0 0
    outer loop
      vertex 1.275 11.15 3
      vertex 1.275 11.25 2.95
      vertex 1.275 11.25 3
    endloop
  endfacet
  facet normal 1 0 0
    outer loop
      vertex 1.275 11.25 2.95
      vertex 1.275 11.15 3
      vertex 1.275 11.15 2.95
    endloop
  endfacet
  facet normal 8.06698e-07 -0.173303 -0.984869
    outer loop
      vertex -0.231708 5.46707 3
      vertex 0.499999 11.15 2
      vertex 0.280487 5.46707 3
    endloop
  endfacet
  facet normal 9.39245e-07 -0.173303 -0.984869
    outer loop
      vertex 0.499999 11.15 2
      vertex -0.231708 5.46707 3
      vertex -0.5 11.15 2
    endloop
  endfacet
  facet normal 0.767259 -0.139777 -0.625921
    outer loop
      vertex 1.21932 10.6205 3
      vertex 0.499999 11.15 2
      vertex 1.275 11.15 2.95
    endloop
  endfacet
  facet normal 0.767259 -0.139777 -0.625921
    outer loop
      vertex 0.499999 11.15 2
      vertex 1.21932 10.6205 3
      vertex 0.280487 5.46707 3
    endloop
  endfacet
  facet normal 0.774865 0 -0.632126
    outer loop
      vertex 1.275 11.15 2.95
      vertex 0.499999 11.25 2
      vertex 1.275 11.25 2.95
    endloop
  endfacet
  facet normal 0.774865 0 -0.632126
    outer loop
      vertex 0.499999 11.25 2
      vertex 1.275 11.15 2.95
      vertex 0.499999 11.15 2
    endloop
  endfacet
  facet normal 0.767259 0.139777 -0.625921
    outer loop
      vertex 0.5 -11.15 2
      vertex 1.21932 -10.6205 3
      vertex 1.275 -11.15 2.95
    endloop
  endfacet
  facet normal 0.767259 0.139777 -0.625921
    outer loop
      vertex 1.21932 -10.6205 3
      vertex 0.5 -11.15 2
      vertex 0.280487 -5.46707 3
    endloop
  endfacet
  facet normal -0.774865 0 -0.632126
    outer loop
      vertex -0.499999 -11.25 2
      vertex -1.275 -11.15 2.95
      vertex -0.499999 -11.15 2
    endloop
  endfacet
  facet normal -0.774865 -0 -0.632126
    outer loop
      vertex -1.275 -11.15 2.95
      vertex -0.499999 -11.25 2
      vertex -1.275 -11.25 2.95
    endloop
  endfacet
  facet normal 1 -0 0
    outer loop
      vertex 1.275 -11.25 3
      vertex 1.275 -11.15 2.95
      vertex 1.275 -11.15 3
    endloop
  endfacet
  facet normal 1 0 0
    outer loop
      vertex 1.275 -11.15 2.95
      vertex 1.275 -11.25 3
      vertex 1.275 -11.25 2.95
    endloop
  endfacet
  facet normal 0.774865 0 -0.632126
    outer loop
      vertex 1.275 -11.25 2.95
      vertex 0.5 -11.15 2
      vertex 1.275 -11.15 2.95
    endloop
  endfacet
  facet normal 0.774865 0 -0.632126
    outer loop
      vertex 0.5 -11.15 2
      vertex 1.275 -11.25 2.95
      vertex 0.5 -11.25 2
    endloop
  endfacet
  facet normal 0.994517 0.104574 -0
    outer loop
      vertex 1.275 -11.15 2.95
      vertex 1.21932 -10.6205 3
      vertex 1.275 -11.15 3
    endloop
  endfacet
  facet normal 0 -1 0
    outer loop
      vertex -0.499999 -11.25 2
      vertex -1.275 -11.25 3
      vertex -1.275 -11.25 2.95
    endloop
  endfacet
  facet normal 0 -1 0
    outer loop
      vertex -1.275 -11.25 3
      vertex -0.499999 -11.25 2
      vertex 1.275 -11.25 3
    endloop
  endfacet
  facet normal 0 -1 0
    outer loop
      vertex 0.5 -11.25 2
      vertex 1.275 -11.25 3
      vertex -0.499999 -11.25 2
    endloop
  endfacet
  facet normal 0 -1 -0
    outer loop
      vertex 1.275 -11.25 3
      vertex 0.5 -11.25 2
      vertex 1.275 -11.25 2.95
    endloop
  endfacet
  facet normal 0 0.173303 -0.984869
    outer loop
      vertex 0.5 -11.15 2
      vertex 0.231708 -5.46707 3
      vertex 0.280487 -5.46707 3
    endloop
  endfacet
  facet normal -0.767259 0.139777 -0.625921
    outer loop
      vertex -0.499999 -11.15 2
      vertex -1.21932 -10.6205 3
      vertex -0.280487 -5.46707 3
    endloop
  endfacet
  facet normal -0.767259 0.139777 -0.625921
    outer loop
      vertex -1.21932 -10.6205 3
      vertex -0.499999 -11.15 2
      vertex -1.275 -11.15 2.95
    endloop
  endfacet
  facet normal -8.06698e-07 0.173303 -0.984869
    outer loop
      vertex 0.5 -11.15 2
      vertex -0.280487 -5.46707 3
      vertex 0.231708 -5.46707 3
    endloop
  endfacet
  facet normal -9.39245e-07 0.173303 -0.984869
    outer loop
      vertex -0.280487 -5.46707 3
      vertex 0.5 -11.15 2
      vertex -0.499999 -11.15 2
    endloop
  endfacet
  facet normal -9.53675e-07 0 -1
    outer loop
      vertex -0.499999 -11.25 2
      vertex 0.5 -11.15 2
      vertex 0.5 -11.25 2
    endloop
  endfacet
  facet normal -9.53675e-07 0 -1
    outer loop
      vertex 0.5 -11.15 2
      vertex -0.499999 -11.25 2
      vertex -0.499999 -11.15 2
    endloop
  endfacet
  facet normal -1 0 0
    outer loop
      vertex -1.275 -11.25 2.95
      vertex -1.275 -11.15 3
      vertex -1.275 -11.15 2.95
    endloop
  endfacet
  facet normal -1 -0 0
    outer loop
      vertex -1.275 -11.15 3
      vertex -1.275 -11.25 2.95
      vertex -1.275 -11.25 3
    endloop
  endfacet
  facet normal -0.994517 0.104574 0
    outer loop
      vertex -1.21932 -10.6205 3
      vertex -1.275 -11.15 2.95
      vertex -1.275 -11.15 3
    endloop
  endfacet
  facet normal 1 -0 0
    outer loop
      vertex -4.5 -11.3227 5
      vertex -4.5 -5 3
      vertex -4.5 -5 5
    endloop
  endfacet
  facet normal 1 0 0
    outer loop
      vertex -4.5 -5 3
      vertex -4.5 -11.3227 5
      vertex -4.5 -11.3227 3
    endloop
  endfacet
  facet normal 1 -0 0
    outer loop
      vertex -4.5 5 5
      vertex -4.5 11.3227 3
      vertex -4.5 11.3227 5
    endloop
  endfacet
  facet normal 1 0 0
    outer loop
      vertex -4.5 11.3227 3
      vertex -4.5 5 5
      vertex -4.5 5 3
    endloop
  endfacet
  facet normal -1 0 0
    outer loop
      vertex 4.5 -11.3227 3
      vertex 4.5 -5 5
      vertex 4.5 -5 3
    endloop
  endfacet
  facet normal -1 -0 0
    outer loop
      vertex 4.5 -5 5
      vertex 4.5 -11.3227 3
      vertex 4.5 -11.3227 5
    endloop
  endfacet
  facet normal -1 0 0
    outer loop
      vertex 4.5 5 3
      vertex 4.5 11.3227 5
      vertex 4.5 11.3227 3
    endloop
  endfacet
  facet normal -1 -0 0
    outer loop
      vertex 4.5 11.3227 5
      vertex 4.5 5 3
      vertex 4.5 5 5
    endloop
  endfacet
  facet normal -1 0 0
    outer loop
      vertex -3.75 -11.6082 3
      vertex -3.75 -5 5
      vertex -3.75 -5 3
    endloop
  endfacet
  facet normal -1 -0 0
    outer loop
      vertex -3.75 -5 5
      vertex -3.75 -11.6082 3
      vertex -3.75 -11.6082 5
    endloop
  endfacet
  facet normal -1 0 0
    outer loop
      vertex -3.75 5 3
      vertex -3.75 11.6082 5
      vertex -3.75 11.6082 3
    endloop
  endfacet
  facet normal -1 -0 0
    outer loop
      vertex -3.75 11.6082 5
      vertex -3.75 5 3
      vertex -3.75 5 5
    endloop
  endfacet
  facet normal 1 -0 0
    outer loop
      vertex 3.75 -11.6082 5
      vertex 3.75 -5 3
      vertex 3.75 -5 5
    endloop
  endfacet
  facet normal 1 0 0
    outer loop
      vertex 3.75 -5 3
      vertex 3.75 -11.6082 5
      vertex 3.75 -11.6082 3
    endloop
  endfacet
  facet normal 1 -0 0
    outer loop
      vertex 3.75 5 5
      vertex 3.75 11.6082 3
      vertex 3.75 11.6082 5
    endloop
  endfacet
  facet normal 1 0 0
    outer loop
      vertex 3.75 11.6082 3
      vertex 3.75 5 5
      vertex 3.75 5 3
    endloop
  endfacet
  facet normal 0 1 -0
    outer loop
      vertex -3.75 5 3
      vertex -4.5 5 5
      vertex -3.75 5 5
    endloop
  endfacet
  facet normal 0 1 0
    outer loop
      vertex -4.5 5 5
      vertex -3.75 5 3
      vertex -4.5 5 3
    endloop
  endfacet
  facet normal 0 1 -0
    outer loop
      vertex 4.5 5 3
      vertex 3.75 5 5
      vertex 4.5 5 5
    endloop
  endfacet
  facet normal 0 1 0
    outer loop
      vertex 3.75 5 5
      vertex 4.5 5 3
      vertex 3.75 5 3
    endloop
  endfacet
  facet normal 0 -1 0
    outer loop
      vertex -4.5 -5 3
      vertex -3.75 -5 5
      vertex -4.5 -5 5
    endloop
  endfacet
  facet normal 0 -1 -0
    outer loop
      vertex -3.75 -5 5
      vertex -4.5 -5 3
      vertex -3.75 -5 3
    endloop
  endfacet
  facet normal 0 -1 0
    outer loop
      vertex 3.75 -5 3
      vertex 4.5 -5 5
      vertex 3.75 -5 5
    endloop
  endfacet
  facet normal 0 -1 -0
    outer loop
      vertex 4.5 -5 5
      vertex 3.75 -5 3
      vertex 4.5 -5 3
    endloop
  endfacet
  facet normal -0.980785 -0.195091 0
    outer loop
      vertex 2.5 0 3
      vertex 2.3097 0.956708 5
      vertex 2.3097 0.956708 3
    endloop
  endfacet
  facet normal -0.980785 -0.195091 0
    outer loop
      vertex 2.3097 0.956708 5
      vertex 2.5 0 3
      vertex 2.5 0 5
    endloop
  endfacet
  facet normal 0.980785 -0.195091 0
    outer loop
      vertex -2.5 0 5
      vertex -2.3097 0.956708 3
      vertex -2.3097 0.956708 5
    endloop
  endfacet
  facet normal 0.980785 -0.195091 0
    outer loop
      vertex -2.3097 0.956708 3
      vertex -2.5 0 5
      vertex -2.5 0 3
    endloop
  endfacet
  facet normal -0.195091 -0.980785 0
    outer loop
      vertex 0 2.5 3
      vertex 0.956708 2.3097 5
      vertex 0 2.5 5
    endloop
  endfacet
  facet normal -0.195091 -0.980785 -0
    outer loop
      vertex 0.956708 2.3097 5
      vertex 0 2.5 3
      vertex 0.956708 2.3097 3
    endloop
  endfacet
  facet normal -0.83147 -0.555569 0
    outer loop
      vertex 2.3097 0.956708 3
      vertex 1.76777 1.76777 5
      vertex 1.76777 1.76777 3
    endloop
  endfacet
  facet normal -0.83147 -0.555569 0
    outer loop
      vertex 1.76777 1.76777 5
      vertex 2.3097 0.956708 3
      vertex 2.3097 0.956708 5
    endloop
  endfacet
  facet normal -0.195091 0.980785 0
    outer loop
      vertex 0.956708 -2.3097 3
      vertex 0 -2.5 5
      vertex 0.956708 -2.3097 5
    endloop
  endfacet
  facet normal -0.195091 0.980785 0
    outer loop
      vertex 0 -2.5 5
      vertex 0.956708 -2.3097 3
      vertex 0 -2.5 3
    endloop
  endfacet
  facet normal -0.555569 -0.83147 0
    outer loop
      vertex 0.956708 2.3097 3
      vertex 1.76777 1.76777 5
      vertex 0.956708 2.3097 5
    endloop
  endfacet
  facet normal -0.555569 -0.83147 -0
    outer loop
      vertex 1.76777 1.76777 5
      vertex 0.956708 2.3097 3
      vertex 1.76777 1.76777 3
    endloop
  endfacet
  facet normal 0.555569 -0.83147 0
    outer loop
      vertex -1.76777 1.76777 3
      vertex -0.956708 2.3097 5
      vertex -1.76777 1.76777 5
    endloop
  endfacet
  facet normal 0.555569 -0.83147 0
    outer loop
      vertex -0.956708 2.3097 5
      vertex -1.76777 1.76777 3
      vertex -0.956708 2.3097 3
    endloop
  endfacet
  facet normal 0.83147 -0.555569 0
    outer loop
      vertex -2.3097 0.956708 5
      vertex -1.76777 1.76777 3
      vertex -1.76777 1.76777 5
    endloop
  endfacet
  facet normal 0.83147 -0.555569 0
    outer loop
      vertex -1.76777 1.76777 3
      vertex -2.3097 0.956708 5
      vertex -2.3097 0.956708 3
    endloop
  endfacet
  facet normal 0.195091 -0.980785 0
    outer loop
      vertex -0.956708 2.3097 3
      vertex 0 2.5 5
      vertex -0.956708 2.3097 5
    endloop
  endfacet
  facet normal 0.195091 -0.980785 0
    outer loop
      vertex 0 2.5 5
      vertex -0.956708 2.3097 3
      vertex 0 2.5 3
    endloop
  endfacet
  facet normal 0.555569 0.83147 -0
    outer loop
      vertex -0.956708 -2.3097 3
      vertex -1.76777 -1.76777 5
      vertex -0.956708 -2.3097 5
    endloop
  endfacet
  facet normal 0.555569 0.83147 0
    outer loop
      vertex -1.76777 -1.76777 5
      vertex -0.956708 -2.3097 3
      vertex -1.76777 -1.76777 3
    endloop
  endfacet
  facet normal 0.980785 0.195091 0
    outer loop
      vertex -2.3097 -0.956708 5
      vertex -2.5 0 3
      vertex -2.5 0 5
    endloop
  endfacet
  facet normal 0.980785 0.195091 0
    outer loop
      vertex -2.5 0 3
      vertex -2.3097 -0.956708 5
      vertex -2.3097 -0.956708 3
    endloop
  endfacet
  facet normal -0.980785 0.195091 0
    outer loop
      vertex 2.3097 -0.956708 3
      vertex 2.5 0 5
      vertex 2.5 0 3
    endloop
  endfacet
  facet normal -0.980785 0.195091 0
    outer loop
      vertex 2.5 0 5
      vertex 2.3097 -0.956708 3
      vertex 2.3097 -0.956708 5
    endloop
  endfacet
  facet normal -0.555569 0.83147 0
    outer loop
      vertex 1.76777 -1.76777 3
      vertex 0.956708 -2.3097 5
      vertex 1.76777 -1.76777 5
    endloop
  endfacet
  facet normal -0.555569 0.83147 0
    outer loop
      vertex 0.956708 -2.3097 5
      vertex 1.76777 -1.76777 3
      vertex 0.956708 -2.3097 3
    endloop
  endfacet
  facet normal -0.83147 0.555569 0
    outer loop
      vertex 1.76777 -1.76777 3
      vertex 2.3097 -0.956708 5
      vertex 2.3097 -0.956708 3
    endloop
  endfacet
  facet normal -0.83147 0.555569 0
    outer loop
      vertex 2.3097 -0.956708 5
      vertex 1.76777 -1.76777 3
      vertex 1.76777 -1.76777 5
    endloop
  endfacet
  facet normal 0.195091 0.980785 -0
    outer loop
      vertex 0 -2.5 3
      vertex -0.956708 -2.3097 5
      vertex 0 -2.5 5
    endloop
  endfacet
  facet normal 0.195091 0.980785 0
    outer loop
      vertex -0.956708 -2.3097 5
      vertex 0 -2.5 3
      vertex -0.956708 -2.3097 3
    endloop
  endfacet
  facet normal 0.83147 0.555569 0
    outer loop
      vertex -1.76777 -1.76777 5
      vertex -2.3097 -0.956708 3
      vertex -2.3097 -0.956708 5
    endloop
  endfacet
  facet normal 0.83147 0.555569 0
    outer loop
      vertex -2.3097 -0.956708 3
      vertex -1.76777 -1.76777 5
      vertex -1.76777 -1.76777 3
    endloop
  endfacet
endsolid OpenSCAD_Model
